<svg version="1.1" xmlns="http://www.w3.org/2000/svg" xmlns:xlink="http://www.w3.org/1999/xlink" x="0px" y="0px" width="800px"
	 height="100px" viewBox="0 0 800 100" enable-background="new 0 0 800 100" xml:space="preserve">
<g id="Layer_2">
</g>
<g id="Layer_1">
	<g id="aSReEq_1_">
		<g>
			<path fill-rule="evenodd" clip-rule="evenodd" d="M58.869,24.171c1.568,7.442-3.787,9.692-6.567,13.507
				c-1.66-0.615-4.37-1.427-6.567-0.711c0.054-2.764,1.501-7.257,0.938-10.663C50.882,25.738,54.134,24.205,58.869,24.171z"/>
			<path fill-rule="evenodd" clip-rule="evenodd" d="M61.214,24.407c2.82-0.873,5.407,0.539,8.444,0.237
				c-3.359,3.163-7.048,5.991-8.678,10.9c-1.56,0.153-1.927,0.089-3.049-0.474C60.234,32.896,62.375,29.294,61.214,24.407z"/>
			<path fill-rule="evenodd" clip-rule="evenodd" d="M80.446,26.777c-1.743,3.926-3.712,7.624-7.036,9.952
				c-2.945-0.816-6.667-0.847-10.32-0.947c-0.28-1.047,1.09-1.92,1.876-3.081c0.778-1.148,1.305-2.564,2.345-3.555
				c1.096-1.041,3.44-3.413,4.691-3.791C74.546,24.587,77.397,26.349,80.446,26.777z"/>
			<path fill-rule="evenodd" clip-rule="evenodd" d="M43.858,27.251c2.117,2.191-0.177,7.142-0.235,10.189
				c-1.939,0.173-3.28,0.951-4.69,1.659c-0.634-2.188,0.13-5.369-0.469-7.583c-0.282-1.04-1.12-1.307-0.938-2.133
				C39.615,28.651,41.387,27.598,43.858,27.251z"/>
			<path fill-rule="evenodd" clip-rule="evenodd" d="M82.322,27.251c3.039,1.748,6.855,2.711,8.678,5.688
				c-0.851,2.066-1.761,3.361-3.752,5.45c-0.735,0.771-2.595,3.499-3.049,3.555c-0.763,0.093-1.709-1.647-2.345-2.133
				c-1.264-0.964-3.693-2.162-5.629-2.606C78.523,34.155,80.964,31.25,82.322,27.251z"/>
			<path fill-rule="evenodd" clip-rule="evenodd" d="M36.822,40.521c-2.035,2.446-4.355,4.604-5.395,8.057
				c-1.529-1.535-2.439-3.696-3.752-5.45c1.606-4.933,2.915-10.167,7.271-12.322C37.661,31.933,36.568,36.907,36.822,40.521z"/>
			<path fill-rule="evenodd" clip-rule="evenodd" d="M92.173,35.071c0.711,1.857,2.221,3.833,2.111,5.688
				c-0.179,2.986-4.391,4.792-6.098,6.635c-0.451-1.756-1.712-2.693-2.58-4.028C87.684,40.488,90.677,38.536,92.173,35.071z"/>
			<path fill-rule="evenodd" clip-rule="evenodd" d="M216.007,35.308c0.876,0.282-1.074,1.522-0.938,2.607
				c-3.371-2.811-11.634-2.861-13.838,0.947c-1.016-1.027-2.159-1.926-3.752-2.369C202.855,35.289,209.459,35.327,216.007,35.308z"
				/>
			<path fill-rule="evenodd" clip-rule="evenodd" d="M223.513,36.256c1.899-0.73,4.166,0.212,6.098,0.237
				c0.205,0.661,0.562,1.17,0.704,1.896c-2.214,0.133-2.789,1.922-4.222,2.844C225.784,39.016,224.678,37.605,223.513,36.256z"/>
			<path fill-rule="evenodd" clip-rule="evenodd" d="M200.293,40.521c0,0.711,0,1.422,0,2.133c1.825,2.194,0.681,8.62,4.69,7.819
				c-1.375-2.717-2.214-5.978-2.814-9.479c1.562-3.814,9.121-4.182,11.727-0.947c-0.451,2.466-0.912,4.923-0.704,8.057
				c-0.857,0.16-1.706,0.33-2.814,0.236c-0.302-3.328-0.528-6.733-3.752-7.108c-0.502,2.429,2.132,3.671,1.876,6.635
				c0.236,0.713-0.522,0.42-0.938,0.474c0.158,0.63,0.448,1.127,0.704,1.659c-1.162,2.539-2.499,4.899-5.629,5.45
				c-0.641-2.749-2.225-4.545-5.863-4.266c0.927-1.727,1.592-3.916,1.172-5.924c-1.188-5.683-11.835-6.306-14.072-1.185
				c2.514,0.689,7.009-3.082,10.554-0.948c1.012,0.609,1.113,2.057,2.111,3.08c0.257,2.394-0.931,3.325-1.407,4.977
				c-3.534,0.768-7.083,2.667-7.974,7.583c-0.374,2.062-0.25,4.783-1.173,6.398c-1.092,1.911-3.444,2.033-1.407,3.791
				c4.438-0.53,4.424-5.269,5.159-9.479c0.756-4.323,4.717-7.406,10.085-5.924c0.45,1.858,0.864,2.478,1.642,4.739
				c-1.03,1.692-3.977,4.54-2.111,6.872c2.778-1.427,1.962-7.59,7.036-5.925c0.597,3.583,1.878,6.477,5.16,7.347
				c-5.176,3.811-2.451,12.754,3.049,14.218c-2.666-0.245-5.481,1.229-7.739,0.711c-2.333-0.535-4.145-3.706-3.987-6.398
				c0.204-3.488,4.917-6.99,3.049-10.663c-0.391,0-0.782,0-1.173,0c-1.041,0.903-0.221,1.763-0.469,2.844
				c-0.533,2.324-2.731,4.354-3.049,6.397c-0.579,3.729,1.155,6.439,3.518,8.294c-1.602,1.226-3.729,1.92-5.863,2.606
				c0.082-4.105,2.866-8.339,0.704-11.611c-1.064-1.609-3.015-1.517-3.987-2.606c-1.427-1.6-2.482-5.076-1.642-7.346
				c0.812-2.192,3.538-3.776,1.876-6.635c-1.039,0.698-3.811,4.492-4.222,6.635c-0.724,3.778,1.428,6.062,1.876,8.294
				c-3.069,0.453-5.386,1.667-6.566,4.028c-1.235-1.675-2.957-2.858-6.098-2.606c-1.178-1.603-2.284-5.17-1.173-7.583
				c2.854-1.866,5.984-4.972,4.691-9.716c-0.283-1.039-1.04-1.614-1.408-2.844c1.663-2.902,6.17-2.929,8.209-5.45
				c-3.911-1.482-6.681,2.024-9.381,3.317c-2.488-1.87-4.793-6.372-2.58-10.189c4.56-2.028,10.474-2.688,15.949-3.791
				C196.681,38.011,199.063,38.684,200.293,40.521z"/>
			<path fill-rule="evenodd" clip-rule="evenodd" d="M678.041,36.729c0.859-0.078,1.305,0.264,1.877,0.475
				c-0.441,0.896-0.545,2.136-1.641,2.369C678.434,38.388,678.059,37.739,678.041,36.729z"/>
			<path fill-rule="evenodd" clip-rule="evenodd" d="M676.166,37.204c-0.164,1.034,0.398,1.334,0.234,2.369
				c-0.855-0.321-1.158-1.198-2.111-1.422C674.824,37.742,675.195,37.171,676.166,37.204z"/>
			<path fill-rule="evenodd" clip-rule="evenodd" d="M49.018,56.872c-0.242-8.775,1.799-15.244,6.333-19.194
				c5.261,4.294,0.224,12.158-1.173,16.824C52.256,55.088,51.243,56.592,49.018,56.872z"/>
			<path fill-rule="evenodd" clip-rule="evenodd" d="M235.943,37.915c2.603-0.259,5.999,0.73,8.678,1.185
				c-1.605,1.458-3.583,2.541-4.691,4.502C238.987,41.315,238.665,38.403,235.943,37.915z"/>
			<path fill-rule="evenodd" clip-rule="evenodd" d="M681.561,38.389c1.441,0.439,1.492,2.283,2.111,3.555
				c-0.496,0.606-1.73,0.463-2.816,0.474c0.309-1.18-0.721-1.008-0.703-1.896C680.875,40.066,681.148,39.157,681.561,38.389z"/>
			<path fill-rule="evenodd" clip-rule="evenodd" d="M50.66,39.1c-0.472,2.383-2.864,4.836-3.049,8.294
				c-2.115-2.129-4.099-4.39-5.395-7.346C44.301,38.765,47.773,38.249,50.66,39.1z"/>
			<path fill-rule="evenodd" clip-rule="evenodd" d="M648.959,46.919c-0.881-2.202-2.873-3.641-2.111-6.16
				c1.203-3.963,6.102-0.039,6.334,2.369C653.441,45.826,651.67,47.461,648.959,46.919z"/>
			<path fill-rule="evenodd" clip-rule="evenodd" d="M672.883,39.573c0.705,0.631,1.855,0.81,1.875,2.133
				c-0.273,0.038-0.197,0.432-0.234,0.711c-0.781,0-1.562,0-2.344,0C672.021,41.073,672.705,40.58,672.883,39.573z"/>
			<path fill-rule="evenodd" clip-rule="evenodd" d="M271.123,100c-2.111,0-4.221,0-6.332,0c-1.069-0.578-3.097-0.188-4.222-0.711
				c0.689-1.693,3.1-0.569,4.691-0.711c2.383-0.212,4.127-1.425,5.629-2.133c-0.103-0.814,0.093-1.328,0.234-1.896
				c-2.235,0.293-4.833,2.414-7.974,2.133c-3.334-0.299-6.097-2.53-6.567-5.924c2.164-1.685,5.08-2.608,5.629-5.925
				c7.756,2.611,10.497-5.799,9.616-11.849c-2.598,0.754-1.681,4.229-2.345,6.398c-1.985,6.482-9.173,4.046-10.32-1.896
				c4.307-3.893,4.843-15.019-4.456-13.744c-0.7-0.535,1.737-1.831,2.345-2.606c1.517,2.975,5.412,5.914,9.381,4.502
				c2.552-0.907,4.898-4.588,3.987-7.583c-2.739,1.266-2.348,5.616-5.394,6.161c-3.172,0.568-5.485-2.616-7.036-4.977
				c4.127-6.521,1.38-18.073-7.505-16.113c-3.489,0.77-5.202,5.015-6.801,8.294c4.872,1.016,4.403-5.587,8.208-5.924
				c4.922-0.437,5.889,6.177,5.16,10.663c-0.613,3.772-4.278,5.785-5.629,7.583c-1.873,0.004-3.802-0.05-4.221,1.422
				c1.608,2.115,5.711,0.155,8.678,0.474c1.414,0.151,2.28,0.653,3.283,1.185c2.799,4.363-1.145,9.12-3.987,11.375
				c-2.132,0.058-4.676-0.302-4.691,1.896c1.566,1.236,3.852-0.611,6.333,0c1.577,1.014,2.674,2.512,3.987,3.791
				c-0.67,2.246-1.811,4.017-3.987,4.74c-0.135-0.417,0.284-1.393-0.234-1.422c-1.265,0.144-1.416,1.413-1.876,2.369
				c-1.017,0-2.033,0-3.049,0c0.406-0.38,0.854-0.717,0.704-1.658c-2.74,1.04-7.039,1.171-10.554,0.711
				c0.148-0.799,0.673-1.216,0.469-2.37c-1.875-1.003-2.24,1.084-2.814,2.133c-2.03,0.24-3.647,0.896-4.691,2.133
				c-0.254-1.524,1.927-2.632,1.876-4.739c2.626-1.243,4.837-2.306,7.974-2.133c4.257,0.233,8.254,3.327,11.727,2.369
				c-0.565-1.811-2.78-1.864-4.926-2.606c-1.622-0.561-4.805-0.869-5.863-1.658c-2.541-1.896-0.518-5.677,1.172-6.636
				c1.363-0.773,9.52-1.592,9.147-3.555c-0.448-2.354-5.795,0.522-7.74,0.475c-3.771-0.094-5.615-4.882-5.628-6.872
				c-0.036-4.9,8.324-7.995,10.085-11.375c1.129-2.166,1.131-5.663-2.346-4.739c2.175,4.786-2.72,6.716-5.16,9.005
				c-10-2.442-4.544-16.69,2.58-18.246c3.479,0.621,7.037,1.649,10.085,3.08c1.6,0.751,5.02,1.887,6.098,3.081
				c4.074,4.515-3.405,8.85-1.877,14.691c2.245,0.385,2.148-2.184,2.581-3.554c0.512-1.629,1.286-3.121,1.642-4.503
				c5.547,0.951,9.297,3.718,8.912,10.664c-1.347,4.728-8.707,5.79-11.257,9.479c-0.714,1.031-2.006,4.172-0.469,5.924
				c2.447-0.129,1.459-2.641,2.111-4.028c1.198-2.551,4.543-2.753,6.332-4.739c1.997,0.945,3.454,2.313,3.987,4.266
				c1.465,5.359-3.828,8.836-5.863,12.559c-2.922,1.708-5.439,3.825-8.443,5.45c-0.239,1.032,0.485,1.09,0.704,1.659
				c4.265-0.51,5.887-3.689,8.912-5.45c3.607-0.371,5.3,1.787,5.16,4.028C276.091,95.487,271.474,97.423,271.123,100z"/>
			<path fill-rule="evenodd" clip-rule="evenodd" d="M40.106,40.521c1.126,5.125,7.197,6.44,6.098,13.033
				c-0.106,0.659,1.278-0.187,1.172,0.474c-0.318,4.971-1.201,9.371-3.987,11.849c-2.381,1.402-5.024,1.636-7.505,1.896
				c-1.705-1.042-4.605-0.877-5.16-3.08c3.098,1.391,8.508,1.618,11.023-0.475c1.744-1.45,3.542-4.923,3.987-7.108
				c0.478-2.342,0.175-4.922-0.704-6.398c-0.94-1.582-2.722-1.771-3.987-3.317c-1.522-1.86-0.976-3.838-1.642-6.398
				C39.591,40.791,40.044,40.854,40.106,40.521z"/>
			<path fill-rule="evenodd" clip-rule="evenodd" d="M80.446,41.706c2.528,1.947,5.057,3.896,5.863,7.583
				c-3.554,1.992-6.21-2.387-9.147-3.317C78.292,44.585,79.595,43.373,80.446,41.706z"/>
			<path fill-rule="evenodd" clip-rule="evenodd" d="M586.34,43.839c0.045,1.628-0.428,2.729-0.939,3.791
				c-2.303,1.295-5.719,0.5-5.158-3.08C581.373,42.839,584.795,41.929,586.34,43.839z"/>
			<path fill-rule="evenodd" clip-rule="evenodd" d="M78.804,49.052c-0.286,0.818-0.775,1.429-1.407,1.896
				c-2.888-0.795-6.215-1.146-10.085-0.948c0.918-2.627,1.763-5.328,3.519-7.109C73.542,44.89,75.679,47.471,78.804,49.052z"/>
			<path fill-rule="evenodd" clip-rule="evenodd" d="M675.227,43.839c-0.172,1.248-1.299,1.531-1.406,2.844
				c-0.949-0.384-0.92-1.755-1.641-2.37C672.826,43.782,674.037,43.821,675.227,43.839z"/>
			<path fill-rule="evenodd" clip-rule="evenodd" d="M683.672,44.076c-0.166,0.78-0.377,1.515-0.469,2.369
				c-0.891-0.364-0.988-1.531-1.877-1.896C681.842,44.124,682.998,44.343,683.672,44.076z"/>
			<path fill-rule="evenodd" clip-rule="evenodd" d="M735.973,44.312c4.25,0.604,6.365,3.363,7.27,7.347
				c-1.254-0.414-3.965-0.42-4.926,0.236C736.229,50.688,735.936,47.667,735.973,44.312z"/>
			<path fill-rule="evenodd" clip-rule="evenodd" d="M732.924,44.55c0,1.737,0,3.476,0,5.213c-1.469,0.176-2.215,1.08-2.58,2.37
				c-1.252,0-2.502,0-3.752,0C727.219,48.107,729.811,46.065,732.924,44.55z"/>
			<path fill-rule="evenodd" clip-rule="evenodd" d="M678.98,45.261c1.113,0.533,1.975,1.322,2.346,2.606
				c-0.707,0.312-1.275,0.766-2.346,0.711C679.266,47.244,678.359,46.182,678.98,45.261z"/>
			<path fill-rule="evenodd" clip-rule="evenodd" d="M677.338,45.498c-0.158,1.186,0.217,1.834,0.234,2.843
				c-1.203,0.189-1.537-0.498-2.578-0.474C675.891,47.194,675.965,45.69,677.338,45.498z"/>
			<path fill-rule="evenodd" clip-rule="evenodd" d="M27.207,46.445c4.458,3.525,3.531,11.582,1.876,17.536
				C24.394,61.809,26.528,51.481,27.207,46.445z"/>
			<path fill-rule="evenodd" clip-rule="evenodd" d="M91.938,46.683c0.569,0.363-0.503,1.053-0.47,1.658
				c-4.541,3.15-7.851,9.815-7.036,16.825c-0.582-0.035-1.138-0.044-1.173,0.474c-0.533-3.556,0.391-9.426,2.346-13.033
				c0.502,0.512,1.31,0.121,1.642-0.236C86.863,49.304,90.627,48.783,91.938,46.683z"/>
			<path fill-rule="evenodd" clip-rule="evenodd" d="M613.779,47.156c-0.037,0.275,0.053,0.422,0.234,0.474
				c-0.041,2.217-3.801,3.027-3.518,0C611.5,47.344,612.559,46.516,613.779,47.156z"/>
			<path fill-rule="evenodd" clip-rule="evenodd" d="M80.446,50.237c1.146,0.5,2.155,1.14,3.518,1.422
				c-0.382,0.877-1.09,1.426-1.172,2.606c-1.896,0.02-2.201-1.568-3.753-1.896C79.01,51.155,80.672,51.65,80.446,50.237z"/>
			<path fill-rule="evenodd" clip-rule="evenodd" d="M79.742,55.45c-0.641,0.774-1.715,1.11-2.814,1.422
				c-1.054-5.377-12.339-4.775-13.837-0.237c-0.726-0.847-1.259-1.887-1.407-3.317C67.012,50.486,76.433,51.955,79.742,55.45z"/>
			<path fill-rule="evenodd" clip-rule="evenodd" d="M734.33,52.133c0.352,0.277,0.961,0.295,1.174,0.711
				C735.451,55.06,732.912,53.291,734.33,52.133z"/>
			<path fill-rule="evenodd" clip-rule="evenodd" d="M175.198,76.777c-0.555,1.572-2.027,2.218-2.345,4.028
				c3.33,0.836,4.452-2.609,4.69-5.688c1.958-1.067,4.079,0.929,5.16-0.236c3.684,0.806,3.351,6.671,1.642,9.241
				c-2.802,1.751-5.864,3.238-8.209,5.45c2.476,2.049,4.582-1.113,6.567-2.369c1.035-0.654,2.199-0.857,3.049-1.422
				c1.072-1.926,2.138-3.407,2.111-5.925c-0.009-0.854-0.66-1.953-0.469-2.843c0.621-2.903,8.365-5.55,10.789-2.607
				c1.101,3.67-0.829,7.663-1.642,10.9c-2.442,1.087-4.318,2.746-6.802,3.792c1.139-2.658,1.075-5.779,2.111-8.294
				c0.492-1.193,1.813-1.861,1.407-3.317c-6.159,1.676-1.939,13.839-9.381,14.218c0.208-0.5,0.713-0.7,0.704-1.422
				c-2.462,0.705-5.075,3.238-8.444,3.317c-2.58,0.062-4.689-1.046-6.098-3.08c-0.094-1.596,0.209-2.79,0.469-4.028
				c5.989,0.741,10.099-2.423,10.789-7.82c-2.816,2.234-7.729,9-12.43,4.977c-1.336-1.144-1.011-2.678-1.642-4.503
				c1.719-2.433,3.415-4.533,3.752-7.819c0.309-2.995-1.095-6.458,0-9.479c1.304-3.599,4.659-4.229,7.271-6.636
				c-1.323-2.296-4.411,0.588-5.863,1.186c-2.432,2.789-3.967,5.612-3.753,10.189c0.149,3.192,0.63,6.521-1.173,9.005
				c-1.091,0.397-1.606,1.379-2.111,2.369c-3.574,1.552-8.002,1.462-9.381-2.133c-0.786-2.047,0.443-6.003-1.876-6.635
				c-1.66,2.667,0.345,5.947,0.235,8.768c-0.08,2.054-1.121,4.612-2.58,5.924c-2.182,1.963-8.113,4.296-10.789,0.711
				c-0.046-1.506,1.556-3.297,1.642-5.45c-4.682,1.589-4.478,8.114-7.505,11.375c0.645,2.979-0.781,5.18-0.469,8.53
				c-2.921-0.05-5.146-0.803-6.332-2.606c2.75-5.345,4.613-16.65,9.381-20.853c2.072-1.826,7.207-3.81,9.146-0.475
				c0.473,1.497,0.319,3.628,1.407,4.503c1.958-1.394,0.694-5.909-0.704-6.872c1.526-4.029,7-11.599,11.727-8.057
				c2.222,1.664,1.981,5.295,2.346,9.241c0.534,0.115,1.198,0.471,1.642,0c1.178-3.049,0.314-8.027-1.642-9.479
				c0.736-1.123,1.199-2.192,2.111-3.317c0.774-0.956,1.961-1.424,2.814-2.37c0.668-0.741,0.863-1.907,1.642-2.606
				c3.22-2.892,7.243-4.508,11.023-2.844c2.024,0.891,3.518,1.983,3.518,4.503c0,6.062-9.803,4.757-8.912,12.559
				c0.163,1.427,1.021,1.709,1.407,3.792C174.432,74.935,174.842,75.901,175.198,76.777z"/>
			<path fill-rule="evenodd" clip-rule="evenodd" d="M156.67,53.317c0.74,3.28,2.982,5.045,5.864,6.161
				c-0.433,1.301-1.27,2.193-1.642,3.555c-2.912-0.994-9.799-4.294-11.961-0.237c0.904,1.307,2.215-0.436,3.753,0
				c-2.533,2.102-4.739,4.533-6.333,7.583c-1.775-0.734-2.153-2.879-2.345-5.213C147.786,60.771,152.051,56.866,156.67,53.317z"/>
			<path fill-rule="evenodd" clip-rule="evenodd" d="M59.572,54.266c0.443,1.685,1.542,2.707,2.111,4.266
				c-1.477,2.802-0.536,7.293,2.111,8.057c-0.206,0.661-0.562,1.17-0.704,1.896c-2.234-0.279-3.381,1.793-4.456,1.896
				c0.584-6.83-2.094-10.364-4.457-14.218C55.831,55.383,58.372,55.501,59.572,54.266z"/>
			<path fill-rule="evenodd" clip-rule="evenodd" d="M743.947,54.739c-0.598,4.373-3.549,6.368-7.74,7.109
				c0.311-1.271,0.447-3.966,0-5.214c0.758-0.498,1.367-1.146,1.877-1.896C739.852,55.121,742.152,55.004,743.947,54.739z"/>
			<path fill-rule="evenodd" clip-rule="evenodd" d="M733.158,56.161c-0.199,1.293-0.096,3.941,0.234,5.45
				c-3.104-0.341-6.051-2.891-7.037-6.161C728.936,54.454,731.18,55.352,733.158,56.161z"/>
			<path fill-rule="evenodd" clip-rule="evenodd" d="M55.116,61.374c-3.146,2.903-6.483,5.613-8.912,9.242
				c-2.767,0.092-6.385,1.259-8.209,3.08c-0.543-0.952-0.081-2.919-0.234-4.265c6.581-0.618,10.411-4.016,11.023-10.664
				c1.152-0.415,2.5-0.634,3.284-1.422C53.45,58.318,54.015,60.117,55.116,61.374z"/>
			<path fill-rule="evenodd" clip-rule="evenodd" d="M281.443,57.583c0.874,0.696,1.577,1.566,2.58,2.133
				c-3.415,2.168-4.277,7.877-3.518,13.507c-1.345-0.253-1.781,0.413-2.814,0.474c-0.656-2.102-1.748-3.763-3.519-4.739
				c0.741-2.647,3.432-3.325,3.284-6.872C278.81,60.61,279.979,58.947,281.443,57.583z"/>
			<path fill-rule="evenodd" clip-rule="evenodd" d="M599.238,60.9c6.539,5.981,0.91,17.486-7.975,13.507
				c-1.648-0.738-4.461-3.357-4.221-6.872C587.404,62.261,593.148,58.793,599.238,60.9z"/>
			<path fill-rule="evenodd" clip-rule="evenodd" d="M286.368,61.849c2.91,3.143,5.527,6.579,8.208,9.952
				c0.263,0.746,0.021,0.536,0,1.422c0.064,0.488,1.039,0.057,0.938,0.711c0.095,1.438-0.826,1.851-1.172,2.844
				c-1.609-1.377-2.311-3.669-3.987-4.977c-1.279-1.63-1.589-4.239-3.283-5.45c-1.879,2.206,0.666,4.861,2.345,7.109
				c1.924,2.575,4.276,4.501,3.518,9.005c-1.239,7.359-7.122,15.838-14.541,10.426c2.322-1.501,3.11-6.241,1.172-8.768
				c-0.165-1.145,0.991-1.847,0.235-2.844c-4.985,0.979,0.838,6.533-1.642,9.242c-0.965-2.186-2.584-3.708-5.395-4.028
				c2.103-3.326,5.702-5.141,5.16-11.138c0.756-0.342,1.967-0.224,3.049-0.237c0.329,1.327,0.454,2.858,2.345,2.607
				c0.765-0.561-0.216-1.343-0.234-1.896c4.792,2.448,2.665,10.113,0.234,13.508c2.173,1.227,4.283-2.964,4.691-5.688
				c0.776-5.185-2.003-9.076-5.395-9.953C282.027,69.318,281.324,61.972,286.368,61.849z"/>
			<path fill-rule="evenodd" clip-rule="evenodd" d="M707.125,67.062c-0.309-0.874-0.211-2.156-0.469-3.08
				C709.736,60.449,712.352,69.707,707.125,67.062z"/>
			<path fill-rule="evenodd" clip-rule="evenodd" d="M81.619,65.403c0.325,1.771-1.849,2.505-2.814,4.028
				c-0.922,1.454-1.273,3.213-2.345,4.502c-1.49,1.792-4.443,3.749-6.801,3.792c-5.07,0.09-5.249-8.999-2.346-12.086
				c0.74,2.699-1.784,7.12,0.469,9.242C77.226,76.762,76.229,66.829,81.619,65.403z"/>
			<path fill-rule="evenodd" clip-rule="evenodd" d="M177.075,66.588c0.441,2.161,0.422,4.786,1.642,6.161
				c-0.329,0.378-0.808,0.605-1.407,0.711C176.57,71.681,175.2,68.216,177.075,66.588z"/>
			<path fill-rule="evenodd" clip-rule="evenodd" d="M34.242,68.957c0.303,0.327,1.019,0.235,1.642,0.237
				c-0.047,2.26,0.086,4.336,0.704,5.924c-1.862,1.91-2.283,5.276-3.049,8.294c-2.869-2.244,0.732-5.302,1.173-8.768
				C34.964,72.654,34.044,71.251,34.242,68.957z"/>
			<path fill-rule="evenodd" clip-rule="evenodd" d="M622.926,72.038c-0.086,1.177-0.498,2.024-0.938,2.844
				C617.906,75.26,620.322,69.147,622.926,72.038z"/>
			<path fill-rule="evenodd" clip-rule="evenodd" d="M45.031,72.274c0.295,0.059,0.237,0.472,0,0.475
				c-6.136,2.173-8.657,7.999-8.677,16.351c-1.157-1.119-0.66-3.464-0.469-4.977c0.4-3.176,1.651-6.5,2.814-8.53
				C40.382,74.055,43.159,73.622,45.031,72.274z"/>
			<path fill-rule="evenodd" clip-rule="evenodd" d="M235.474,75.118c0.109,1.373-0.391,2.133-0.469,3.318
				c-0.632-0.941-0.804-2.348-1.876-2.844C233.645,75.166,234.8,75.386,235.474,75.118z"/>
			<path fill-rule="evenodd" clip-rule="evenodd" d="M296.688,76.304c3.932,4.081,4.377,12.266,0,16.113
				c-1.384-1.287-2.487-2.858-3.284-4.739c0.844-2.479,2.065-5.795,1.407-9.005C295.22,77.664,296.687,77.725,296.688,76.304z"/>
			<path fill-rule="evenodd" clip-rule="evenodd" d="M161.83,80.806c-1.031,1.85-2.704,4.154-2.346,6.635
				c2.14,0.334,2.199-2.068,2.814-3.317c0.749-1.519,1.386-2.59,2.814-3.317c0.873,2.356,1.799,4.659,4.456,5.213
				c-2.933,2.914-0.75,8.453,3.049,8.769c-2.566,1.271-7.826,3.497-8.443-0.948c-0.32-1.035,0.908-0.504,0.704-1.422
				c0.216-0.929-1.237-0.172-1.407-0.711c-0.409-3.196,1.897-4.851,1.407-7.346c-2.871,0.653-2.799,4.281-2.814,7.819
				c-5.449,1.083-4.602-4.197-6.333-6.872c-0.391,0-0.782,0-1.173,0c-0.545,0.725,0.005,1.926,0.234,2.607
				c-1.389,3.093-4.479,5.65-9.147,4.028c0.903,5.324,9.306,2.238,9.616-1.422c1.225,2.08,2.609,3.999,6.333,3.555
				c0.081,1.74-0.424,2.889-0.704,4.265c-2.164,0.579-4.684,0.797-7.271,0.948c0.334-0.926,2.173-0.332,2.111-1.659
				c-1.771-2.309-6.44,2.253-9.851,0.237c-2.867-2.354-3.051-7.535,0.704-9.716c1.727-1.003,3.937-1.01,5.629-2.133
				c2.37-1.572,3.177-3.514,3.752-6.635C157.272,79.6,159.08,81.269,161.83,80.806z"/>
			<path fill-rule="evenodd" clip-rule="evenodd" d="M139.549,86.256c1.006,0.88,1.966,1.806,3.518,2.133
				c-1.386,1.654-2.682,6.497-0.469,8.294c-2.172-0.019-3.827-2.609-5.16-4.266C137.817,90.035,138.848,88.312,139.549,86.256z"/>
			<path fill-rule="evenodd" clip-rule="evenodd" d="M597.832,88.862c0.455,0.407,0.504,1.228,0.469,2.133
				c-0.479-0.069-0.461-0.641-0.939-0.711C597.248,89.538,598.082,89.748,597.832,88.862z"/>
			<path fill-rule="evenodd" clip-rule="evenodd" d="M254.471,90.759c0.378,3.409,2.154,5.406,4.69,6.635
				c-0.033,0.914-0.792,1.095-0.703,2.133c-7.41-1.361-18.195,0.689-17.355-9.005c1.47-0.144,2.48,0.179,3.752,0.237
				c1.562,2.844,3.018,5.797,6.566,6.635c0.412-0.217,0.815-0.44,0.704-1.186c-2.202-1.33-3.743-3.327-5.395-5.213
				C249.395,89.689,251.772,91.273,254.471,90.759z"/>
			<path fill-rule="evenodd" clip-rule="evenodd" d="M292.231,90.284c0.974,1.307,2.207,2.352,3.049,3.792
				c-3.142,1.723-5.693,4.042-10.085,4.502c0.065-1.014-0.716-1.172-0.469-2.37C288.578,95.598,290.349,92.885,292.231,90.284z"/>
			<path fill-rule="evenodd" clip-rule="evenodd" d="M238.992,90.521c-0.25,3.808,0.851,6.249,3.049,7.583
				c-3.054,0.161-7.505-0.316-7.974-3.555c0.312,0,0.625,0,0.938,0C234.908,91.767,236.824,91.017,238.992,90.521z"/>
			<path fill-rule="evenodd" clip-rule="evenodd" d="M585.166,97.63c-3.125,0.657-6.832,0.812-10.318,0.475
				C575.43,93.219,584.223,92.784,585.166,97.63z"/>
			<path fill-rule="evenodd" clip-rule="evenodd" d="M136.734,94.787c1.661,2.429,4.479,3.689,7.974,4.265
				c-2.366,0.22-5.901-0.173-8.678,0.237C136.093,97.614,136.387,96.173,136.734,94.787z"/>
			<path fill-rule="evenodd" clip-rule="evenodd" d="M277.925,100c-1.329,0-2.658,0-3.987,0c0.887-2.105,2.764-3.211,3.753-5.213
				c1.125,1.312,3.156,1.708,5.394,1.896c0.145,0.643-0.297,1.881,0.234,2.133C282.145,99.841,279.348,99.226,277.925,100z"/>
			<path fill-rule="evenodd" clip-rule="evenodd" d="M163.237,96.208c0.383,0.481,1.071,0.656,1.172,1.422
				c-0.717-0.171-0.854,0.243-1.407,0.237C162.814,97.045,163.352,96.956,163.237,96.208z"/>
			<path fill-rule="evenodd" clip-rule="evenodd" d="M800,97.867c-11.863-4.759-21.65-11.616-27.676-22.274
				c4.291-8.016,10.113-13.892,8.678-27.252c-0.449-4.194-1.52-8.891-3.283-12.322c-3.432-6.677-8.633-10.684-15.947-14.218
				c-5.945-2.873-11.938-4.56-19.936-5.213c-16.166-1.322-30.684,4.301-38.699,13.98c-3.902,6.809-4.883,18.251-4.689,27.726
				c2.498,0.895,2.641-2.6,4.689-3.555c2.32-1.08,5.131-0.786,8.209-0.237c0.893-9.998,4.176-17.582,9.852-22.748
				c6.758-2.981,16.342-4.391,24.859-1.186c3.844,1.446,9.082,4.872,10.789,7.347c1.803,2.61,2.955,7.072,3.283,10.426
				c1.027,10.487-3.83,19.742-9.146,25.355c-8.443,4.925-24.611,5.362-30.959-1.896c-4.062-0.166-5.605,4.309-9.146,4.739
				c-5.648,0.688-8.766-3.627-12.43-6.161c-1.99,2.45-7.729,4.901-6.803,8.768c0.744,3.104,6.693,2.317,9.852,3.555
				c0.299,3.729-3.396,5.934-3.283,9.005c0.105,2.895,3.154,3.438,4.455,5.924c-3.73-0.573-8.117-0.07-11.727,0.237
				c0.164-1.271-0.693-1.511-0.938-2.369c0.293-0.81,1.5-0.695,1.406-1.896c-1.467-1.408-3.342-6.721-5.863-7.108
				c-1.166-0.18-1.975,1.007-3.049,0.947c-2.104-0.115-2.527-2.538-4.689-2.844c-0.041-1.224,1.26-1.095,1.172-2.369
				c-2.051-2.453-12.639-10.02-13.135-1.896c-1.74-0.375-3.395-0.835-5.627-0.711c-0.119-1.304,0.258-3.105-0.236-4.028
				c-4.32-1.065-9.453,1.067-12.43,0c-0.73,1.445,0.584,2.672,0.234,4.502c-1.801,0.391-3.615,0.771-4.926,1.659
				c-1.145-0.739-1.111-2.668-2.111-3.555c-6.49-0.973-7.564,7.484-13.133,3.791c-0.023-1.082,0.189-2.403-0.469-2.844
				c-0.555-0.703-2.051-0.456-3.049-0.71c0.855-1.072,1.145-0.184,2.58-0.237c1.98-1.062,3.703-6.327,0.234-6.872
				c-0.494-0.73,0.357-1.739,0.234-2.844c-1.375-2.154-4.787-4.041-6.332-0.948c-1.725,0.084-1.824-1.476-3.283-1.658
				c-1.787,1.169-4.365,2.736-3.988,4.977c0.178,1.06,1.482,1.021,1.877,2.132c0.533,1.507-0.066,1.747-0.703,3.081
				c0.404,1.327,1.541,1.916,2.344,2.844c2.182-0.422,2.469-0.611,4.926-0.237c-0.559,2.399-3.373,0.403-6.098,0.948
				c-1.076-0.413-0.92-2.073-2.111-2.37c-1.764-0.045-3.029,0.415-4.926,0.237c-1.1,0.181-0.756,1.599-0.938,2.133
				c-1.879,0.55-2.982,1.885-4.457,2.844c-0.982,0.612-0.725-0.643-1.875-0.475c-1.641,0.87-2.613,2.415-3.752,3.792
				c-1.08-1.437-2.158-2.876-3.754-3.792c2.689-3.057,7.936,0.397,10.555-3.08c-1.707-2.908,1.047-3.277,3.283-4.028
				c0.371-1.521,0.445-3.342,0.938-4.739c-0.543-1.315-1.506-0.693-1.641-2.133c-0.15-1.59,1.75-1.769,1.875-3.317
				c0.168-2.042-1.826-2.108-2.344-4.266c-1.104-0.282-1.18,0.93-1.643,0c0.445-1.265,2.781-0.518,3.752-0.237
				c1.189,4.315,8.369,2.835,10.789,0.711c0.73-0.969-0.273-1.826-0.469-2.606c1.92-0.588,1.797-3.239,4.689-2.844
				c1.602-1.901,2.543-4.211,1.877-7.109c-0.334-1.453-1.75-1.994-1.877-3.08c-0.107-0.938,0.857-1.401,0.939-2.37
				c0.283-3.394-3.338-5.309-5.395-7.108c-2.18,1.386-5.547,0.876-5.863-2.133c-3.783-1.141-7.359,0.354-9.381,2.369
				c0.734,2.176,0.398,2.241-0.705,3.792c-1.199,0.186-1.703-0.332-2.814-0.237c-2.023,1.33-5.062,9.605-0.234,9.953
				c0.156,0.633,0.1,1.48,0.469,1.896c0.193,1.144-1.355,0.525-1.406,1.422c0.01,1.018,0.307,1.744,0.703,2.369
				c-1.197-0.056-3.785-0.754-4.221-2.369c-1.965,0.462-4.518,0.332-6.1,1.185c-0.969-0.019-0.074,1.678-0.469,1.659
				c-2.771,0.84-3.893,3.771-6.801,3.791c-1.473,1.198-1.736,3.617-2.111,5.925c-0.301,0.974,1.273,0.626,1.643,1.421
				c0.744,1.601,0.219,4.495-0.469,5.214c0.703,1.501,1.277,3.133,2.346,4.266c0.68,0.307,1.664,0.307,2.346,0
				c0.508,1.438,2.777,1.346,2.109,3.317c0.391,0.553,1.273,0.608,1.877,0.947c-1.145,0.819-2.264,1.663-2.58,3.317
				c-0.496-1.454,0.709-3.228,0.469-5.213c-2.738-2.114-7.791-3.82-11.961-2.369c-0.352,1.854-0.48,3.938-0.469,6.161
				c-1.322-1.43-1.154-4.364-2.346-5.925c-4.969,0.43-8.094,2.724-10.086,6.161c0.824,1.484,3.006,2.774,2.58,4.739
				c-1.75-0.224-4.975-3.152-7.035-0.474c-2.885-6.146-10.984-13.746-21.109-11.138c-3.957,1.021-6.859,4.341-6.098,10.427
				c-3.928-5.717-16.912-4.828-20.873,0.237c-0.762-3.76-2.654-9.596-6.332-9.005c-2.643,0.424-2.451,5.001-3.988,7.108
				c-2.635-2.621-7.273-2.714-10.787-0.947c-1.758,0.883-3.393,3.577-4.926,4.028c-2.264,0.667-3.391-0.707-5.395-0.474
				c4.701-4.098,8.518-9.089,9.146-17.299c9.643,3.603,20.98-1.326,23.924-9.005c3.031-2.782,5.102-6.534,8.912-8.53
				c2.871-0.653,5.209-1.845,6.332-4.266c2.623,2.552,8.857,0.827,8.912-2.37c0.064-3.819-8.043-4.292-8.912-0.236
				c-1.975-0.818-4.309,0.211-7.271-0.237c-0.404-0.784,1.514-1.742,2.58-2.37c1.094-0.644,2.416-1.287,3.752-1.896
				c2.807-1.276,6.016-1.603,8.914-2.606c2.242-0.777,3.824-2.311,5.863-2.606c3.602-0.523,11.012,0.558,11.492-2.37
				c0.426-2.589-7.309-5.272-9.852-5.45c-2.885-0.201-5.176,1.34-6.566,1.422c-2.459,0.145-5.059-1.207-7.74-1.185
				c-8.383,0.07-14.629,3.729-15.01,12.322c-5.145-0.832-10.326,0.292-12.43,3.317c1-2.545,3.578-5.547,3.518-9.953
				c-1.17-1.68-5.535-1.433-7.506-1.185c-8.564,1.08-13.902,8.484-15.947,16.114c-0.148-5.38-3.092-7.935-7.271-9.242
				c0.547-3.648,3.229-6.222,1.877-9.952c-1.521-4.198-9.879-5.18-13.838-3.555c-5.76,2.364-13.479,9.786-10.555,18.01
				c0.752,2.109,3.182,4.315,3.283,6.635c0.117,2.651-2.561,4.062-3.518,6.635c-1.855,4.99,0.314,11.962,3.049,14.929
				c2.711,2.941,5.395,3.555,8.443,6.162c-6.877,1.527-13.346,1.578-17.121,6.397c-1.832,2.341-3.098,10.077-6.566,10.427
				c-0.84,0.085-3.969-1.194-4.691-2.37c-1.141-1.857-0.721-3.824-1.875-5.45c-0.844-1.188-3.416-3.646-4.926-4.502
				c-4.184-2.374-9.363-1.148-12.9-5.213c3.982-1.191,7.449-2.901,9.852-5.688c2.711-4.513,1.102-12.026-1.172-15.64
				c-0.242-6.733,6.168-6.441,6.098-13.033c-0.031-2.769-1.885-7.271-3.52-9.242c-2.072-2.5-6.324-5.587-8.207-6.397
				c-2.727-1.174-7.107-2.309-10.086-1.896c-5.977,0.827-10.506,8.359-6.332,13.508c-2.676,1.642-5.816,2.812-5.863,7.108
				c-3.779-7.082-8.528-13.185-19.467-13.033c-1.048,0.758-2.82,0.784-3.518,1.896c0.046,2.876,0.625,5.215,1.642,7.109
				c-2.752-0.038-6.332-2.376-10.085-1.422c-0.492-1.329-0.801-2.587-1.407-3.791c-1.179-2.344-3.474-5.067-6.098-6.398
				c-2.337-1.186-6.646-2.157-9.616-2.133c-2.833,0.023-4.762,1.945-7.271,1.896c-1.831-0.036-3.587-2.044-6.332-2.369
				c-3.658-0.435-9.852,1.142-10.319,4.028c-0.487,3.004,3.415,4.201,5.863,4.977c3.258,1.031,6.024,1.142,8.913,1.658
				c8.489,1.519,16.387,5.005,22.046,9.005c-1.14,0.199-3.77-0.137-5.629,0c-0.545-1.582-1.258-2.995-2.58-3.791
				c-2.331-0.21-4.738-0.56-5.863,0.947c-0.993,4.325,2.527,3.839,5.16,4.739c2.706,0.926,7.05,5.541,10.554,5.688
				c3.373,10.661,12.582,16.66,26.737,15.64c1.039,4.753,2.074,8.673,4.691,11.611c1.633,1.834,4.393,2.358,5.16,4.977
				c-2.959,0.132-5.016,0.664-7.271,0c-2.86-0.842-5.186-4.228-8.912-4.502c-2.137-0.158-5.022,1.031-6.333,1.896
				c-1.272-2.055-1.201-6.732-3.518-7.109c-2.887-0.47-5.128,5.359-4.925,9.479c-3.732-0.998-7.8-4.359-12.431-3.791
				c-3.761,0.461-6.345,2.725-8.912,4.739c1.561-8.782-6.651-12.289-15.01-11.849c-3.689,0.195-5.798,2.335-7.974,4.739
				c-2.091,2.312-4.316,5.052-4.691,8.769c-3.753-11.387-7.125-23.277-13.368-32.228c-2.299-3.296-5.264-6.821-8.444-9.716
				c-7.607-6.925-15.244-13.071-25.798-17.536c-3.428-1.45-7.228-2.465-11.258-3.791c-3.234-1.064-6.136-1.52-10.32-2.37
				c-1.118-0.227-2.124-1.024-3.283-1.185c-8.588-1.183-18.164-3.818-27.91-4.266c-15.07-0.691-30.615,1.308-42.686,4.977
				c-1.678,0.511-3.243,1.486-4.925,2.133c-1.796,0.689-3.817,1.019-5.394,1.659c-6.741,2.733-12.433,7.243-18.294,10.663
				c-4.917,5.562-10.197,10.57-14.541,17.062c-2.631,3.932-4.486,7.576-7.037,12.085c-2.126,3.761-4.144,6.557-5.863,11.375
				c-1.725,4.831-3.758,10.517-3.987,17.298c-5.941,0.466-10.644-0.367-16.183,0.475c0.947-2.274,3.188-3.51,3.283-5.924
				c0.116-2.931-3.536-4.279-3.752-7.347c3.812-1.045,8.423-1.284,10.32-4.266c0.283-3.327-1.978-5.431-3.752-7.583
				c-1.519-1.842-4.337-4.408-4.457-6.635c-0.071-1.344,1.114-2.744,1.407-4.028c0.944-4.134,0.558-10.422,0.469-15.402
				c-0.154-8.682-3.001-16.894-8.678-20.854c-1.138-0.794-2.77-1.354-4.222-2.133c-7.231-3.875-17.823-6.847-29.082-6.872
				c-8.957-0.02-17.059,2.072-24.392,4.503c-6.134,3.306-11.731,6.415-14.776,14.218c-5.282,13.536-1.988,37.283,3.987,47.156
				c-1.385,3.095-3.583,4.913-6.333,7.346c-3.188,2.821-5.189,5.255-9.851,6.872C6.252,96.739,3.013,96.832,0,97.63
				C0,65.087,0,32.543,0,0c266.695,0,533.295,0,800,0C800,32.623,800,65.244,800,97.867z M641.689,33.176
				c0.184,1.787,1.066,2.871,1.643,4.265c-1.23,2.378-3.303,1.098-6.1,0.711c-0.887,2.165-0.893,5.858-0.234,8.294
				c1.158,1.121,4.346,0.191,5.629,1.185c-5.135,4.22,1.299,8.92,7.037,8.531c0.891-1.152,0.982-3.113,1.641-4.502
				c0.217,0.412-0.008,1.271,0.705,1.185c0.268-0.466-0.199-1.185,0.703-1.422c0.557,1.175,1.686,1.772,2.58,2.606
				c3.756,0.64,7.752-5.047,7.504-6.872c-0.254-1.873-2.742-1.616-3.986-3.08c0.123-1.343,0.041-1.419,0-2.844
				c1.676-0.124,3.137-0.464,4.221-1.185c-0.229-5.455-3.686-7.649-7.975-9.005c-0.75,1.295-1.527,2.562-2.344,3.791
				c-0.498-0.444-1.727-0.151-2.111-0.711c-0.195-1.539-0.521-2.949-0.938-4.266C646.117,30.067,643.365,31.078,641.689,33.176z
				 M722.604,33.649c-0.516,2.567,2.875,4.814,3.049,7.583c-0.629,0.312-0.842,1.044-1.406,1.422
				c-1.881-1.066-2.967-4.63-5.16-4.503c-1.75,0.102-4.471,5.128-4.457,7.82c1.652,1.57,4.33,2.104,6.334,3.317
				c-0.174,1.089-0.084,2.443-0.469,3.317c-2.1-0.196-4.869-0.892-7.037-0.236c0.35,2.174,0.041,5.013,0.938,6.635
				c2.449-0.146,5.363,0.825,7.271-0.237c-0.01,0.878,0.359,1.374,0.703,1.896c-1.637,2.06-4.93,2.444-6.566,4.503
				c1.469,2.082,2.922,6.159,5.395,5.924c2.422-0.23,3.496-4.324,6.332-4.739c0.369,0.496,1.307,0.417,1.643,0.948
				c-0.576,2.183-1.854,3.657-1.877,6.397c1.109,2.156,5.418,2.214,8.443,1.659c0.326-2.157,0.291-5.546,0.469-7.109
				c0.551-0.075,0.881-0.374,1.641-0.236c0.787,1.971,1.09,4.429,1.643,6.635c2.893,1.056,7.068-0.288,7.506-2.606
				c0.436-2.319-2.33-4.186-2.111-6.872c0.822-0.274,1.004-1.198,2.111-1.185c1.746,1.711,3.084,3.834,5.16,5.213
				c2.861-1.215,4.363-3.805,4.689-7.583c-1.824-1.869-4.42-2.958-6.801-4.266c0.506-0.2,0.197-1.222,0.703-1.422
				c2.9-0.149,6.129,0.032,7.975-1.185c-0.762-2.496,0.527-6.966-1.877-8.294c-3.221-0.253-4.752,1.203-6.801,2.133
				c-0.17-1.328-0.992-2.001-1.408-3.08c2.074-0.827,3.203-2.609,5.395-3.318c-0.383-3.877-2.244-6.264-5.629-7.108
				c-1.938,1.439-2.463,4.304-4.221,5.924c-0.723,0.177-0.451-0.65-1.172-0.474c0.598-2.396,1.447-4.539,1.875-7.109
				c-1.621-1.984-5.299-3.645-8.678-2.369c-0.23,2.137-0.238,4.498-0.469,6.635c-0.674-0.449-2.34-0.262-3.049,0
				c-0.639-2.515-0.939-5.37-2.111-7.346C727.064,29.969,723.01,31.636,722.604,33.649z M583.758,36.256
				c-1.146,0.105-2.018,0.488-3.283,0.474c-0.303-1.341-3.383-1.635-4.455-0.711c-0.053,0.185-0.008,0.468-0.234,0.475
				c-0.246,1.354,0.816,1.387,0.938,2.369c-1.562,1.186-2.689,2.812-5.629,2.606c-0.52,1.068-0.072,2.387,0.234,3.318
				c0.654,0.208,1.428,0.295,1.877,0.711c-0.312,2.132,0.531,3.096,0.938,4.502c-0.865-0.085-0.98,0.59-1.172,1.185
				c-0.01,1.037,0.586,1.462,0.938,2.133c1.355,0.186,2.051-0.298,2.814-0.711c0.105,0.684,1.01,0.561,1.172,1.185
				c0,0.869,0,1.738,0,2.607c0.637,0.305,1.303,0.579,2.348,0.474c0.727-0.607,0.855-1.818,1.641-2.37c0.859,0,1.721,0,2.58,0
				c0,0.475,0,0.948,0,1.422c0.965,0.753,3.02,0.578,3.752-0.236c0.184-0.977-0.359-1.217-0.234-2.133
				c1.152-1.126,2.51-2.045,3.754-3.081c1.982,0.599,3.805,0.001,3.518-2.369c-2.109-0.825-1.99-2.663-2.111-5.214
				c1.213-0.513,2.334-1.117,2.111-3.08c-1.004-0.501-2.592-1.521-3.754-0.474c-0.627-1.342-2.037-1.891-3.283-2.607
				C588.688,33.733,583.768,33.583,583.758,36.256z M671.711,37.204c-0.881,1.328-1.746,5.014-1.643,6.635
				c0.123,1.936,2.096,4.8,3.752,5.688c3.666,1.965,9.932,1.15,11.727-2.607c3.02-6.318-3.023-14.303-10.32-11.848
				C673.99,35.59,672.521,35.977,671.711,37.204z M692.818,42.18c-0.773-0.777-3.43-1.266-3.518,0.475
				c0.012,1.022,1.322,0.873,0.703,1.896c-0.328,0.381-1.158,0.252-1.408,0.711c0,0.711,0,1.422,0,2.133
				c0.549,0.472,1.492,0.546,2.58,0.474c0.186,0.604,0.426,1.149,0.939,1.422c1.574-0.225,2.781-0.821,3.986-1.422
				c0.195-1.54-1.258-1.415-0.938-3.08c0.479-0.463,1.15-0.731,1.406-1.422C696.307,41.487,693.982,40.532,692.818,42.18z
				 M338.435,45.023c1.21,1.068,2.547,2.008,4.925,1.896C346.111,44.614,338.615,40.833,338.435,45.023z M538.025,46.683
				c0.666,2.451,5.41,1.678,4.924-1.659C541.506,41.792,537.162,43.514,538.025,46.683z M324.128,53.791
				c-2.198,1.381-5.171,4.88-4.926,7.109c0.233,2.108,2.32,3.306,3.753,4.739c-0.665,1.098,0.051,2.556,0.235,3.555
				c6.408,4.186,20.643,0.174,18.293-8.768c-0.527-2.009-2.663-3.026-5.16-3.555c0.214-1.442,1.028-2.278,0.938-4.028
				C334.096,50.818,327.882,51.434,324.128,53.791z M548.578,52.606c-4.854-1.789-9.275-0.229-7.035,4.977
				c-4.033,0.323-7.26,1.514-6.568,5.45c1.195,6.807,20.848,13.159,18.998,1.896C561.635,60.077,553.916,54.575,548.578,52.606z
				 M707.125,59.005c-0.721,0.062-1.055,0.514-1.643,0.711c-0.811-1.233-0.947-3.15-3.049-3.081
				c-2.291,1.686-0.273,4.064,0.469,5.925c-0.293,0.097-0.479,0.305-0.469,0.711c-0.73-0.698-2.064-0.906-3.283-0.475
				c-0.305,0.85-0.488,2.807,0.234,3.318c1.111,0.175,1.613-0.268,2.58-0.237c-0.115,0.748,0.422,0.837,0.234,1.658
				c-4.684,1.159-0.85,6.821,2.111,2.844c1.549,0.884,3.367,1.495,2.814,4.503c1.846,1.873,4.189-0.021,3.283-3.081
				c1.105-0.067,1.387-0.969,2.346-1.185c0.791,1.061,2.459,2.798,4.221,1.422c0.438-3.049-1.686-3.51-2.58-5.214
				c0.312-0.711,0.238-1.812,0.234-2.843c1.137-0.274,1.836-0.989,2.582-1.659c-0.051-1.136,0.232-2.605-0.471-3.081
				c-2.119-0.324-2.377,1.23-3.752,1.659c-0.436-0.745-1.393-0.963-2.111-1.422c-0.195-1.699,0.953-2.038,0.703-3.791
				C709.129,53.982,706.531,55.61,707.125,59.005z M440.928,70.854c0.123,3.554-2.234,9.01,1.406,9.479
				c3.023,0.389,7.197-6.529,6.566-11.138C446.818,65.501,442.379,68.53,440.928,70.854z M429.199,74.645
				c0.297,2.808,2.568,7.99,5.629,7.583c4.998-0.665,2.213-14.465-3.986-12.085C429.268,70.746,428.957,72.339,429.199,74.645z"/>
			<path fill-rule="evenodd" clip-rule="evenodd" d="M228.672,57.109c-2.53,1.793-4.462,9.368-1.642,13.27
				c-0.896,1.937-1.907,3.688-3.752,3.792c-2.43,0.135-4.533-3.2-7.271-2.844c-0.455,1.919,3.92,4.422,5.395,4.739
				c3.209,0.691,5.708-0.853,6.566-3.317c0.862,0.635,2.458,1.775,2.581,2.369c-1.044,2.105-4.218,2.059-4.926,4.503
				c2.706,1.26,4.531-2.336,6.802-3.081c0.721,1.393,1.577,4.728,0,5.688c-3.754-1.718-10.388-0.349-14.306-1.659
				c-0.756-0.252-4.379-2.765-5.16-3.554c-2.628-2.656-2.128-7.452,0.938-9.716c1.938,0.568,4.507,0.501,7.036,0.474
				c0.753,0.345,0.465,1.742,1.876,1.422c0.753,0.208,0.486-0.614,0.938-0.711c0.291-4.401-7.009-1.133-8.443-3.791
				c-8.348,2.566-7.966-11.94-1.407-13.508c1.318,1.986,1.203,5.42,3.987,5.925c0.587-3.348-2.904-6.584-2.814-11.611
				c0.068-3.859,1.721-6.768,3.284-9.716c4.001,0.724,6.771,4.279,7.27,8.53c0.235,2.001-1.697,5.988,1.407,6.398
				c0.861-3.239-0.245-6.416,1.173-8.768c1.032-1.711,5.138-3.028,7.036-2.37c1.436,0.498,3.292,3.23,3.283,5.925
				c-0.004,1.194-0.782,2.313-0.938,3.554c-0.635,5.075,1.828,9.092,5.629,10.427c-0.321,0.624-0.987,0.898-1.173,1.659
				c-4.327-3.19-14.105-0.701-11.492,7.346c0.391,0,0.782,0,1.172,0c1.073-1.702,0.091-3.624,1.173-5.213
				c1.539-2.262,6.24-2.375,7.974-0.237c-0.77,4.81,1.461,8.417,4.456,10.189c-1.581,1.991-4.455,5.123-2.11,8.294
				c-2.858,0.467-5.282,2.513-7.74,2.606c-0.5-2.696,1.876-5.114,2.111-8.768c0.223-3.475-0.494-7.62-0.704-10.663
				c-3.008,0.729-0.997,5.564-1.407,8.53c-1.072,0.102-1.989,0.36-3.283,0.237c-4.623-2.932-5.777-10.32-2.58-14.455
				c1.314-1.7,5.075-2.517,5.863-4.503c1.579-3.978-3.5-6.092-1.876-10.9c-4.035,1.402-0.595,7.203,0,9.716
				c-5.057,5.265-11.465,1.364-12.196-4.739c-0.129-1.075,0.875-2.474-0.234-3.555c-2.049,0.104-1.762,2.827-1.642,4.028
				c0.296,2.973,3.027,5.959,3.987,7.82c-1.312,2.453-3.834,4.268-6.567,3.555c-2.467-0.645-2.648-3.586-4.925-4.266
				c-1.955,7.281,12.302,8.645,12.899,1.185C226.011,57.802,227.678,57.468,228.672,57.109z"/>
			<path fill-rule="evenodd" clip-rule="evenodd" d="M57.696,37.204c2.259,0.854,5.73-0.299,8.443,0.474
				c1.891,0.539,2.329,2.795,3.753,3.317c-2.134,2.268-3.847,4.961-4.222,9.005c-2.033,0.079-3.105,1.128-5.159,1.185
				c-1.085,0.879-1.795,2.137-3.753,2.133C58.666,49.388,61.559,41.358,57.696,37.204z"/>
			<path fill-rule="evenodd" clip-rule="evenodd" d="M69.658,38.151c2.735,0.003,6.806,0.705,8.912,2.133
				c-0.343,2.022-1.901,2.818-2.58,4.503C73.233,43.229,72.221,39.906,69.658,38.151z"/>
			<path fill-rule="evenodd" clip-rule="evenodd" d="M165.348,50c1.847,0.704,5.257-1.131,6.802,1.185
				c-3.464,1.556-5.743,4.309-8.443,6.636c-1.821-0.847-3.387-1.949-4.457-3.555c-0.23-1.575,0.731-1.947,0.938-3.081
				c5.354-3.517,10.593-7.148,16.417-10.189c-0.752,3.634,0.389,8.525,3.283,9.953c0.043,0.201-0.091,0.223-0.234,0.236
				c-1.044-0.998-3.419-0.652-5.394-0.711C172.93,48.636,166.349,45.754,165.348,50z"/>
			<path fill-rule="evenodd" clip-rule="evenodd" d="M266.667,48.104c4.282,2.229,9.759,5.306,13.603,8.768
				c-1.153,0.73-2.218,1.55-2.814,2.844c-1.473-4.91-4.403-8.349-10.554-8.531C266.751,50.231,267.207,48.665,266.667,48.104z"/>
			<path fill-rule="evenodd" clip-rule="evenodd" d="M209.91,50.237c0.469,0,0.938,0,1.407,0c-0.312,0.791-1.372,0.825-1.642,1.658
				C209.156,51.657,210.253,51.08,209.91,50.237z"/>
			<path fill-rule="evenodd" clip-rule="evenodd" d="M207.095,54.977c0.286,0.381-0.542,1.653-0.234,2.844
				c-0.99-1.117-3.267-0.357-4.222-0.475C204.061,56.491,206.282,56.445,207.095,54.977z"/>
			<path fill-rule="evenodd" clip-rule="evenodd" d="M56.054,63.744c0.701,1.104-0.601,0.965-1.173,1.422
				c-2.214,4.082-6.614,5.955-7.739,11.138c-0.241,3.561,0.39,6.24,0.938,9.004C43.915,75.784,49.748,66.23,56.054,63.744z"/>
			<path fill-rule="evenodd" clip-rule="evenodd" d="M142.363,67.772c0.042,1.538,0.692,2.46,1.407,3.317
				c-1.386,0.653-3.739,0.33-4.69,1.422C139.367,71.983,140.754,68.537,142.363,67.772z"/>
		</g>
	</g>
</g>
</svg>