<svg version="1.1" xmlns="http://www.w3.org/2000/svg" xmlns:xlink="http://www.w3.org/1999/xlink" x="0px" y="0px" width="736px"
	 height="99.917px" viewBox="0 0 736 99.917" enable-background="new 0 0 736 99.917" xml:space="preserve">
<g id="Layer_2" display="none">
	
		<rect x="-675.833" y="-860.759" display="inline" fill-rule="evenodd" clip-rule="evenodd" fill="#EC008C" width="3648.365" height="1065.106"/>
</g>
<g id="Layer_1">
	<g id="oM2rLO_1_">
		<g>
			<path fill-rule="evenodd" clip-rule="evenodd" d="M328.19,67.969c4.604,0.934,8.78,2.296,13.163,3.452
				c0.096,3.716,0.355,7.269,0.646,10.788c-3.509,0.371-8.559,0.305-12.73,0.647C328.852,77.952,328.527,72.953,328.19,67.969z"/>
			<path fill-rule="evenodd" clip-rule="evenodd" d="M736,98.393c-1.589-0.454-2.887,0.138-4.747,0
				c0.099-7.967-0.681-18.629,0-26.756c0.062-0.75,0.549-1.863,0.431-2.589c-0.354-2.184-3.566-3.026-4.1-4.747
				c-3.001,0.594-6.787,0.404-10.357,0.431c0.365,8.785-0.124,20.401,0.216,28.914c-0.583,0.741-3.181-0.084-4.747,0.216
				c1.047-2.858,0.235-6.676,0.216-10.357c-0.02-3.694,0.409-7.454,0.216-11.004c-3.219-0.881-7.177-1.022-10.573-1.727
				c0.163-1.542-0.57-2.694,0.216-3.669c-4.352-2.337-8.465-4.912-11.868-8.199c-9.489-1.441-20.343-1.521-30.208-2.588
				c-0.518-4.104,0.8-7.36-1.294-9.494c-3.057-3.115-10.325-1.033-14.889-3.021c-2.138-2.177-3.738-4.893-5.178-7.768
				c-12.27-0.936-24.258-1.838-36.681-3.021c-2.519,1.51-4.88,3.176-7.121,4.963c-0.173,2.488,0.016,5.339-2.589,5.396
				c0.147,0.859,0.47,1.543,0.431,2.588c-0.999,0.08-2.005,0.153-2.805,0.433c0.266,7.653,0.826,18.012,0.863,25.893
				c-3.391-0.154-6.245,0.229-9.494,0.216c0-1.007,0-2.015,0-3.021c-2.711-0.132-4.753-2.333-7.336-2.589
				c-1.855-0.184-3.844,0.838-6.257,0.647c0.565,1.448,0.411,3.617,0.647,5.394c-4.338-0.614-8.715-0.061-13.162,0.216
				c-1.012,4.712,0.24,10.422,0.215,15.536c-0.671,0.345-2.565,0.345-3.236,0c0.247-11.348-0.26-23.549-0.432-35.171
				c-2.737-1.507-7.313-1.174-10.141-2.59c0.025-1.054-0.116-2.273,0.215-3.021c-3.598-1.539-8.138-1.101-12.083-2.157
				c-0.893-0.239-1.689-0.938-2.589-1.079c-3.53-0.558-7.418,0.489-11.004,0.647c-3.721,0.163-7.161-0.171-10.789,0
				c-0.486,1.13-0.146,3.116,0,4.315c-2,0.516-5.666,0.03-7.336,0.216c0.313,12.349,0.317,26.868,0.864,39.702
				c-0.658,0.23-1.956-0.863-3.021-1.51c-1.15-0.7-2.36-1.521-3.452-1.943c-0.219-3.737-0.376-7.534-1.511-10.356
				c-1.755,2.416-0.954,7.39-2.374,10.141c-1.726,0.42-4.676-0.693-6.689,0c0.355-1.683,0.355-4.789,0-6.473
				c-1.173-0.626-3.784,0.188-4.963-0.432c-0.936,0.307,0.367,0.909,0,1.942c-3.831,0.426-5.849,0.608-9.709,0.431
				c-0.265,1.061,0.176,3.273,0,4.964c-0.266-0.925-1.189-0.978-1.942-1.079c-4.907-0.661-12.471,0.891-17.478-0.432
				c0.681-11.33-0.032-23.125-0.864-33.661c3.317-4.354-2.653-4.841-5.394-6.041c-1.035-3.36-0.39-9.697-2.806-11.652
				c-1.901-1.539-9.734,0.242-12.946,0.217c0.143-2.598-0.029-6.262-0.647-9.062c-0.178-0.81-0.017-2.093-1.079-2.158
				c-1.289,2.954-1.246,7.241-1.294,11.437c-0.522,0.412-1.734,0.136-2.589,0.216c-0.442,3.514-0.876,7.035-1.079,10.788
				c-0.375,0.267-1.433-0.165-2.374,0c-0.525,6.516-0.1,13.894,0.215,20.282c-1.572,0.062-2.008-1.012-3.668-0.862
				c-0.046-2.039-0.348-3.824-0.216-6.042c-2.212-0.233-4.292-0.599-6.473-0.863c-0.124-1.674,0.261-3.856-0.215-5.179
				c-4.431-1.827-10.45-2.065-14.241-4.531c-2.231,0.358-4.252,0.926-6.689,1.079c-0.173,1.432,0.118,4.171,0,6.258
				c-2.191,0.005-4.404,0.516-5.826,0.646c-0.161,1.074,0.101,3.46,0.216,4.963c-1.864,0.655-3.98,0.671-6.257,0.433
				c-0.247,1.472,0.166,4.147,0,6.257c-2.355-0.647-4.269,0.583-6.689,0c-0.275,0.619,0.362,3.161-0.216,4.1
				c-1.423,0.375-3.434,0.162-5.178,0.216c-0.172-4.935-0.996-9.219-1.079-14.241c-3.291-2.246-7.904-3.173-12.73-3.884
				c-0.627,0.164,0.196,1.777-0.432,1.941c-2.474-0.028-4.965-0.074-6.905,0.432c-0.261,2.366,0.324,5.704,0.216,8.632
				c-4.126-1.268-8.539-2.251-12.946-3.237c-0.023-2.724-0.568-6.029-0.216-8.414c-0.739-0.916-2.185-1.125-3.236-1.728
				c0.753-5.858-6.46-3.753-9.926-5.394c0-1.079,0-2.158,0-3.237c-5.656,0.962-9.499,3.735-14.241,5.611
				c-0.492,12.863,1.087,26.431,1.294,38.623c-2.083-2.233-5.288-3.344-7.552-5.396c0.041-3.133-0.069-6.116-0.432-8.846
				c-2.567-0.117-7.23,0.343-10.572,0c0.097-2.184-0.286-3.887-0.647-5.61c-3.268-0.72-6.959,0.521-10.142-0.432
				c-0.104-1.119,0.233-2.678-0.216-3.452c-2.228-1.794-6.1-0.252-9.062-0.216c-0.642,0.571,1.009,3.759-1.079,3.884
				c-1.804,0.108-1.294-4.045-1.294-6.258c0-7.397-0.385-15.984-1.079-21.792c-3.832-3.074-8.799-5.012-12.515-8.199
				c-3.448,0.815-7.528,0.221-11.868,0.431c-1.102-0.026,0.217-1.225-0.432-1.51c-1.69,0.107-3.049-0.115-4.531-0.216
				c-0.333,1.681-1.977,2.051-3.668,2.373c-0.485,17.166-0.201,33.896,0.216,50.706c-1.407-0.107-3.578,0.156-4.315,0
				c-0.592-1.565,0.151-4.467-0.432-6.041c0.312-1.148,1.648-1.604,0.863-3.237c-1.062-0.858-3.2-0.611-4.747-0.431
				c-1.766-10.605-5.676-19.065-6.905-30.208c-0.905,0.113-1.206-0.377-1.942-0.432c-0.625,12.179-5.59,21.162-7.983,30.855
				c-11.007-1.271-24.205-0.731-35.603-0.432c0.596-12.707-1.162-25.759-0.432-38.407c-1.326-1.119-3.854-1.037-4.963-2.374
				c0.062-1.045-0.476-1.729,0-2.589c-5.961-2.166-7.924-8.33-9.278-15.104c-1.661,0.15-2.805-0.216-4.316-0.216
				c-0.895,4.355-1.929,8.572-3.452,12.3c-7.203,1.484-9.018-9.306-10.142-15.536c-1.143-0.512-3.151-0.157-4.1-0.863
				c-1.328,3.689-3.222,7.673-4.962,11.22c-1.065,2.171-1.602,4.409-4.316,4.747c-0.256,0.979,0.802,1.293,0.216,1.942
				c-0.719,0-1.439,0-2.158,0c-0.464,0.481,0.728,2.031,0.215,2.589c-1.453-0.405-3.45-0.178-4.531,0.433
				c-0.713,6.47,0.496,12.878,0.863,18.986c-5.727-0.104-12.978,0.104-18.772,0.648c-0.341-2.104-0.522-4.368-0.863-6.474
				c-5.264-0.139-11.819-0.478-17.262,0.216c-0.196,2.354,0.301,4.015,0.432,6.042c-10.728-0.557-23.119-0.292-33.876,0.216
				c-0.32-3.889-0.466-8.979-0.647-12.3c-2.203-0.746-5.108-0.79-6.689-2.157c-4.704-0.347-11.493,0.726-16.183,0.432
				c-0.537,4.369-0.607,10.06-0.216,14.672c-3.466-0.554-7.739,0.038-10.789,0c-1.057,3.125-0.679,7.023-0.646,10.573
				c0.066,7.307,0.659,15.016,1.294,21.793c-1.114,0.037-2.435-0.133-3.236,0.217C6.536,87.54,7.597,93.498,7.552,98.607
				C5.032,98.539,2.191,98.79,0,98.393C0,65.596,0,32.798,0,0c245.359,0,490.631,0,736,0C736,32.798,736,65.596,736,98.393z"/>
		</g>
	</g>
</g>
</svg>