<svg version="1.1" xmlns="http://www.w3.org/2000/svg" xmlns:xlink="http://www.w3.org/1999/xlink" x="0px" y="0px" width="766px"
	 height="100px" viewBox="0 0 766 100" enable-background="new 0 0 766 100" xml:space="preserve">
<g id="Layer_2">
</g>
<g id="Layer_1">
	<g id="gY5w6K_1_">
		<g id="pDqPcl_1_">
			<g>
				<path fill-rule="evenodd" clip-rule="evenodd" d="M395.912,31.686c7.381-1.261,7.722,20.806,0.226,20.674
					c-6.203-0.108-6.04-16.445-2.92-19.551C393.863,32.167,394.936,31.853,395.912,31.686z"/>
				<path fill-rule="evenodd" clip-rule="evenodd" d="M294.408,34.83c-0.927-0.027-1.406,0.392-2.471,0.227
					C291.539,33.642,294.658,33.44,294.408,34.83z"/>
				<path fill-rule="evenodd" clip-rule="evenodd" d="M72.312,43.371c0.374,0,0.748,0,1.122,0c-0.254,1.02,0.537,3.083-0.449,3.37
					C72.216,46.118,72.782,44.67,72.312,43.371z"/>
				<path fill-rule="evenodd" clip-rule="evenodd" d="M69.84,43.596c1.203,0.573,0.354,2.41,0.45,3.596
					C69.613,46.664,69.319,44.574,69.84,43.596z"/>
				<path fill-rule="evenodd" clip-rule="evenodd" d="M378.396,61.573c-4.845-1.619-4.73-11.261-1.123-14.157
					C381.811,49.272,381.5,58.43,378.396,61.573z"/>
				<path fill-rule="evenodd" clip-rule="evenodd" d="M404.671,100c-1.048,0-2.097,0-3.145,0c-0.385-0.513-1.714-0.081-2.47-0.224
					c-0.382-5.941,0.176-11.447,0.449-17.304c20.195-0.434,34.146,5.38,43.117,16.179c-5.743,0.935-13.904-0.891-19.538,0.9
					c-3.202-1.815-2.248-7.788-4.267-10.788c-1.641,0.849-1.162,3.308-1.572,4.945c-0.479,1.917-1.594,3.652-1.796,5.393
					C412.246,99.791,408.178,99.614,404.671,100z"/>
				<path fill-rule="evenodd" clip-rule="evenodd" d="M394.116,82.921c0.052,5.129,0.856,11.61,0,16.181
					c-4.034,0.67-9.35,0.057-13.25,0c0.622-4.014-0.465-8.659,0.225-12.81C384.861,84.597,388.932,83.202,394.116,82.921z"/>
				<path fill-rule="evenodd" clip-rule="evenodd" d="M376.6,88.539c0.523,3.072,0.075,7.116,0.225,10.562
					c-4.554,0.388-9.941-0.061-14.147,0.675c-0.813-0.512,1.506-1.587,1.797-2.473c4.482-2.181,7.424-5.904,11.678-8.315
					C376.206,88.745,376.597,88.836,376.6,88.539z"/>
				<path fill-rule="evenodd" clip-rule="evenodd" d="M766,99.552c-1.748,0.05-3.749-0.156-5.165,0.225
					c-1.397-3.321-2.926-6.512-3.594-10.562c-0.67-0.737,1.245-0.249,1.124-1.123c-1.202-2.75-3.008-4.873-4.043-8.539
					c-0.291-1.031,0.006-3.074-1.796-3.147c-0.717,3.671-0.747,8.264-1.797,11.687c-1.536-2.134-1.635-5.705-3.145-7.866
					c0.005-0.397,1.06,0.358,1.348-0.225c-1.13-5.386-4.547-8.483-6.512-13.034c0.343-1.684,0.322-3.377-1.572-3.369
					c-0.62,5.896-2.009,11.022-3.594,15.955c-0.375,0.845,1.045,1.022,0.449,1.348c-1.022,4.369-2.682,8.103-3.818,12.359
					c0.356,0.558,1.571,0.092,2.022,0c-0.862,2.059-1.466,4.376-2.695,6.068c-0.834,0.767-0.094-1.401-0.898-1.349
					c-6.152-0.338-11.965,0.189-18.415,0.225c-1.074,0.049,1.818-1.166,1.797-2.248c0.104-0.702-0.195-1.003-0.897-0.897
					c0.742-1.205,2.224-1.671,2.245-3.597c-3.61-1.262-6.624,1.888-9.432,2.921c-0.459-0.599,1.235-2.137,0-2.921
					c-2.292,0.254-2.735,2.357-3.817,3.821c-0.66-0.389,0.211-2.311-0.449-2.697c-2.57,0.125-0.472,4.921-1.797,6.291
					c-1.666-2.827-2.833-6.153-4.267-9.212c0.553-0.248,1.921,0.648,2.695-0.225c0.567-3.27-1.768-5.366-3.369-7.191
					c-1.675-9.037-5.428-15.993-6.962-25.169c0.251-0.573,1.737,0.09,2.021-0.45c-1.845-4.925-4.029-9.713-5.613-14.831
					c-0.556-1.791-0.569-3.705-1.572-5.395c-1.671,0.771-1.599,3.027-2.021,4.495c-1.356,4.715-3.789,9.21-7.187,12.136
					c0.758,4.111-3.771,6.465-4.491,10.562c-0.103,0.701,0.48,0.718,1.123,0.673c-0.871,2.425-1.937,4.654-3.145,6.742
					c-0.448,0-0.897,0-1.348,0c-1.964-4.177-1.707-10.576-3.367-15.057c0.772-0.574,0.743-1.952,0.673-3.371
					c-2.26-1.709-5.575-2.361-8.309-3.596c-0.138-3.008-0.233-6.059-0.675-8.764c-0.183-1.009,1.695,0.049,1.572-0.898
					c-1.123-2.997-3.146-5.091-4.042-8.314c-1.833,0.539-2.076,2.851-2.919,4.27c-0.906,1.526-2.109,2.584-2.92,4.045
					c0.124,0.999,1.053,1.194,2.246,1.123c-0.325,1.697-0.409,3.636-0.449,5.618c-8.613-1.193-15.365-4.249-23.13-6.292
					c-0.163-2.908,0.626-6.771-1.797-7.416c-1.401,2.508-0.715,6.089-1.123,8.765c-1.558,10.213-5.614,19.159-7.86,28.539
					c-5.534,1.734-2.792,7.408,1.348,8.764c0.919,6.854-0.458,13.082-0.898,19.776c-1.88-2.612-2.828-6.158-4.491-8.989
					c1.14-1.056,1.236-3.923-0.225-4.72c-2.409,0.514-4.758-0.105-7.186-0.225c-0.66-0.687,0.076-2.773-1.348-2.696
					c-1.3-0.177-0.791,1.455-0.898,2.472c-2.668-0.324-5.301-0.688-7.86-1.124c-0.244-1.254-0.171-2.824-1.347-3.146
					c-1.257,0.141-0.763,1.444-0.674,2.473c-0.925-0.424-2.376-0.32-3.368-0.675c-0.459-5.083-0.246-10.839-1.348-15.281
					c2.111-0.934,2.164-5.259-0.674-5.394c-1.816-3.8-2.849-8.385-4.716-12.135c-0.779-2.075,0.468-7.95-2.021-8.539
					c-0.686,5.498-0.284,10.144-1.797,14.833c-0.638,1.978-1.166,4.308-2.021,5.616c-0.974,1.493-2.79,2.23-2.694,4.27
					c0.013,1.187,1.606,0.789,2.245,1.349c0.346,4.551-0.12,8.617,0,13.483c-1.97,0.883-4.772,0.211-7.186,0.225
					c-0.476-1.022,0.123-3.119-1.123-3.37c-1.567-0.221-1.033,1.661-1.123,2.922c-2.793,0.173-4.909-0.332-6.962-0.9
					c-0.22-1.651,0.29-4.034-1.123-4.494c-1.472,0.175-0.704,2.591-0.897,4.046c-2.104-0.067-3.697-0.646-5.839-0.675
					c-0.005-1.867,0.103-3.847-1.348-4.27c-1.665,0.405-0.434,2.407-0.898,3.82c-4.368-0.199-7.271-1.861-11.678-2.021
					c-0.341-0.633-0.213-1.735-0.448-2.474c3.769,0.754,5.572-3.799,2.021-4.719c-0.936-2.584-2.24-4.8-4.042-6.517
					c1.21-4.076-1.562-13.738-4.491-6.742c-3.944-3.394-5.329-9.349-7.187-14.831c-1.13-0.15-1.176,1.52-1.348,2.022
					c-1.853,5.434-4.474,10.391-8.309,14.157c-8.643-9.329-16.822-19.12-25.151-28.764c-0.791-3.854,0.101-9.391-1.348-12.586
					c-1.266,0.891-1.544,2.577-1.797,3.597c-0.696,2.811-0.804,5.659-1.796,8.314c-1.203,3.219-3.193,7.176-4.94,10.787
					c-1.801,3.721-4.196,7.067-5.39,10.112c-0.185,0.47-0.024,1.156-0.225,1.572c-1.424,2.957-6.009,6.869-3.594,9.888
					c-1.095,0.556-3.316,1.171-4.49,0.899c-0.711-1.808,1.412-1.397,1.796-2.696c-0.229-1.748-1.88-2.192-2.92-3.371
					c-3.729-4.233-4.145-11.748-7.635-16.629c-0.333-1.689-0.023-4.021-1.347-4.72c-1.245,0.263-0.714,1.814-0.899,2.697
					c-0.523,2.5-1.076,5.47-2.245,7.19c-0.488,3.681-2.28,6.364-3.818,8.989c-1.572,2.683-3.561,5.031-4.715,8.091
					c0.353,1.224,2.58,0.979,3.817,0.673c0.053,1.102-0.396,1.701-0.225,2.921c0.226,0.898,1.534,0.713,2.021,1.349
					c0,2.174,0,4.345,0,6.518c-16.246-1.139-32.593,0.315-49.854,0.898c-0.049-5.119,0.202-10.54-0.448-15.057
					c5.81-4.187,9.642-17.106,4.49-24.943c-3.188-4.306-10.85-3.83-13.474,0.448c-2.386,3.889-2.518,15.726,0,19.776
					c1.133,1.823,3.273,2.623,4.94,3.596c0.285,5.333,0.489,10.746,0.674,16.18c-5.591-0.212-10.182-0.159-15.495,0.225
					c-0.628-2.068-0.541-4.853-0.674-7.416c5.12-2.388,7.714-12.499,3.594-17.978c-0.799-1.061-2.11-1.438-3.145-2.247
					c-10.329-0.953-8.774,15.994-3.818,19.775c-0.123,2.671,0.145,4.95,0.225,7.416c-8.513,0.873-18.403-0.455-26.723,0.225
					c-0.025-3.645-0.678-6.662-0.449-10.562c2.872-0.497,6.082-0.655,8.084-2.022c1.299-3.715-3.66-2.958-5.839-3.82
					c-1.847-0.731-4.02-2.684-6.062-4.045c-6.56-4.371-13.957-9.672-20.211-14.157c-0.467-2.979-0.601-6.292-2.021-8.315
					c-2.974,0.47-1.585,5.307-2.021,8.315c-1.42,0.957-2.669,1.795-4.268,2.921c-1.043,0.735-2.797,2.921-4.042,3.146
					c-0.844,0.152-1.837-0.526-2.694-0.675c-2.907-0.503-6.414-0.19-9.881-0.674c-0.206-2.146-0.497-4.79-0.225-6.741
					c-0.493-1.004-2.105,0.117-2.694-0.45c0.181-2.066,4.33-0.16,4.491-2.247c-0.607-2.015-4.319-0.922-6.063-1.799
					c-0.661-0.536-1.048-1.348-2.021-1.572c-1.357,1.938-3.519,3.07-6.512,3.371c0,0.449,0,0.899,0,1.349
					c0.415,1.082,3.06-0.066,3.817,0.674c0.443,1.343-1.156,0.641-1.348,1.349c-0.043,1.989,0.568,3.327,0.449,5.394
					c-8.226-0.488-17.69-2.647-26.499-2.248c-6.589,0.299-15.132,0.471-18.639,4.495c-1.73,1.984-3.449,6.7-4.492,9.888
					c-0.989,3.024-1.494,6.264-2.245,9.213c-1.792,0.005-3.214,0.38-5.165,0.225c-0.722,1.775-2.705,2.714-2.246,4.72
					c0.387,1.687,2.537,1.576,3.593,2.921c-0.271,2.274-0.4,4.692-0.673,6.967c-26.372,3.873-55.606,6.079-80.619,10.562
					c0.297-1.783,2.456-1.868,3.592-2.695c1.013-0.739,1.374-1.804,2.245-2.697c0.862-0.884,2.765-1.253,2.472-2.921
					c-1.649-0.706-2.501,1.312-3.594,2.021c-1.573,1.021-3.509,1.356-4.94,2.472c-0.06-4.33,3.641-6.843,4.716-10.786
					c5.746-2.115,10.1-5.624,15.271-8.315c1.805,1.416,3.755,2.686,6.288,3.371c1.491,5.084,9.472,11.521,15.495,7.191
					c-0.235-1.994-2.598-0.867-3.818-0.899c-3.721-0.098-7.481-1.595-7.859-5.167c3.999,0.48,8.438,0.261,11.229-1.125
					c1.818,1.443,5.948,1.58,7.187-0.449c-1.207-0.64-3.094,0.787-4.492,0c1.229-0.718,3.805-0.089,3.594-2.247
					c-3.518-0.747-6.74,0.745-9.657,1.348c-0.233-0.737,2.707-2.796,4.268-3.369c1.379-0.508,4.009,0.055,3.817-2.023
					c-5.207-0.566-8.871,2.358-10.779,5.843c-3.742-1.05-8.797-1.983-10.554-4.27c4.209,0.138,8.045-1.763,10.778-3.819
					c3.701-0.038,6.941,1.289,10.105,0.897c4.441-0.55,6.803-3.848,9.433-6.067c2.06-0.261,5.389,0.748,5.839-1.123
					c-0.372-1.811-2.764-0.222-4.491-0.675c0.475-1.396,1.533-2.211,1.571-4.045c-2.73,0.34-2.604,3.537-5.165,4.045
					c-0.127,1.82-1.73,2.164-2.47,3.371c0.362-2.934,2.889-5.647,3.368-9.214c-2.014,0.527-2.514,3.007-3.368,5.169
					c-0.694,1.752-1.889,3.137-2.247,5.618c-2.696,1.328-5.876,0.144-8.533-0.45c-1.042-0.604,1.887-0.897,1.348-2.472
					c-1.525-0.697-2.576,1.014-3.593,1.573c0.697-2.749,4.632-4.203,5.39-7.641c-3.988,2.077-7.157,4.973-8.533,9.663
					c-0.81,0.089-1.507,0.291-2.246,0.449c-0.412-6.199,4.278-8.381,6.737-12.359c-2.773,0.296-3.818,2.321-5.165,4.045
					c-0.372-1.499,1.532-2.658,1.123-4.943c-3.402,0.368-2.039,3.988-2.471,6.292c-0.198,1.056-1.556,2.005-2.021,3.146
					c-0.723,1.771-0.133,3.628-1.571,4.495c-1.069-2.376,0.186-7.078-2.021-8.315c3.402-5.359,9.473-8.049,15.495-10.786
					c2.901,0.302,6.441-0.151,6.737-3.146c-1.215-0.163-2.661,1.38-4.042,1.798c-0.344-1.193,3.063-2.458,2.694-5.169
					c-2.035,0.661-2.802,2.59-4.267,3.821c-2.626,0.592-4.362,2.076-6.737,2.921c0.061-1.814,1.497-4.193,2.695-5.618
					c2.263-0.357,6.253,1.015,6.287-1.572c-1.408-0.581-2.945,0.644-4.939,0.225c-0.854-1.339,2.716-2.051,2.694-4.046
					c-3.198,0.097-4.733,3.803-6.961,5.617c-0.545,2.454-2.129,3.865-2.472,6.519c-1.893,1.025-3.461,2.378-5.164,3.594
					c-0.044-2.591,2.408-4.628,3.593-6.74c-1.606-1.936-3.13,1.115-4.268,1.798c-1.505,3.362-3.52,6.215-4.267,10.337
					c-3.262,2.803-4.534,7.599-8.309,9.888c-0.814-1.132-1.351-2.544-1.572-4.27c3.167-2.462,7.985-4.428,7.636-9.663
					c-2.641,1.856-4.969,7.156-8.309,8.314c-1.044-2.104,0.68-3.293,1.348-4.943c-2.828-0.833-4.202,4.828-4.042,8.09
					c0.074,1.541,0.733,2.899,0.897,4.045c-3.925,1.39-7.646,2.985-10.779,5.168c-0.835-3.314,3.656-4.239,4.267-6.966
					c0.24-1.071-0.358-2.196-0.224-3.146c0.483-3.434,4.106-4.667,4.49-8.539c-2.15,0.47-2.663,2.578-3.817,4.045
					c-0.699-1.009,0.597-1.943,0.449-3.146c-3.638,0.425-0.728,5.262-2.694,6.741c-3.434-0.969-5.029,1.254-5.614,3.82
					c-1.494,0.455-2.563,2.526-3.594,2.696c-0.827-6.529,5.22-7.899,6.514-13.033c3.093-0.486,5.65-1.949,8.309-3.596
					c5.068-3.141,9.446-6.353,11.678-11.91c-3.775,1.092-4.878,4.857-8.085,6.517c0.674-3.82,4.054-6.879,6.513-9.663
					c-1.808-1.131-3.953,1.082-4.717,2.473c-0.538-0.286,0.079-1.727-0.897-1.573c-1.288,1.126-0.71,3.02-1.124,4.494
					c-0.488,1.749-1.807,3.359-1.57,5.394c-2.765,1.129-4.717,3.07-8.311,3.369c1.414-2.118,3.774-4.19,3.369-7.414
					c1.488-4.804,5.995-6.586,7.187-11.686c-1.977-0.255-2.318,1.987-3.145,2.921c-0.953,1.078-2.38,1.543-2.919,2.922
					c0.45-3.01,0.448-6.534,1.571-10.112c-2.084-0.214-1.784,1.959-2.245,3.369c-0.479-0.419-0.496-1.3-1.571-1.122
					c0.206,3.078,1.766,7.332,0,10.786c-0.86-1.337-3.739-1.77-5.839-1.124c-1.949,2.406-0.848,5.577-1.572,7.866
					c-2.252,7.107-9.746,9.871-10.555,18.427c-1.771-1-2.447-3.095-3.593-4.718c3.407-3.621,2.727-8.769,4.491-13.484
					c0.474-1.267,1.771-2.163,2.694-3.596c0.933-1.447,1.257-3.319,2.021-4.719c1.396-2.559,3.629-4.378,3.818-8.541
					c0.035-0.772,0.405-2.629-1.123-2.921c-1.635,0.365-1.065,2.57-1.348,3.821c-0.425,1.891-1.475,3.346-2.021,4.719
					c-0.919-2.432-0.571-5.671-0.225-8.315c-2.964,1.096-1.878,7.407-1.348,10.112c-1.972,2.897-3.655,6.081-6.063,8.539
					c-3.205-4.938,3.234-9.905,1.123-15.73c-1.801,1.202-1.334,4.199-2.021,6.294c-0.444,1.351-1.439,2.145-1.572,3.37
					c-0.658-2.038,0.47-5.863-1.348-6.741c-0.379,3.944-0.372,7.071,0.224,10.562c0.428,2.498,2.147,4.583,2.247,6.292
					c0.104,1.812-1.478,3.094-1.348,4.944c-0.92-0.878-1.622-1.973-2.021-3.371c-1.447,0.725-1.409,2.935-1.797,4.72
					c-1.2-5.374,3.109-16.504-1.796-18.878c-0.655,1.933,0.317,4.175,0,6.518c-1.292-1.104-1.15-3.643-2.919-4.27
					c-1.244,2.536,2.188,4.717,2.694,7.416c0.633,3.38-1.188,6.562-1.348,10.112c-1.874-1.39,0.753-5.293-0.674-6.968
					c-1.162-0.038-0.809,1.438-1.123,2.249c-0.519-0.23,0.007-1.505-0.897-1.349c-2.328,4.455,0.965,10.389,3.817,12.584
					c-0.815,3.754-1.806,7.332-2.47,11.236c-4.747-1.019-9.684-1.847-14.147-3.146c-1.953-1.931,0.696-6.67-1.349-8.765
					c0.492-1.53,1.201-2.844,1.572-4.494c3.59-2.85,5.842-7.038,6.513-12.81c-1.972,0.275-1.663,2.831-2.47,4.27
					c-0.517-1.793,0.493-3.997,0.448-6.067c-2.738,0.124-1.913,6.114-1.796,8.765c-0.759,0.739-1.044,1.952-2.246,2.247
					c0.577-2.32,0.927-4.712,0.674-6.967c-1.806-0.458-0.941,1.756-1.572,2.473c-2.829-3.558,0.249-8.4-0.225-12.585
					c-2.087,0.159-1.312,3.182-2.021,4.72c-0.842-0.355-0.441-1.954-0.897-2.697c-2.808,0.926-0.109,3.701,0.225,5.169
					c0.132,0.581-0.065,1.472,0,2.247c0.219,2.615,1.972,5.443,2.021,6.966c0.082,2.562-2.234,3.757-2.021,6.293
					c-0.887-3.281-4.265-6.498-5.166-9.888c-0.544-2.052,0.448-4.305-0.448-6.518c-1.837,1.007-1.246,6.704-0.449,9.214
					c0.876,2.762,2.571,5.744,3.369,7.865c-2.122,1.173-3.995,2.595-4.043,5.843c-0.884-0.314-1.775-0.62-2.695-0.899
					c-0.699-5.051-1.285-9.048-2.919-13.482c-0.479-1.304-1.689-2.558-1.797-3.596c-0.338-3.279,2.957-6.107,1.123-9.888
					c-1.241-0.044-0.481,1.915-0.898,2.696c-1.12-0.751-0.287-3.456-2.021-3.595c-1.474,1.195,0.192,4.627,1.796,4.943
					c-0.343,1.004-0.494,2.201-0.898,3.146c-1.094-2.426-0.835-6.206-3.368-7.191c0.084,5.534,2.308,10.874,4.267,15.281
					c-1.71-1.353-4.155-2.882-5.838-4.944c-1.498-1.835-1.696-4.462-3.594-5.843c0.29,6.901,5.926,10.4,10.105,14.157
					c0.545,1.628-0.081,4.426,0.449,6.067c-1.576,0.285-2.495-3.93-4.94-4.27c-0.112,4.213,4.896,8.762,8.533,10.112
					c1.253,0.466,2.705,0.427,4.042,0.676c0.322,0.8,0.387,1.859,0.675,2.695c-2.668,0.564-4.942,2.951-7.411,2.696
					c-1.075-0.11-3-1.633-4.042-2.471c-1.303-1.05-2.232-2.829-3.817-3.147c-0.71,2.586,3.108,3.777,3.368,5.394
					c-1.484-0.163-2.986-0.308-4.267-0.674c0.654,2.086,3.554,1.728,6.288,2.247c2.077,0.396,4.409,1.437,7.186,0.45
					c-1.742,2.001-5.328,2.158-6.961,4.27c1.854,1.177,4.496-0.241,6.287-1.124c2.03-1,3.708-2.64,5.166-3.596
					c3.595,3.893,10.53,4.442,17.066,5.394c-0.901,4.866-1.877,9.657-3.369,13.934c-10.787,2.312-21.977,4.226-33.909,5.393
					c0.039-9.926-0.515-19.261-0.898-28.765c2.111-1.357,0.553-4.612,0.898-7.191c0.151-1.127,0.951-1.479,0.898-2.472
					c-2.106-2.536-5.125-4.159-6.737-7.19c-1.289-0.059-2.067-0.629-3.368-0.675c-0.099-1.147,1.471-0.626,1.347-1.798
					c0.062-1.709-0.701-2.593-0.449-4.494c0.202-1.071,2.123-0.423,2.021-1.798c-0.106-1.316-1.685-1.16-2.694-1.574
					c-0.38-1.637-1.055-2.351-1.797-4.27c-0.451-1.164-0.936-3.858-2.021-4.044c-2.931-0.501-2.361,6.5-3.594,8.09
					c-0.517,0.666-1.762,0.056-2.021,1.124c0.172,0.877,0.611,1.485,1.348,1.798c-0.651,2.438-0.472,5.007,0.674,6.741
					c0.138,0.887-1.232,0.265-1.797,0.449c-2.646,3.047-7.054,4.327-8.309,8.766c-0.111,1.009,1.166,0.63,1.572,1.122
					c-0.377,2.32-0.39,5.003-0.674,7.416c-0.039,0.862,1.161,0.485,1.123,1.349c0.132,9.362-0.754,20.351,0.225,29.662
					c-0.312,0.514-1.563,0.084-2.246,0.226c-0.489-4.38-1.088-8.649-1.572-13.034c-0.05-0.698-1.118-0.38-1.796-0.449
					c-0.435-3.706-0.867-9.1-1.572-13.034c-0.172-0.96,0.138-2.99-1.347-2.921c-1.665,4.115-0.755,10.272-0.898,15.955
					c-0.639,0.334-1.538,0.409-2.021,0.899c0.229,3.975-0.709,6.78-0.674,10.562c-6.699-8.877-10.28-20.874-15.271-31.461
					c2.947-0.841,1.866-5.678-1.572-5.169c-1.979-9.732-3.274-21.018-5.166-31.461c-2.904-1.575-3.032,5.327-3.593,7.865
					c-1.604,7.255-4.08,17.449-6.288,24.045c-1.251-0.127-2.143,0.103-2.695,0.675c0.049,0.725-0.397,0.95-0.224,1.798
					c-0.263,1.161,1.561,0.236,1.572,1.123C11.535,77.46,7.61,89.339,0,97.528C0,65.021,0,32.509,0,0c255.36,0,510.63,0,766,0
					C766,33.184,766,66.366,766,99.552z"/>
				<path fill-rule="evenodd" clip-rule="evenodd" fill="#FFFFFF" d="M291.938,35.057c1.064,0.165,1.544-0.254,2.471-0.227
					C294.658,33.44,291.539,33.642,291.938,35.057z M72.984,46.741c0.986-0.287,0.195-2.351,0.449-3.37c-0.374,0-0.748,0-1.122,0
					C72.782,44.67,72.216,46.118,72.984,46.741z M70.29,47.191c-0.097-1.186,0.753-3.022-0.45-3.596
					C69.319,44.574,69.613,46.664,70.29,47.191z"/>
			</g>
		</g>
	</g>
</g>
</svg>