<svg version="1.1" xmlns="http://www.w3.org/2000/svg" xmlns:xlink="http://www.w3.org/1999/xlink" x="0px" y="0px" width="890px"
	 height="100px" viewBox="0 0 890 100" enable-background="new 0 0 890 100" xml:space="preserve">
<g id="Layer_2" display="none">
	
		<rect x="-659.833" y="-735.685" display="inline" fill-rule="evenodd" clip-rule="evenodd" fill="#EC008C" width="3648.365" height="1065.106"/>
</g>
<g id="Layer_1">
	<g id="_x32_9wcJc_1_">
		<g>
			<path fill-rule="evenodd" clip-rule="evenodd" d="M890,97.389c-5.168-0.714-7.112-7.255-13.307-5.222
				c-0.895,0.869-0.306,2.517-0.261,3.917c-5.617-2.403-13.638-5.685-19.048-8.878c-4.797-2.831-14.513-10.306-19.83-2.872
				c-2.643,0.228-5.172,0.568-6.784,1.828c-10.688-6.517-19.263-15.361-25.831-26.632c-2.597-4.457-5.031-11.614-10.958-11.75
				c-3.678-4.087-6.06-9.004-9.393-13.315c-3.336-4.315-7.143-7.927-10.698-12.011c-4.305-2.123-9.414-9.909-15.655-4.438
				c-7.172,8.838-14.212,17.806-18.786,29.243c-4.588-0.117-5.071,4.83-6.784,8.094c-4.286,8.168-10.241,14.43-16.177,20.365
				c2.361,4.774,6.079,8.191,10.698,10.705c-3.545-0.401-6.461-3.776-8.871-6.005c-0.936-0.865-1.475-2.03-2.348-2.872
				c-1.744-1.681-3.961-2.852-5.479-4.7c-3.172-3.859-5.28-8.923-7.307-14.099c-1.445-3.693-3.916-13.209-8.349-13.316
				c-2.503-0.061-4.292,3.419-5.74,5.222c-3.612,4.498-7.191,7.246-11.48,10.444c-10.515-4.883-21.107-9.688-30.006-16.188
				c-1.807-3.401-4.657-6.213-6.783-9.138c-2.98-4.1-4.616-9.489-10.959-9.661c-5.084-6.574-11.359-11.958-23.222-11.749
				c-1.141,0.687-0.988,2.667-1.305,4.178c-2.651-0.528-3.266-4.035-6.784-3.134c-1.9,0.487-2.675,4.343-3.914,6.006
				c-3.171,4.257-7.717,8.181-11.741,12.532c-3.879,4.194-8.441,8.252-12.786,11.75c-4.628,3.727-8.833,7.514-13.568,10.704
				c-5.032,3.392-10.097,5.888-15.655,8.878c-8.979,4.829-16.374,12.211-22.961,19.06c-3.379-4.644-8.265-7.914-12.002-12.271
				c-2.614-3.048-4.573-6.75-7.044-9.922c-2.687-3.446-6.394-6.296-10.176-8.616c-0.538-5.312-3.079-7.569-6.001-10.704
				c-2.945-3.159-4.646-6.001-8.089-7.572c-0.947,0.01-2.06-0.146-2.348,0.522c-3.037-3.06-6.871-6.126-9.915-9.139
				c-1.104-1.093-1.774-2.589-2.87-3.655c-1.236-1.203-3.248-2.049-4.697-3.395c-1.562-1.451-2.479-3.336-3.914-4.178
				c-7.041-4.126-10.439,3.09-14.09,7.312c-2.739,3.167-5.284,6.896-8.088,9.66c-3.854,3.8-9.062,5.41-10.698,10.705
				c-2.646-0.659-3.633-2.979-5.74-4.178c-2.404,0.205-4.055,1.164-6.784,1.045c-4.441,1.923-6.278,6.281-9.654,9.66
				c-1.305,1.307-3.121,2.34-4.436,3.655c-1.503,1.505-2.417,3.232-3.914,4.438c-4.102,3.307-8.355,5.044-11.48,9.139
				c4.501,3.368,9.967,5.338,14.873,8.355c6.045,3.718,12.934,6.303,19.83,8.616c2.845-0.612,4.262-2.861,7.045-2.873
				c5.207-0.02,9.622,5.22,13.568,7.05c2.426,0.165,4.374-0.148,6.262-0.521c-1.923,0.608-3.617,1.896-5.74,1.566
				c-1.601-0.249-4.126-2.661-6.262-3.917c-4.721-2.773-8.796-4.078-13.307-0.521c-4.577-0.532-8.874-1.935-12.785-3.656
				c-3.894-1.714-7.923-3.146-11.48-4.96c-2.252-1.148-4.508-3.218-7.044-4.7c-3.958-2.312-7.964-3.751-10.177-7.05
				c-7.981-3.418-13.408-11.87-25.831-9.138c-2.389-0.743-3.643-2.622-6.523-2.872c-7.623-5.393-17.171-10.074-28.701-10.705
				c-4.919,2.388-9.458,5.157-13.046,8.877c-1.952-0.126-2.478,1.176-4.174,1.306c-9.758,8.6-24.535,12.176-39.661,15.404
				c0.899,1.162,2.262,1.927,3.393,2.872c1.176,0.984,2.439,1.922,3.392,3.134c7.105,4.116,15.653,6.79,22.7,10.966
				c-3.933-0.098-6.391-1.548-9.654-3.134c-8.361-4.062-18.514-8.541-22.961-15.927c-2.962-4.919-3.724-11.236-8.35-15.404
				c-1.52-0.129-2.093,0.689-3.392,0.783c-2.747-5.163-5.968-11.287-8.872-16.972c-1.777-3.479-3.283-8.62-6.784-9.66
				c-5.837-1.734-7.661,1.963-10.958,3.395c-2.082,0.903-5.195,1.438-8.089,2.61c-2.512,1.02-6.158,3.063-8.35,2.611
				c-0.649-0.134-1.298-1.058-2.348-1.828c-2.491-1.827-5.092-3.894-7.045-5.482c-4.787-3.896-9.918-6.271-13.829-9.922
				c-1.707-0.142-2.97,0.161-4.436,0.261c-1.58,0.778-0.988,3.236-3.131,2.872c-4.156,7.678-7.359,16.309-10.698,24.805
				c-0.698,0.508-1.02-1.105-2.609-0.522c-0.058,1.603,1.263,2.998,0.783,4.178c0.184,1.229-1.3,0.787-1.826,1.306
				c-0.301,1.239,0.605,2.136,0,2.872c-0.862-2.2-4.346-1.312-4.175,0.521c0.157,1.683,1.79,0.888,2.609,1.567
				c0.455,0.85-0.667,2.02-1.044,2.872c-0.244,1.192-0.857-1.272-2.348-0.522c-0.205,1.597,0.864,1.92,1.305,2.872
				c-1.853,2.236-2.436,5.744-3.914,8.355c-5.776,0.212-7.567,3.243-9.915,7.049c-3.438,5.572-6.999,11.431-10.958,15.666
				c0.675,2.458,2.918,3.346,3.914,5.483c-3.086-2.849-5.947-5.673-8.871-8.878c-2.959-3.242-6.868-5.035-9.654-8.094
				c-1.406-1.543-2.598-3.71-3.914-5.482c-1.378-1.856-2.958-3.896-3.392-6.267c-2.609-3.072-9.058-11.704-12.002-3.655
				c-3.274-0.665-3.459,1.761-5.218,2.61c-8.146-11.082-19.266-19.188-28.18-29.504c-2.419,0.159-5.155-1.079-7.827-0.261
				c-2.63,0.806-8.166,6.54-9.654,8.355c-3.26,3.973-5.764,8.909-8.61,13.576c-2.86,4.69-4.808,9.83-8.089,14.36
				C13.132,80.791,6.012,88.628,0,96.605C0,64.403,0,32.202,0,0c296.698,0,593.29,0,890,0C890,32.463,890,64.927,890,97.389z"/>
			<path fill-rule="evenodd" clip-rule="evenodd" d="M450.088,22.977c3.107,3.244,2.477,10.229,4.436,14.621
				c2.252,0.078,1.146-3.204,1.565-4.961c2.57,5.436,4.616,11.395,7.044,16.972c-2.657-0.875-4.607-3.639-6.262-6.788
				c-0.439-0.836-0.255-3.151-2.088-2.611c-0.432,1.309,0.276,3.723,0,5.744C451.845,39.88,448.42,31.973,450.088,22.977z"/>
			<path fill-rule="evenodd" clip-rule="evenodd" d="M54.793,53.524c0.636-0.494,1.409-0.853,1.304-2.089
				c1.121,2.012,1.188,5.078,1.566,7.833c-5.685-2.318-6.076-9.934-14.612-9.399c0.032-2.84,1.86-3.883,2.87-5.744
				c0.261,0,0.521,0,0.783,0c0.553,1.101,1.776,1.53,2.609,2.351C51.473,48.492,52.443,51.698,54.793,53.524z"/>
			<path fill-rule="evenodd" clip-rule="evenodd" d="M692.483,54.309c1.217,2.296,0.057,4.832,0.521,7.049
				c0.685,3.264,4.231,6.354,3.131,10.967c-2.021-1.285-0.98-5.634-3.914-6.006c0.097,5.561,3.159,10.415,2.348,17.755
				c-1.721-0.802-0.869-4.178-2.87-4.7c-0.948,0.966-0.523,3.306-1.043,4.7c-2.778-6.358-5.751-12.521-8.35-19.061
				C687.484,63.231,690.107,58.893,692.483,54.309z"/>
			<path fill-rule="evenodd" clip-rule="evenodd" d="M98.367,87.206c3.186,2.469,5.266,6.045,7.044,9.922
				C101.723,95.162,99.775,91.454,98.367,87.206z"/>
			<path fill-rule="evenodd" clip-rule="evenodd" d="M130.721,100c-0.416-1.15-1.925-1.207-2.349-2.35
				c1.031,0.622,1.941,1.365,2.609,2.35C130.895,100,130.808,100,130.721,100z"/>
			<path fill-rule="evenodd" clip-rule="evenodd" d="M654.911,59.791c-0.295,1.514,0.935,1.502,1.565,2.089
				c0.573,1.516,1.595,2.582,2.349,3.916c-2.531-0.428-3.588-4.59-7.567-4.438c1.144,4.115,3.942,7.615,6.001,11.488
				c2.956,5.561,4.899,12.063,10.958,14.622c1.294,1.925,3.793,2.645,5.74,3.916c-4.822-0.996-10.305-1.229-14.351-3.655
				c-0.583-0.35-0.938-1.232-1.565-1.566c-1.391-0.741-3.242-0.664-4.697-1.306c-2.385-1.052-4.222-4.21-7.044-3.133
				c-0.007,2.009,1.688,2.314,2.087,3.916c-6.798-2.685-11.09-7.876-15.655-12.794c-1.13-0.436-2.542-0.589-3.914-0.783
				c0.344,1.745,1.17,3.007,2.087,4.178c-2.438,0.142-4.792-1.839-6.523-3.395c-1.668-1.5-3.803-3.447-4.958-5.222
				c-1.319-2.026-1.768-5.362-4.696-5.744c-0.353,3.227,1.758,6.247,2.348,9.399c-5.244-2.324-5.575-9.565-11.22-11.488
				c-1.308,2.932,0.818,6.799,1.044,9.922c-1.742-1.254-2.981-3.037-4.175-4.961c-1.12-1.806-1.462-4.369-3.392-5.483
				c-1.667,1.865,0.73,6.886,0.783,9.922c-2.215-2.743-3.558-6.361-6.523-8.354c0.46,3.455,1.377,6.454,2.087,9.66
				c-1.72-0.719-2.176-4.958-3.653-6.788c-0.227-0.992,0.248-2.686-1.044-2.611c-1.337,2.491-0.382,7.276-1.305,10.183
				c-1.363-5.431-1.785-14.206,1.305-18.016c14.065-2.321,25.747,1.949,32.354,9.399c6.755,4.902,13.957,9.358,22.961,12.011
				c2.097-0.271,2.74,0.914,4.436,1.044c1.154,0.325,0.756,2.203,2.609,1.828c0.026-2.812-1.92-5.11-3.13-7.311
				c-2.855-5.191-5.895-10.06-9.916-14.36c-4.883-5.225-13.103-8.211-14.611-16.972c-5.99-2.903-2.516,6.388-1.305,11.228
				c0.459,1.836,1.3,3.176,1.305,4.178c-2.368,0.02-3.403-1.295-5.479-1.567c-0.426-0.117-0.426,1.423,0,1.306
				c-4.247-2.397-5.48-8.249-7.306-14.099c-1.432-4.588-3.67-10.969-2.87-18.277c0.592,10.809,9.546,13.25,19.83,14.36
				c0.316,0.08,0.899-0.754,0.261-0.783c2.162,1.232,4.599,4.449,6.001,7.311c3.106,4.29,6.952,7.839,12.263,9.922
				c7.072,3.977,14.648,7.448,19.83,13.315C664.009,64.896,660.809,58.154,654.911,59.791z"/>
			<path fill-rule="evenodd" clip-rule="evenodd" d="M766.324,26.109c2.158,0.279,3.25,3.883,4.958,5.483
				c1.489-0.04,0.396-1.653,0.522-2.611c2.765,2.717,3.774,7.189,5.479,10.967c-0.829-0.477-0.544-2.067-2.087-1.828
				c-0.303,3.351,1.37,6.983,0.783,11.488c-1.84-1.379-1.558-4.882-4.436-5.222c0.556,4.181,0.525,10.704-1.044,14.882
				c-3.822-2.093-4.971-6.861-7.044-10.704c-0.522,0-1.043,0-1.566,0c-0.66,1.428-0.859,3.316-1.304,4.96
				c-1.229-1.239-2.748-2.197-3.653-4.177c-0.922-2.018,0.016-5.574-2.609-6.267c-0.496,1.332-0.64,3.015-1.044,4.438
				c-1.312-0.95-1.269-3.256-2.348-4.438c-1.331-0.374-1.115,0.799-1.827,1.044c0.927,3.624-0.589,9.385,3.131,11.228
				c-1.926,8.256-9.173,11.187-15.656,14.883c-0.228-1.625,1.42-3.624,2.609-4.7c1.874-4.392,5.493-7.036,7.828-10.966
				c-0.988-4.238,0.134-7.12,0.783-10.966c-0.674-0.825-1.635,0.261-2.348,0.261c3.617-2.299,6.484-5.347,8.872-8.877
				c0.665,3.637,5.033,15.881,7.306,6.788c1.53,2.472,1.316,6.689,5.218,6.789c2.537-4.433-0.586-10.896-1.305-15.405
				c2.386,0.312,1.805,5.851,5.218,6.005C770.827,34.31,768.374,29.716,766.324,26.109z"/>
			<path fill-rule="evenodd" clip-rule="evenodd" d="M213.955,44.908c-3.427,0.314-5.872,3.871-9.132,5.223
				c0.178-3.652,4.763-5.155,5.74-8.878c-1.546,0.02-2.208,0.924-3.393,1.306c0.128-0.748,1.876-2.121,3.393-2.35
				c1.357-3.603,5.323-4.595,8.872-6.005c-1.227,5.822-2.546,11.551-7.045,14.099C212.045,47.341,213.896,46.335,213.955,44.908z"/>
			<path fill-rule="evenodd" clip-rule="evenodd" d="M181.601,56.658c-0.136-2.921,1.967-3.603,1.826-6.527
				c-2.248,0.014-2.337,2.187-3.392,3.394c-4.986,2.681-9.674,3.704-12.524,7.572c-1.701,2.309-1.558,5.185-2.087,8.616
				c-0.763,4.947-4.207,7.54-7.044,10.443c0.42-2.999,5.747-6.052,3.914-10.443c-2.785,1.034-3.567,4.158-5.218,6.267
				c-1.09,1.39-2.715,2.201-3.653,3.655c1.932-6.407,7.885-12.163,10.437-19.583c0.698-2.031,2.694-5.44,0-7.311
				c-2.571,1.519-4.903,3.274-8.349,3.917c2.023-3.72,3.655-7.831,6.262-10.966c1.27,0.621,2.438,1.631,4.175,1.566
				c1.263-0.047,2.336-1.09,3.653-1.306c2.105-0.345,5.474-0.24,7.567,0c2.177,0.25,3.66,1.381,5.479,1.044
				c3.189-0.59,4.053-3.996,6.001-6.266c0.666,0.291-0.105,2.019,0.521,2.35c1.279,0.447,2.694-2.091,2.349-0.783
				C188.367,47.077,188.002,56.001,181.601,56.658z"/>
			<path fill-rule="evenodd" clip-rule="evenodd" d="M30.789,79.896c-2.85,0.542-3.834,2.952-6.262,3.917
				c0.989-2.493,4.907-4.314,6.001-7.572c-2.932-1.104-3.255,2.658-6.262,2.35c1.311-2.658,4.217-3.729,6.001-6.005
				c3.368-4.299,4.638-9.979,6.001-16.449c2.138,1.69,4.451,3.206,5.479,6.005c1.168,0.386,0.802-0.765,1.826-0.521
				c0.023-1.75-0.717-2.334-0.26-3.917c7.316,0.976,9.162,8.722,18.264,7.05c1.481-3.265,0.829-7.164,0.522-11.228
				c0.73-0.506,2.834,2.001,3.392,3.395c1.524,0.39,1.666,2.162,3.131,2.611c-0.958,1.651-1.92,3.301-2.087,5.744
				c0.832,1.691,2.49,2.556,3.131,4.438c5.23,3.39,8.7,8.37,13.829,12.532c3.787,3.073,7.225,4.345,10.698,7.572
				c-6.485-1.383-10.038-4.185-14.611-8.355c-0.725-0.661-1.757-0.79-2.348-1.306c-2.694-2.349-4.985-8.189-9.133-7.311
				c2.401,6.389,6.216,11.36,9.654,16.71c-2.979-1.347-4.899-4.332-7.566-7.311c-1.1-1.229-2.157-2.871-3.392-4.438
				c-1.686-2.14-2.788-4.551-6.001-4.699c-0.746,0.937,0.346,1.779,0.261,2.872c-3.868-1.265-6.258-4.008-10.698-4.7
				c-2.728,1.447-4.303,4.049-6.262,6.267c-0.403-1.799,1.866-3.178,1.565-5.744c-3.691,1.441-4.32,5.946-7.566,7.833
				c-1.321,2.769-3.541,4.638-4.958,7.311c-0.295-1.865,2.034-3.358,1.826-6.006c-3.791,1.168-4.072,5.847-7.306,7.572
				C28.409,86.551,31.438,83.262,30.789,79.896z"/>
		</g>
	</g>
</g>
</svg>