<svg version="1.1" id="Layer_1" xmlns="http://www.w3.org/2000/svg" xmlns:xlink="http://www.w3.org/1999/xlink" x="0px" y="0px"
	 width="963px" height="100px" viewBox="0 0 963 100" enable-background="new 0 0 963 100" xml:space="preserve">
<g id="nk1ZFh_1_">
	<g>
		<path fill-rule="evenodd" clip-rule="evenodd" fill="#7b93ea" d="M453.126,45.341c5.275,5.033,9.343,14.014,12.422,22.663
			c1.041,2.922,2.559,5.603,2.541,7.465c-0.04,4.185-2.763,7.697-4.517,11.198c-0.77-7.574-2.278-15.451-1.412-23.729
			c-1.795,0.633-1.152,2.735-1.411,3.999c-1.201,5.843-4.396,10.599-3.953,18.398C451.831,75.118,451.746,59.395,453.126,45.341z"/>
		<path fill-rule="evenodd" clip-rule="evenodd" d="M923.475,48.273c1.488,1.793,1.604,4.885,1.693,7.999
			C923.681,54.596,923.12,50.822,923.475,48.273z"/>
		<path fill-rule="evenodd" clip-rule="evenodd" fill="#7b93ea" d="M98.813,52.807c0.697,2.272,2.383,5.444,5.081,6.666
			c-6.642,1.992-12.233,4.977-14.398,11.198c1.745,1.265,4.581,0.773,7.341,1.333c1.226,0.248,2.32,0.893,3.67,1.066
			c6.296,0.811,13.754-1.726,16.092,2.667c-3.142,0.854-3.788,4.066-5.646,6.132c-2.054-1.415-4.39-4.326-7.905-5.866
			c-3.553-1.556-11.01-3.336-13.552-0.799c0.106,1.815,2.589,2.643,2.259,4c-5.495,0.854-9.413,3.197-11.293,7.465
			c-1.208-1.681-2.516-4.249-2.259-6.133c0.475-3.47,5.566-5.235,7.623-7.998c3.601-4.838,3.444-10.009,5.364-15.731
			C93.921,55.653,95.481,53.393,98.813,52.807z"/>
		<path fill-rule="evenodd" clip-rule="evenodd" fill="#7b93ea" d="M358.266,90.935c0.502,1.838,0.099,6.836,1.976,8.265
			c-0.854,0.616-2.912,0.095-4.234,0.267C356.663,96.53,358.392,94.607,358.266,90.935z"/>
		<path fill-rule="evenodd" clip-rule="evenodd" fill="#7b93ea" d="M963,98.934c-3.53-5.972-12.982-8.667-21.74-5.333
			c0.609-1.38,2.08-1.946,2.824-3.199c-0.895-1.534-2.977-0.585-3.951-0.268c-4.732,1.54-8.951,6.222-12.706,8.8
			c-2.103,0.238-4.044,0.625-6.21,0.799c2.824-5.33,6.63-9.736,9.599-14.931c2.041,0.238,3.127-0.425,4.234-1.067
			c1.8,0.349,5.74,1.205,7.341,0c-0.982-1.206-4.451-0.062-5.928-0.799c0.482-0.521,0.488-1.493,0.845-2.133
			c2.801,0.006,4.185-0.253,6.776,0c-0.898-1.019-3.153-0.756-4.799-1.066c0.893-1.378,2.799-1.801,3.67-3.2
			c1.701-0.008,2.906,0.455,4.799,0.267c-0.719-1.365-3.112-1.15-5.081-1.333c1.463-1.373,3.257-2.434,4.516-3.999
			c1.649-0.151,4.352,0.997,5.365-0.267c-1.084-0.932-3.53-0.576-5.365-0.801c1.772-2.06,4.974-2.768,7.624-3.999
			c-0.955-0.521-2.982-0.028-3.388-1.067c-0.2-2.439,4.145-2.817,5.646-4.533c-0.855-0.703-2.371,0.237-3.387,0.268
			c-0.544-3.092,2.167-3.108,2.54-5.333c-1.701-0.888-2.056,1.786-3.67,1.866c-0.555-1.239,0.905-2.633,0.848-4.265
			c-2.268,1.682-2.035,5.724-5.93,5.865c0.358-1.082,0.523-2.351,0.564-3.732c-1.759,2.159-1.463,6.262-4.799,6.932
			c0.228-1.399,0.187-2.773,0-4.267c-2.173,3.176-0.912,7.995-4.234,10.132c-0.896-0.664,0.465-3.461-0.848-3.732
			c-0.862,2.83-0.454,6.859-2.825,8.266c-0.822-1.177-0.89-3.068-0.845-5.067c-1.214,2.588,0.34,7.785-2.259,9.066
			c-1.582-1.134,0.732-4.303-0.848-5.333c-2.348,1.362-0.201,3.947-0.563,5.866c-0.219,1.152-2.486,3.503-3.67,5.066
			c-1.407,1.854-2.411,3.567-3.389,5.065c-3.153,4.83-5.446,8.341-7.905,11.731c-1.811,0.199-2.869-0.311-4.518-0.266
			c2.896-9.797,8.732-16.816,13.271-25.064c2.409-0.567,4.382-1.547,5.363-3.466c-0.755-0.953-2.01,1.276-2.541,0.534
			c0.923-3.041,4.639-3.44,6.211-5.865c-0.783-0.288-2.538,0.794-3.389,1.333c-0.276-3.729,4.156-5.317,7.059-6.932
			c-1.679-0.78-3.09,0.986-4.8,1.066c0.208-4.692,5.827-4.275,8.188-6.933c-1.802-0.187-4.002,1.548-5.928,2.133
			c0.88-3.878,5.341-4.377,7.905-6.666c-1.483-0.771-2.783,0.922-4.235,1.066c0.501-1.554,2.497-3.069,1.695-4.265
			c3.168,0.059,4.427-1.684,5.645-3.467c-1.609,0.523-2.808,1.437-4.233,2.133c-0.576-4.188,4.995-4.879,6.492-7.999
			c-1.792,0.44-2.613,1.797-4.518,2.133c-0.142-5.379,4.547-6.195,6.495-9.599c-2.554,0.346-4.043,3.113-5.647,3.466
			c-0.403-2.195-2.002-3.263-2.26-5.599c-0.587,2.644-1.242,5.226-2.54,7.199c-0.437-1.632-0.476-3.639-0.563-5.599
			c-1.168,1.296-0.716,4.125-0.848,6.398c-1.021,1.526-2.333,2.774-3.105,4.533c-0.886-2.009-0.104-5.589-1.693-6.932
			c-0.725,2.925,1.073,7.138,0,10.398c-0.022,0.972-2.152-1.393-1.978,1.067c-1.3-1.26-0.366-4.631-1.692-5.866
			c-0.698,4.167,1.3,8.843-1.131,12.799c-0.923-1.884-0.853-4.705-1.41-6.933c-1,1.747,0.23,5.759,0.563,7.999
			c-1.893,1.501-2.193,4.505-2.822,7.199c-0.892,0.129-0.64-0.818-1.695-0.533c-0.722,0.295-0.554,1.432-0.563,2.4
			c-1.149-1.582-1.374-4.036-1.411-6.666c-1.562,5.609,3.22,10.674,1.411,16.264c-0.492,1.515-2.056,2.108-3.106,3.466
			c-5.512,7.116-8.84,17.168-13.833,24.529c-4.546-2.061-9.035,0.519-13.271-0.267c-1.238-0.23-1.718-1.293-2.822-1.866
			c-2.749-1.426-5.919-1.463-8.751-2.4c-1.159,0.123,0.115-0.569-0.282-1.333c-2.869-1.532-8.807-2.548-11.575-1.066
			c5.052-4.916,0.871-18.552,7.621-21.864c-2.843,6.729-0.709,15.911,5.081,18.397c0.504-2.29-1.125-4.774-0.845-7.732
			c1.631,3.244,3.827,8.435,1.975,12.532c2.733,0.621,2.962-3.179,4.518-4.532c0.277,4.104,2.772,7.498,7.34,6.665
			c0.124-1.603-1.694-2.143-2.259-3.466c-0.973-2.289-0.504-5.06-0.563-8.267c2.228,2.696,2.647,7.099,4.236,10.399
			c1.752-1.098,0.88-4.678,1.129-7.199c1.857,1.444,0.621,5.812,1.411,8.266c3.845-2.856,5.546-7.739,5.363-14.399
			c1.183-0.972,2.049,2.825,4.235,2.667c1.845-4.133-1.945-7.347-2.259-11.198c1.777,1.432,5.526,1.002,6.492,3.2
			c1.688-2.83-0.391-8.574-3.104-9.866c0.479-0.651,2.354,0.589,3.104-0.266c0.171-1.501-2.188-2.012-1.975-2.667
			c3.24-0.306,4.207,1.536,5.93,2.667c0.733-3.274-1.976-5.601-3.107-7.999c2.028,0.572,3.748,1.437,5.647,2.132
			c0.751-3.839-1.729-6.887-4.8-7.999c2.393-0.938,6.336-0.416,7.341-2.666c-4.321,0.396-7.33-2.337-9.6-5.066
			c-0.705-0.85-1.872-1.742-1.411-2.4c3.081,0.734,4.746,2.806,8.188,3.2c0.191-4.104-2.977-7.313-6.213-9.065
			c3.471-1.167,8.832-0.548,11.294-2.667c-3.786-2.022-7.821-3.812-12.423-5.066c3.084-3.043,8.132-4.23,11.576-6.932
			c-4.676-1.01-12.058-0.034-16.092,1.332c0.632-1.801,2.82-2.136,3.104-4.266c-3.129-0.73-5.437,1.618-7.903,2.4
			c1.681-2.502,5.157-5.616,7.903-7.999c-7.478-3.472-13.894,3.903-17.504,6.666c0.77-2.294,1.823-4.324,2.542-6.666
			c-2.774,0.106-6.574,3.282-8.188,5.599c-1.462,2.101-2.079,5.08-2.824,7.733c-0.617-2.884-0.16-6.78-0.846-9.599
			c-5.611,4.465-3.312,13.683-2.824,21.863c-1.629-3.615-2.6-7.854-5.363-10.399c-0.604,6.098,0.812,14.865,1.693,21.331
			c-1.732-1.741-2.789-4.118-3.951-6.399c-1.013,6.167,0.243,10.709,2.822,14.398c0.78,1.112,3.192,3.288,2.54,5.866
			c-0.485,1.927-4.982,4.187-6.773,6.398c-1.825,2.252-4.547,6.286-4.8,9.333c-0.074,0.875,0.444,2.03,0.281,2.933
			c-0.644,3.579-5.178,3.788-6.776,6.399c-1.372-1.443,2.257-2.386,2.26-4.266c-3.246-0.799-7.479,1.97-10.163,3.466
			c0.615-5.551,5.577-9.307,7.341-14.664c-2.994-1.849-6.041,0.906-8.188,2.399c-2.393,1.665-4.939,3.5-6.211,5.599
			c-0.368-2.926,1.79-5.772,1.693-9.331c-5.875,2.212-8.431,9.125-12.986,13.064c-0.65,0.562-1.708,1.493-2.541,1.333
			c2.601-6.954,5.113-18.197,2.541-26.662c2.375,0.248,4.325,3.201,4.799,6.133c3.042-2.02,3.185-8.079,2.259-12.266
			c1.634-0.534,3.929,2.842,5.365,4.267c1.635-4.491,0.368-10.827-3.106-12.265c2.611-0.467,4.776-1.354,6.211-2.933
			c-1.221-0.587-2.942,0.429-4.8,0.266c-2.508-0.22-4.629-1.874-6.211-2.667c3.729-4.833,8.9-8.305,16.092-9.865
			c-1.121-1.606-3.733-1.806-6.211-2.132c2.183-2.116,5.913-2.771,8.188-4.8c-1.906-2.091-7.049-2.156-10.162-1.066
			c0.424-1.501,2.981-2.258,4.233-4.267c1.206-1.933,2.175-5.059,1.13-7.465c-0.675,7.022-9.838,6.403-15.528,9.065
			c1.42-2.849,3.374-6.572,3.107-10.132c-1.688-0.17-1.215,1.698-1.978,2.399c-4.251,2.652-7.552,6.199-10.162,10.399
			c-1.125-3.11,0.612-5.818,1.127-8.266c-1.541-0.355-2.575,2.074-3.387,3.466c-1.514,2.602-2.808,5.38-2.258,9.333
			c-5.919,3.902-11.143,9.258-12.142,18.396c-0.195,1.806,0.777,4.23,0.284,6.4c-0.29,1.271-2.282,3.165-3.107,4.798
			c-2.219,4.396-3.689,12.805,1.412,16.798c1.599-2.135,1.424-5.943,3.106-7.999c0.397,1.374-1.94,4.338-0.566,5.865
			c5.979-1.197,7.77-6.35,10.729-10.397c0.889,4.254,0.736,7.983,0.284,11.198c5.566-1.318,3.54-9.81,5.08-14.932
			c4.563,7.896,0.624,21.211-3.387,26.93c-0.94,0-1.883,0-2.823,0c-0.64-1.438,3.224-3.151,3.388-5.599
			c-5.901-2.33-13.39-0.35-16.656,2.933c-0.62-1.774,2.138-3.976,1.411-5.865c-2.199-0.176-4.8,1.486-6.495,2.666
			c-0.218-5.608-0.621-13.008-3.952-16.532c-1.079,3.382,1.291,8.646-0.28,12.799c-5.069,0.901-9.664,2.251-12.14,5.599
			c-0.566-1.293,2.533-2.693,1.129-4.8c-2.218,0.219-2.948,1.84-3.673,3.468c-5.485,1.572-9.973,4.089-13.269,7.731
			c0.145-1.911,2.971-3.591,3.106-6.399c-3.864-1.652-9.448,2.649-12.705,4.533c-0.043-3.178,2.253-8.915,0.566-12.799
			c3.51,2.818,7.972,4.737,12.703,6.4c0.556-2.503-3.266-5.188-3.104-9.066c2.765,1.388,4.559,3.694,6.774,5.599
			c2.672-1.541,2.594-6.752,1.695-10.132c2.799,1.09,7.245,0.624,10.728,1.066c0.214-1.691-1.329-1.36-1.977-2.666
			c-1.629-3.282,0.604-8.511-1.411-11.466c2.196,0.416,4.62,2.923,7.621,3.466c0.702-4.839-1.604-9.148-5.362-10.666
			c2.304-0.579,5.54-0.279,7.058-1.599c0.143-1.378-1.865-0.727-2.541-1.334c-5.682-1.121-5.786-7.511-9.883-10.132
			c3.801-2.812,8.626-4.651,9.602-10.131c-2.214-0.313-1.773,1.882-3.388,2.132c-5.369,0.422-10.739-3.088-14.683,0
			c-0.266-1.058,2.257-1.775,2.259-3.466c-4.731-2.317-10.24,2.693-12.702,4.266c0.235-1.82,1.367-2.796,1.692-4.532
			c-5.772-0.029-9.931,3.774-11.294,8.799c-1.076-2.67,0.099-6.501,1.13-8.799c-4.051-0.256-6.232,3.523-7.057,7.199
			c-1.889-1.701-3.884-4.664-7.343-4c1.513,3.461,3.662,6.319,2.824,11.998c-2.641-1.178-9.705-2.561-11.575,0.267
			c0.63,1.56,2.255,1.091,3.388,2.134c1.634,1.501,1.805,4.414,3.389,6.131c-7.78-0.859-11.043,2.549-13.834,6.399
			c1.092,1.339,3.459-0.125,5.364,0.267c-2.713,1.982-5.453,5.324-4.799,9.599c4.45-1.669,7.867-5.713,14.398-4.533
			c0.45,1.103-2.012,2.05-3.106,3.2c-1.42,1.489-2.475,3.527-3.67,4.8c-0.543,0.731-2.242,0.371-2.541,1.333
			c2.82,1.93,8.286,0.212,10.446-1.067c-1.857,2.339-4.271,9.192-1.977,13.865c3.507-1.398,3.958-5.682,7.905-6.666
			c-1.355,1.676-1.442,5.896-0.848,8.532c1.988-0.041,2.371-2.108,3.671-3.2c2.144-1.801,5.34-2.55,7.058-4
			c-1.95,8.025-3.324,16.591-9.317,20.798c-0.64-5.404,1.623-8.066,3.106-11.465c-4.466,0.848-6.104,4.368-9.599,6.132
			c0.031-1.542,3.586-4.709,1.693-7.199c-2.387,5.3-9.86,5.798-14.397,9.066c0.098-1.954,3.778-2.827,4.232-5.332
			c-2.78-0.194-5.233,1.868-7.34,3.465c-1.751,1.33-3.906,3.272-5.645,5.066c-2.759,2.844-4.636,5.364-6.213,9.065
			c-5.04-4.305-12.985-5.867-20.608-7.733c2.95-2.813,7.129-4.464,11.857-5.599c0.924-0.419,0.091-1.486,0.563-1.866
			c4.199-1.555,11.402,1.224,14.683-1.334c-0.535-2.783-4.415-2.407-6.211-4c6.778-2.187,18.578-0.858,25.408-2.131
			c-0.284-2.596-3.729-2.955-5.647-4.267c-0.882-0.604-1.389-1.602-2.259-2.133c-12.52-7.647-36.025-10.097-54.486-5.865
			c6.849-2.42,13.757-4.784,17.785-9.866c-1.494-1.421-3.913,0.449-5.928,0.268c5.53-4.554,13.866-6.458,18.068-12.266
			c-1.539-1.462-3.694,0.657-5.929,0.267c5.506-3.51,11.685-6.384,15.246-11.732c-2.311-1.057-6.196,0.621-8.754,1.066
			c3.893-1.901,8.042-4.698,12.706-6.132c2.752-0.846,5.937-0.471,8.47-2.132c-1.229-2.308-5.495-2.416-8.47-2.667
			c-15.215-1.281-25.719,4.283-35.01,11.199c-7.058,5.256-14.59,10.009-19.762,15.731c-2.429,2.686-4.715,6.398-7.623,9.599
			c-2.727,3-5.141,6.595-7.904,9.065c-1.197,1.07-3.642,2.761-4.518,2.932c-1.363,0.267-3.011-0.536-4.235-0.533
			c-13.381,0.04-22.612,6.093-32.185,10.132c-5.445,2.299-10.805,5.72-18.916,3.466c9.268-3.603,21.558-5.769,25.692-13.33
			c-0.01-1.246-0.803-0.508-1.692-0.533c5.157-3.395,9.729-7.341,12.42-13.065c-2.484-0.097-5.025,1.987-7.059,3.199
			c3.387-5.867,10.396-10.625,12.988-18.13c-1.337-1.156-2.543,1.493-3.389,0.799c1.944-7.23,6.089-12.38,8.753-18.93
			c-2.491,0.073-4.687,2.667-6.775,4c0.886-2.538,2.871-4.795,4.518-7.199c1.642-2.401,3.174-5.044,5.081-7.199
			c2.392-2.704,5.73-4.02,7.905-6.666c-6.356-1.059-11.384,4.903-15.811,7.999c-3.237,2.263-7.484,2.887-10.163,4.799
			c-1.773,1.267-3.031,3.296-4.8,4.799c-4.952,4.208-9.924,9.227-14.116,14.131c-3.717,6.735-8.364,12.94-11.294,20.797
			c-1.169,3.137-2.347,6.66-3.67,9.865c-1.45,3.515-2.549,7.891-4.516,10.399c-3.568,4.55-9.019,6.731-14.116,8.798
			c0.437-3.198,4.223-12.967,0-14.132c-4.98-1.37-6.342,7.023-8.188,9.866c0.439-4.763-1.493-9.558-0.848-13.865
			c0.171-1.14,1.218-2.15,1.411-3.199c0.701-3.785-1.09-6.591-1.976-10.132c6.826-1.464,12.193-4.304,14.115-10.399
			c-0.009-0.968-0.829-1.171-1.976-1.066c4.214-2.865,7.133-6.951,6.776-14.131c-0.362-0.366-1.688-0.464-1.695,0.268
			c-0.214-2.939,3.024-9.827-0.562-11.999c-4.207,2.338-5.731,7.208-7.625,11.731c-1.18-0.217-0.958-1.761-2.54-1.599
			c-4.314,1.969-1.573,10.601-5.646,12.798c0.344-1.51,0.941-3.708,0.283-5.333c-0.675-0.895-2.047,0.528-2.259,0
			c0.782-4.191,0.496-9.897-1.129-13.331c-1.574-0.67-1.744,1.354-2.259,0.8c0.794-4.292-10.06-21.691-10.165-7.732
			c-0.748-0.625-0.733-1.973-1.975-2.133c-2.166,3.201-1.989,11.358,0.846,13.598c-0.689,0.546-1.348-1.204-2.822-0.8
			c0.293,2.921,1.018,5.438,2.822,6.933c-0.574,0.611-1.477-0.391-1.976,0.533c0.845,5.601,7.108,6.084,7.059,12.531
			c-0.156,1.18-1.151-0.893-2.543-0.266c-2.137,3.321,0.527,7.078,1.695,10.398c1.184,3.365,3,6.804,3.952,10.132
			c2.024,7.066,1.228,14.815,1.695,22.93c-4.099-5.006-10.221-8.011-8.47-17.864c-0.556-0.81-1.131-1.598-2.824-1.333
			c0.623-3.057,1.073-7.396-1.693-8.533c0.017-2.916,0.471-5.419,0.282-8.532c-0.039-0.852-1.26-0.587-1.693-1.066
			c-0.045-3.335,0.281-7.021-1.13-9.065c-1.228-0.517-1.563,1.163-1.977,0.533c-0.281-2.134-0.634-4.201-1.13-6.132
			c-0.71-0.862-1.555,0.065-1.977-0.267c-2.471-4.435-3.287-11.806-9.314-11.998c-1.146,1.051-1.202,3.131-1.13,5.332
			c0.132,0.929-1.642-0.211-1.977,0.8c-1.284,5.686,1.502,9.759,3.106,13.599c-1.124-0.171-1.524,0.338-1.978,0.799
			c-0.368,3.99,1.44,5.927,2.54,8.532c-0.561-0.555-1.205-0.009-1.411,0.533c-1.304,6.784,2.566,10.879,6.493,13.598
			c-4.666,3.363,4.075,7.991,6.776,9.866c1.567,5.718,3.093,11.478,5.081,16.797c-6.678-4.092-12.683-8.819-17.502-14.665
			c-0.71-5.73-2.954-10.009-7.625-11.999c-0.721,0.12-1.298,0.375-1.692,0.801c-1.452-2.362-2.421-5.18-5.084-6.4
			c-0.947,0.17-2.056,0.189-2.54,0.801c-0.56-1.339-1.411-2.4-3.104-2.667c-0.62-2.082-0.925-4.459-2.26-5.865
			c-1.17-0.306-1.1,0.561-1.977,0.533c-0.264-5.262-2.3-8.849-4.233-12.532c-1.348-0.542-1.862,1.064-2.259,0.533
			c-1.203-3.751-2.553-7.365-5.647-9.331c-1.727-0.208-1.79,1.154-3.106,1.332c-0.979-5.383-4.097-8.75-7.904-11.464
			c-1.373-0.409-1.063,0.773-1.976,0.799c-3.054-3.166-6.847-7.034-12.987-6.399c-2.154,3.083,0.44,7.938,2.259,9.866
			c-0.671,0.521-1.562,0.834-1.976,1.599c1.792,4.794,5.795,7.503,9.034,10.932c-0.739-0.075-1.215,0.098-1.129,0.8
			c0.477,7.814,8.703,8.312,12.423,13.064c-1.076-0.126-1.764,0.114-1.977,0.801c2.473,4.418,6.731,7.151,11.01,9.865
			c-0.336,0.662-1.73,0.321-1.411,1.6c1.142,3.809,4.927,5.122,8.188,6.932c-0.323,0.584-0.728,1.09-0.565,2.133
			c3.419,4.854,13.104,3.823,18.068,7.465c2.132,1.564,4.137,4.146,6.494,6.133c2.404,2.028,5.24,3.778,6.211,6.399
			c-7.678-1.815-11.195-7.558-21.175-7.199c-0.794,0.049-1.201,0.463-1.13,1.333c-4.029-3.215-7.086-7.35-13.832-7.999
			c-0.846,0.268-0.558,1.607-0.848,2.399c-1.905-6.555-3.627-13.284-6.21-19.197c0.279,4.181,2.022,9.287,1.411,15.198
			c-1.255-0.9-1.22-2.194-1.978-3.466c-1.45-2.444-5.115-5.634-5.646-8.532c-1.549-8.461-3.813-16.656-9.316-22.131
			c0.942,2.92,2.135,9.078,1.412,13.599c-4.528-11.1-10.867-20.489-18.352-28.797c0.389-7.643,0.818-16.708-1.411-22.663
			c-1.294,0.88-1.18,2.919-1.412,4.266c-0.732,4.258-1.667,9.148-2.822,13.331c-3.001-2.942-6.872-5.064-11.011-6.932
			c0.3,2.41,2.783,4.38,4.235,6.667c1.511,2.378,3.15,5.013,4.234,7.199c1.581,3.187-1.055,8.342-2.257,12.798
			c-1.949,7.217-3.198,14.344-2.259,23.462c-6.647-10.438,1.46-31.11-5.928-41.594c-1.942,3.943-2.014,9.653-2.542,14.932
			c-2.774-6.357-5.381-12.871-12.986-14.665c0.212,2.942,2.48,6.278,3.67,10.398c0.86,2.978,1.375,5.824,2.541,8.799
			c1.824,4.657,3.841,7.732,3.388,14.132c-0.977,13.745-5.868,23.902-12.141,32.529c-0.089-0.475-0.379-2.044-1.129-2.667
			c-1.458,0.045-1.822,1.125-3.106,1.333c3.987-3.171,8.808-6.962,7.341-14.397c-2.476,0.595-4.127,1.967-5.929,3.2
			c2.914-5.161,8.16-11.843,6.494-21.331c-2.352,0.801-3.579,2.665-5.929,3.466c1.744-4.492,4.43-9.494,3.105-15.999
			c-3.463,1.795-5.199,5.222-8.188,7.466c0.599-4.591,0.664-11.994,0.565-18.132c-3.317,1.599-5.967,4.002-8.188,6.666
			c-2.176,2.609-4.596,5.416-5.646,9.065c-0.92-2.686-0.906-6.254-1.694-9.065c-3.086,1.198-4.436,4.549-5.929,7.199
			c-1.554,2.759-2.653,5.999-2.823,9.866c-1.123-2.496-1.124-6.049-3.105-7.732c-3.311,5.69-6.216,13.127-5.364,21.864
			c-1.956-2.953-3.603-6.196-5.929-8.799c-2.694,5.092-3.874,13.88-2.541,21.063c-0.951,0.226-2.448-1.554-3.67-2.666
			c-1.357-1.236-2.714-2.596-3.953-3.467c-2.545,1.152-2.53,4.721-3.105,7.732c-0.764-0.789,0.265-3.272-0.848-3.732
			c-1.6,0.622-3.435,1.022-4.8,1.867c9.049-8.52,18.204-20.669,20.045-35.995c-9.608,1.772-18.181,6.824-26.539,10.666
			c8.109-8.607,12.671-20.562,16.092-33.596c-3.367-0.519-6.458,1.922-9.316,3.2c-11.315,5.056-20.931,13.789-25.691,25.063
			c-1.384-5.183-1.892-11.19-3.107-16.532c-2.519,4.198-4.236,9.153-6.775,13.332c-3.965-13.053-9.121-24.981-16.939-34.396
			c-2.326,8.356-4.25,18.292-3.388,28.796c-2.301-3.337-3.979-7.264-5.929-10.932c0.626,14.164,3.969,28.069,7.623,40.262
			c-0.913-0.522-1.277-1.603-1.694-2.399c-2.417-4.623-5.712-9.829-9.317-13.865c-2.709-3.033-6.511-5.788-9.881-8.532
			c0.215,1.752,1.606,2.392,2.541,3.466c-0.448,3.553,3.029,5.658,4.235,8.532c-2.33-1-4.435-4.52-8.47-4.798
			c-2.122,2.543,1.143,5.111,2.259,6.932c3.433,5.601,7.053,10.383,10.445,16.53c1.463,2.652,3.307,5.269,4.518,8.799
			c-3.161-0.394-6.183-3.225-10.447-3.465c-0.862,2.283,0.916,4.255,0.848,6.665c-1.23,0.172-3.191-0.347-3.953,0.267
			c-0.849-0.088-0.332-1.464-1.13-1.601c-6.364,0.566-11.191,2.584-16.092,4.533c0.961-1.404,3.715-1.114,4.235-2.933
			c-3.815-2.556-11.241-0.193-15.527,0.267c1.049-1.41,3.548-1.45,4.235-3.2c-1.107-1.35-3.732-0.958-5.364-0.799
			c-4.901,0.474-9.179,2.251-12.139,4.265c-0.965-2.221-3.832-3.998-4.235-5.865c5.672-1.384,14.703-1.131,21.456-2.134
			c6.191-0.917,12.269-3.125,16.939-6.132c2.622-1.688,5.907-4.278,6.493-7.2c-10.457,2.313-26.727-2.519-36.984,1.867
			c5.399-4.056,13.708-5.363,18.916-9.599c-1.216-1.593-3.715-0.521-5.364-0.533c-2.962-0.023-6.035-0.808-9.035-0.533
			c-6.879,0.628-12.762,2.537-17.504,4.799c2.743-3.616,4.377-8.512,8.188-11.199c3.897-2.748,9.742-3.75,14.117-6.398
			c1.887-1.144,2.959-2.803,5.081-3.733c3.452-2.694,4.649-6.89,7.623-9.864c2.681-2.683,6.674-4.919,9.88-7.2
			c3.349-2.381,6.021-5.153,9.036-7.732c-6.117-1.883-11.622,0.097-17.222,1.066c-18.73,3.242-33.915,8.306-42.348,21.597
			c1.261-4.501,4.931-10.445,5.929-15.198c-5.719,1.88-9.373,7.178-12.987,11.732c-3.722,4.687-6.91,10.287-8.469,16.532
			c-3.355-3.824-1.885-10.672-1.413-16.798c0.48-6.226-1.256-13.199-3.388-17.865c-1.047-2.292-2.962-5.68-6.775-6.132
			c-0.469,2.978,2.133,5.271,2.541,8.531c0.54,4.312-1.917,8.576-1.976,13.066c-1.733-2.133-3.503-6.291-6.493-9.066
			c-1.922-1.783-6.866-5.264-9.035-3.466c3.238,9.948,7.444,19.223,8.47,31.196c0.617,7.204-2.239,15.931-0.282,23.196
			c-4.879-1.894-14.236-1.287-18.916,0.266c3.42-8.655,5.278-15.554,4.517-25.863c-0.486-6.584-4.757-12.087-5.646-18.93
			c-0.732-5.641-1.399-13.31-1.129-18.93c-1.915-0.021-1.68,2.08-2.259,3.2c-1.336,2.587-3.12,5.437-4.517,8.266
			c-0.965,1.951-2.739,3.564-3.67,5.332c-2.103,3.992-4.445,10.529-5.929,15.464c-2.344,7.79-4.284,14.398-3.671,23.731
			c0.446,6.777,2.663,11.405,5.647,16.53c-3.385-0.991-9.38-0.744-12.14,0.534c-2.742-1.854-4.068-5.047-7.341-6.399
			c1.564-5.456,0.94-12.977,1.412-19.464c4.01-3.589,9.409-5.866,12.421-10.398c-1.55-2.845-7.225-3.883-11.01-2.934
			c1.615-5.322,8.57-9.32,11.01-13.864c-0.885-0.908-3.481,0.184-5.081,0.266c2.265-2.126,4.964-3.844,7.34-5.865
			c-3.143-1.532-7.19-0.345-10.446,0.266c-10.245,1.922-18.702,5.75-21.456,14.398c-0.855,0.542-1.839-1.151-3.106-1.866
			c-3.668-2.073-9.763-2.769-14.963-3.467c-2-0.268-3.761-0.964-5.646,0c-0.31,0.266-1.06,1.454-0.283,1.867
			c-0.928,0.334-2.902-0.631-4.799-0.268c3.189-2.897,7.973-3.999,12.705-5.599c3.329-1.126,6.161-3.709,9.316-4.533
			c1.407-0.367,3.22,0.582,3.953-1.066c-1.735-1.414-5.028-1.205-7.34-2.4c-2.366-1.222-2.966-2.607-5.364-2.932
			c-7.614-1.034-13.622,1.707-18.069,4.532c-0.132-4.23-0.388-8.343-3.106-10.131c-1.985,1.496-0.639,4.672-1.129,7.732
			c-2.374-2.816-3.312-6.11-6.775-8.533c-5.75-4.022-17.859-2.789-24.563-0.267c-0.078,1.407,1.809,0.959,2.259,1.867
			c3.866,6.037,4.621,15.011,9.035,20.53c-8.49-0.021-14.723,2.094-18.069,6.932c2.316,2.015,5.639,1.664,8.188,2.667
			c9.963,3.92,14.063,14.366,18.916,23.196c-1.567-0.432-2.897-2.052-4.799-1.333c0.87,3.266,4.527,3.901,5.929,6.666
			c0.738,7.54-3.354,10.521-7.906,13.064c-3.225-1.912-6.363-4.246-9.316-6.932c-2.648-2.409-6.03-5.396-7.623-8.533
			c-1.151-2.265-1.989-5.317-3.105-7.998c-2.855-6.862-3.506-15.48-6.212-22.664c-1.502-3.99-3.37-8.235-5.646-11.999
			c-2.095-3.46-5.025-6.19-7.341-9.065c-2.45-3.04-3.673-6.723-6.775-9.599c1.187,3.521,0.834,7.21,1.411,10.933
			c0.938,6.045,2.913,12.158,3.67,18.13c0.624,4.909-1.282,9.029-0.563,13.598c0.361,2.298,1.502,4.449,0.847,6.932
			c0.552,1.154,1.975,1.723,3.105,1.6c1.547,3.161,1.333,7.985,5.082,9.065c1.581,3.662,4.935,5.651,7.622,8.266
			c-5.95-3.094-11.141-7.736-16.092-12.532c-0.867-0.841-1.316-2.174-2.258-2.933c-2.295-1.852-5.358-2.705-8.188-4
			c-3.385-1.549-6.55-4.556-11.011-4.266c6.458,6.166,8.707,18.617,14.964,25.863C9.091,90.455,4.564,93.645,0,96.8
			C0,66.404,0,30.396,0,0c321.034,0,641.954,0,963,0C963,31.107,963,67.826,963,98.934z M925.168,56.272
			c-0.09-3.114-0.205-6.206-1.693-7.999C923.12,50.822,923.681,54.596,925.168,56.272z"/>
		<path fill-rule="evenodd" clip-rule="evenodd" fill="#7b93ea" d="M481.641,75.737c2.118,3.584,4.871,10.667,1.976,14.931
			C483.123,86.573,482.22,80.632,481.641,75.737z"/>
	</g>
</g>
</svg>