<svg version="1.1" xmlns="http://www.w3.org/2000/svg" xmlns:xlink="http://www.w3.org/1999/xlink" x="0px" y="0px" width="680px"
	 height="99.999px" viewBox="0 0 680 99.999" enable-background="new 0 0 680 99.999" xml:space="preserve">
<g id="Layer_2" display="none">
	
		<rect x="-1471.249" y="-341.838" display="inline" fill-rule="evenodd" clip-rule="evenodd" fill="#EC008C" width="3648.365" height="1065.106"/>
</g>
<g id="Layer_1">
	<g id="wUNX9G_1_">
		<g>
			<path fill-rule="evenodd" clip-rule="evenodd" d="M680,97.944c-3.455,0-6.911,0-10.366,0c-0.831-3.159-2.928-5.051-4.585-7.381
				c1.032-5.38-1.639-10.263-5.383-12.169c0.719-1.555,2.633-1.744,2.99-3.391c0.693-3.194-2.057-5.322-4.585-6.184
				c-0.525-1.004-0.576-2.483-1.595-2.992c-2.521-0.129-4.199,0.585-5.98,1.196c-1.294-1.386-0.116-4.013-0.997-5.784
				c0.87-1.591,1.753-3.167,2.393-4.987c1.554-0.573,3.24-1.013,3.986-2.394c-0.064-1.267,0.169-2.829-0.199-3.79
				c3.766,1.634,8.388-0.038,8.972-2.992c1.767-8.945-12.354-11.374-15.352-4.788c-0.775-0.021-0.342-1.253-0.996-1.396
				c-3.778-0.68-7.822-1.488-10.765,0.599c-1.84,1.304-3.835,4.317-2.193,6.981c-2.38,2.515-0.73,5.289-0.398,8.777
				c0.229,2.403-0.746,4.853-0.398,6.583c0.344,1.713,1.905,2.664,2.591,3.392c2.058,0.493,3.585,0.244,5.582-0.2
				c-0.127,1.27-0.453,2.34-0.598,3.591c-2.405,1.184-5.143,2.036-6.18,4.588c-2.226-1.431-3.688-3.625-6.579-4.389
				c0.337-0.793,0.156-2.104,0.199-3.191c-0.698-1.097-2.622-0.967-4.187-1.197c-1.984-2.402-2.944-5.83-4.585-8.577
				c0.801-1.406,0.303-2.496,0.598-4.189c0.868-4.983,4.178-10.356,1.595-15.359c-1.608-3.117-5.586-3.735-9.569-3.591
				c-3.973,0.145-6.56,3.095-10.765,2.394c-0.506-0.211-1.136,0.42-0.598,0.599c-0.699,0.359-1.325-1.062-1.993-1.396
				c-0.3,1.657,1.195,3.172,2.191,4.189c0.581,0.562-0.596,0.249-0.397,0.997c0.322,0.607,1.011,0.85,1.595,1.197
				c-1.863,2.231,0.611,4.381,0.398,6.583c-0.088,0.908-1.014,1.46-1.396,2.394c-0.93,2.271-0.933,5.768-0.2,7.58
				c-1.546,0.847-3.824,0.959-5.78,1.396c-1.062,2.396-2.09,4.824-3.19,7.181c-1.542-0.584-3.276-0.977-5.581-0.798
				c-0.884,1.045-1.206,2.651-1.396,4.389c-0.551,0.232-2.417-0.654-3.389,0c-1.515,1.303-0.693,2.951,0.199,4.189
				c-1.024,1.568-1.067,4.119-2.193,5.585c1.441,1.234,1.126,2.892,0.599,4.987c1.652,1.339,4.107,1.874,5.98,2.992
				c1.095-0.034,0.932-1.328,1.992-1.396c1.531,1.129,0.793,4.526,1.994,5.984c-2.528-1.262-5.205-0.486-7.975-0.599
				c-3.75-0.151-8.319-2.002-12.957-2.593c-1.543-0.197-3.102-0.016-4.586-0.2c-4.88-0.604-9.358-1.608-13.755-1.795
				c-2.406-0.103-4.881,0.295-7.177,0c-1.735-0.223-3.303-1.304-4.984-1.596c-4.476-0.776-8.929-0.878-13.157-1.995
				c-0.892-2.224-0.262-5.453-0.399-8.577c-0.107-2.479-0.333-4.912-0.198-7.182c3.29,0.32,7.354,0.912,9.967-0.199
				c2.532-1.076,2.448-4.127,2.792-7.381c1.567,1.563,1.383,4.52,4.187,5.785c2.832,1.278,9.229,0.868,13.355,0.199
				c3.739-0.605,5.773-3.551,6.181-6.782c1.853,0.218,3.888,2.901,6.181,1.995c1.143-0.452,1.105-2.737,0.996-4.389
				c-0.192-2.902-1.121-7.423-1.195-9.774c-9.343-3.817-18.237-8.084-26.316-13.166c0.716-0.747,2.031-0.894,2.593-1.795
				c-0.919-5.897-7.63-4.854-13.557-5.586c-0.997-0.123-1.948-0.702-2.791-0.798c-3.333-0.379-7.376,0.435-11.164,0.2
				c-4.293-0.268-7.433-0.396-11.164,0.199c-4.973,0.792-9.228,3.271-10.964,6.383c-0.034,0.965,0.337,1.525,0.798,1.995
				c-2.863,2.646-6.016,4.747-9.171,6.981c-2.264,1.604-4.017,3.98-6.379,5.586c-2.784,1.891-6.181,2.746-9.37,4.188
				c0.541,4.5-1.304,12.431,1.795,14.961c4.284,0.607,7.503-1.338,10.963-2.194c2.61,1.377,7.81,3.192,12.361,3.591
				c6.337,0.556,8.666-1.556,9.967-5.984c1.26,2.8,2.036,5.649,5.583,6.184c2.774,0.419,7.741,0.168,9.769-0.398
				c-0.248,5.401,1.262,11.06,0.397,15.759c-2.021-0.377-4.059-0.21-6.18-0.399c-2.258-0.201-4.506-1.171-6.579-1.196
				c-0.795-0.01-1.617,0.355-2.392,0.398c-2.849,0.158-5.663-0.918-8.373-1.196c-7.487-0.771-13.834-1.844-20.733-2.594
				c-1.833-0.199-4.326-1.16-5.98,0.399c1.23,2.758,0.036,4.737-1.992,5.785c-0.708,3.215-0.457,7.39-0.799,10.971
				c-1.445-1.08-1.368-3.684-2.99-4.588c-0.468,1.125,0.978,1.905,0.997,3.191c-2.138-0.387-2.836-2.216-5.183-2.394
				c-0.768,0.375-0.6,1.33,0,1.796c-0.96,0.087-3.435-1.089-3.987,0.598c0.083,0.92,2.24,0.811,1.794,1.596
				c-1.484-0.413-3.433-0.124-4.984,0c0.275-2.349-0.29-4.821-0.797-6.782c-0.198-0.768-0.963-1.896-0.798-2.593
				c0.213-0.896,1.813-1.336,2.791-2.194c1.609-1.413,2.186-2.572,2.393-5.187c-1.505-0.622-2.341-1.914-3.589-2.793
				c0.52-1.462,1.78-2.804,2.99-4.389c0.932-1.218,3.236-3.398,2.791-4.787c-0.836-2.608-5.993,0.321-7.774,0.599
				c-2.132,2.987-5.056,5.181-7.177,8.179c-0.552-0.512,0.139-2.267-0.399-2.793c0.017-0.747-1.411-0.051-1.395-0.798
				c-1.479-2.192-2.12-4.939-3.39-7.381c-0.531-1.022-1.456-1.833-1.794-2.793c-0.797-2.262-0.146-4.989-1.993-6.782
				c-0.864,0-1.728,0-2.592,0c-0.127-0.864,0.949-1.358,1.395-2.194c0.485-0.906,0.488-2.229,0.998-3.191
				c0.467-0.883,1.525-1.357,1.992-2.194c1.139-2.031,1.743-5.554,1.596-8.378c-0.132-2.532-4.369-5.995-6.777-6.583
				c-2.962-0.722-4.39,0.455-6.779,1.197c-3.117,0.969-5.666,1.472-7.375,3.191c-4.277-0.118-9.971-0.424-13.357,0.997
				c-1.159,0.487-2.78,1.945-2.592,3.392c0.143,1.087,2.63,2.736,3.788,3.191c2.429,0.955,5.277,0.736,7.576,1.396
				c-0.854,1.874-0.985,4.468-1.396,6.782c-0.92,0.011-1.949-0.088-2.593,0.199c-0.918,0.942-1.188,2.535-1.595,3.99
				c-4.044,2.735-7.16,6.399-11.363,8.977c-1.556,2.802-1.671,6.127-1.396,10.173c0.137,2.003,0.699,4.459,0.399,6.185
				c-0.33,1.894-2.453,3.913-2.393,6.184c0.047,1.74,1.199,2.687,1.993,3.989c-0.31,0.819-0.929,1.332-1.595,1.796
				c-2.184-5.262-6.512-8.38-10.766-11.57c1.153-5.503-2.175-9.363-3.588-13.564c-1.954-2.499-5.635-3.271-9.37-3.989
				c-1.376-0.884-1.929-2.592-2.99-3.79c-1.309-0.18-1.728,0.532-2.392,0.997c-1.008-1.519-2.175-2.878-2.592-4.987
				c1.313-0.086,5.04-2.07,5.582-4.389c0.657-2.81-0.906-4.749-3.589-5.186c0.189-1.56,2.743-2.427,3.189-4.389
				c3.119,2.416,1.147,7.95,3.19,11.171c1.584,2.496,7.525,3.226,10.565,1.396c-3.532-0.926-3.208-2.572-2.791-5.984
				c0.377-3.081-0.078-5.628-1.595-6.782c2.294-4.755-6.219-10.377-10.565-7.38c-0.987-0.747-3.185-1.104-4.785-0.599
				c-2.547-3.789-11.761-2.062-13.954,0.997c-3.325,0.257-6.995,0.64-7.575,3.591c-0.513,2.6,0.865,5.604,3.389,6.184
				c0.434-0.365-0.75-2.814,0-4.188c1.502,1.389-0.244,4.356,1.196,6.184c-0.662,0.935-1.083,2.108-1.994,2.793
				c-1.451-3.202-2.346-6.961-4.386-9.575c-2.787,0.841-7.438-0.962-8.572,1.196c1.18,3.94,3.249,6.989,4.784,10.572
				c-1.149,0.978-2.701,1.553-3.588,2.793c-0.703,5.966,6.482,7.513,6.379,11.969c-0.047,2.012-1.992,4.919-3.389,6.981
				c-1.873,2.769-4.285,4.872-4.585,8.578c-2.312-0.517-3.352-3.635-6.181-2.793c-0.691,0.206-0.864,1.129-1.396,1.596
				c-0.752,0.663-2.411,0.707-2.192,1.995c-1.103-1.89-3.238-2.744-4.983-3.989c-0.208-4.723-4.371-5.683-7.975-7.381
				c-2.775-1.308-5.686-2.081-7.975-2.992c0.187-1.684-0.401-4.272-1.794-4.588c-1.524-0.347-3.75,3.052-4.187,0.199
				c-0.11-0.939,1.7,0.477,1.795-0.599c0.177-1.24-0.922-1.206-1.396-1.795c2.416-0.65,1.745-4.291,1.195-6.583
				c1.33-0.531,2.389-1.334,3.19-2.394c0.181-1.71-0.302-2.757-0.599-3.99c4.048-5.803-2.6-8.516-6.977-9.375
				c-2.261-8.295-12.169-1.312-13.158,3.989c-4.509-2.246-2.812,4.8-4.984,6.185c0.478,1.121,2.503,1.748,2.592,2.593
				c0.206,1.8-2.735,1.331-3.189,2.593c-0.513,1.427,0.64,1.788,1.196,2.992c-4.075,8.042,4.983,9.628,11.562,7.979
				c0.77,0.56,0.16,2.5,0.598,3.392c-0.559,0.771-1.187,1.472-1.595,2.394c-6.556,1.153-8.705,6.715-7.974,15.16
				c-0.743,0.7-1.736-1.688-3.788-0.997c-1.006,0.247-0.537,2.146-0.398,2.992c-0.827-0.915-4.144-3.153-3.788,0.398
				c-3.322-1.197-4.278-4.762-4.984-8.577c0.897-1.777,1.886-5.46,0.599-7.58c-2.451-1.021-3.683,1.03-5.582,0.997
				c-2.309-0.04-4.188-3.23-7.576-1.795c-0.588,2.187,1.53,2.721,1.596,3.59c-3.258,0.46-5.769,1.073-9.171,0.998
				c0.828,5.09,8.352,3.479,13.357,4.389c0.9,1.826,3.015,3.881,2.192,6.184c-6.188-1.921-9.036-7.182-16.945-7.381
				c-0.661-2.265-2.031-3.819-2.392-6.384c2.573-0.481,5.388-2.217,5.781-4.787c0.371-2.424-1.373-4.9-2.193-6.981
				c4.562,0.257,2.376-3.267,0.798-4.987c-1.043-1.136-2.229-2.127-2.592-3.191c-0.782-2.294-0.24-4.931-2.192-6.583
				c-2.181-1.845-6.462-2.114-8.972-0.798c-1.462,0.767-4.092,3.172-4.983,4.987c-1.529,3.112-0.179,6.935,1.196,10.771
				c0.312,0.923,1.1,0.129,1.396,0.997c0.709,4.609-0.42,9.545-0.798,13.964c-1.141,0.144-1.78-0.213-2.791-0.199
				c-0.713,1.082-0.984,2.605-1.795,3.591c0.412,0.652,1.01,1.117,1.994,1.196c-1.458,1.148-1.967,3.112-3.589,4.588
				c-1.742,1.587-4.222,2.245-3.388,6.185c-0.871,0.06-1.653,0.207-2.193,0.598c-2.052-1.139-3.022-3.359-4.984-4.588
				c-1.129,0-2.259,0-3.389,0c-0.879-3.592-2.321-5.806-3.588-9.176c-0.83-2.205-2.312-4.298-2.792-6.184
				c-1.144-4.498-0.082-8.471-2.392-11.37c-1.083-1.36-2.886-1.912-4.187-2.793c2.854-1.473,0.247-5.091,0.598-8.179
				c-2.548,0.243-4.758,0.825-6.579,1.795c-0.079-0.885-1.48-2.621-0.996-4.188c0.199-0.647,1.505-1.307,2.193-1.995
				c0.67-0.671,1.623-1.466,1.793-2.394c0.296-1.601-0.957-3.566-0.797-4.987c0.119-1.06,1.182-1.571,1.196-2.394
				c0.043-2.396-2.863-2.956-5.382-3.989c-1.619-1.812-1.988-5.066-4.785-6.185c-3.022-1.208-9.554,1.303-10.167,3.192
				c-0.609,1.875,0.97,2.836,0.996,4.188c0.033,1.721-1.291,1.803-1.396,3.79c-1.038-0.343-3.054-0.38-3.389,0.599
				c-0.343,1.571,0.746,3.353,1.196,4.787c-0.857,0.738-2.163,1.028-2.592,2.194c0.218,1.245,1.882,1.043,3.189,1.197
				c0.427,2.613-2.044,4.916-1.794,6.583c0.518,3.45,8.311,2.62,11.962,2.593c1.406,5.442-2.834,6.126-4.785,8.777
				c0.137,1.126,0.966,1.561,1.994,1.795c-1.25,0.812-2.868,1.255-4.188,1.995c-0.05,2.676-0.669,4.783-0.996,7.182
				c-4.421-1.231-13.75-2.416-14.554,2.792c-1.219-0.497-3.163-1.527-4.585-0.598c-2.02-1.505-5.598-1.821-8.971-1.396
				c-1.833,1.689-5.171,1.874-6.578,3.989c-0.196,0.815,0.021,0.807,0,1.795c-3.29,0.917-5.034,2.689-7.975,3.591
				c0.303-8.437-0.673-15.618,0-24.137c1.645,0.031,1.707,1.491,3.389,0.997c0.207-3.533,3.025-7.503,4.984-10.572
				c-1.256-3.23,0.047-8.33-0.199-11.969c-1.27-3.145-3.82-5.982-3.788-9.774c-2.729-1.856-5.926-3.247-9.171-4.588
				c-2.979,2.537-5.444,5.589-8.971,7.58c-0.073,3.062-0.395,6.538-0.398,9.774c-0.002,1.993-0.283,4.466,0,6.184
				c0.315,1.912,2.515,3.546,3.788,5.187c1.477,1.904,2.639,3.796,3.189,5.785c1.014,0.143,2.278,0.278,3.588,0.599
				c-0.019,9.526-0.099,19.115,0.399,28.126c-3.15,1.104-4.394,4.115-6.978,5.785c-0.707-3.082-1.749-5.83-3.189-8.179
				c1.648-1.01,3.478-1.839,4.187-3.79c-2.012-2.509-3.291-5.75-5.384-8.179c1.989-6.56-3.117-8.984-7.575-10.373
				c-0.467-0.576,0.866-1.617,0.399-2.193c-1.371-0.623-4.05,0.062-5.184-0.799c0.254-0.81,1.839-0.288,2.393-0.798
				c0.548-2.329,2.771-4.563,3.189-7.58c0.256-1.849-0.874-3.534-0.398-4.986c0.312-0.956,1.736-1.016,1.994-1.796
				c-0.06-5.037-0.053-8.737-2.193-11.171c-3.708-4.213-13.954-4.668-17.942,0c-0.779,0.912-1.675,2.608-2.393,3.79
				c-2.669,4.396-1.534,10.254,0.2,15.36c1.098,0.563,2.509,0.813,3.588,1.396c0,1.396-0.338,2.454-0.199,3.989
				c-6.096,3.874-10.963,8.978-13.954,15.958c-1.853-0.606-3.938-0.98-5.981-1.396c0.423-0.707,1.731-0.528,1.993-1.396
				c0.294-1.037,0.186-2.476,0.199-3.79c0.753-0.644,2.005-0.787,2.393-1.796c0.312-2.972-0.85-4.47-1.993-5.984
				c0.672-1.322,1.17-2.818,1.396-4.588c2.923-0.285,9.751-1.524,9.569-3.79c-0.135-1.668-2.77-1.59-4.585-1.995
				c-2.082-0.464-3.475-1.284-5.384-1.396c-1.224-2.432-1.422-5.89-3.189-7.779c-5.374-1.347-10.389-0.699-14.753,1.197
				c-1.639,2.15-1.39,6.188-2.99,8.378c-3.564-0.483-7.837-0.015-10.565,0.997c0.902,3.973,6.863,3.875,10.965,3.99
				c-0.571,2.088-2.03,3.288-3.189,4.787c1.075,0.613,0.479,0.691,0.199,1.795c0.647,0.347,1.571-0.481,2.392-0.598
				c0.07,1.731-0.048,3.276-0.198,4.787c-0.835-0.239-1.548-0.208-2.193,0.199c-0.743,1.451-0.665,3.725-1.595,4.987
				c0.273,0.961,1.055,0.174,1.794,0.599c-4.229,1.458-8.242,3.233-11.562,5.585c-1.466,1.038-2.982,2.225-3.987,3.591
				c-2.464-5.641-0.196-12.2,0.797-17.953c0.952-5.506,1.191-10.279,0.2-15.36c-0.304-1.551-0.228-4.074-2.193-4.588
				c0.211,3.446,1.198,6.29,1.396,9.774c0.596,10.501-4.987,18.602-1.595,28.127c-1.056,1.068-2.206,2.295-3.589,2.394
				c-2.407,0.172-4.427-3.136-7.775-2.194c-1.091,1.169-4.001,0.518-5.383,1.396c-0.325-0.09-0.325,1.088,0,0.997
				c-2.053,0.938-3.431,2.552-4.585,4.389c0.086,0.646-0.263,1.726,0.399,1.796C7.8,94.711,4.063,96.292,0,97.545
				C0,65.03,0,32.514,0,0c226.69,0,453.301,0,680,0C680,32.647,680,65.297,680,97.944z M40.469,32.914
				c2.118-2.812,4.81-6.497,5.582-9.975c2.028-9.137-4.201-17.252-11.763-16.955c-3.261,0.128-7.848,2.363-9.769,4.986
				c-0.717,0.981-2.137,3.612-2.392,4.389c-1.896,5.782,1.045,11.089,2.99,14.961c1.223,2.434,2.364,5.15,3.39,6.583
				c0.929,1.297,2.921,2.019,2.99,3.392c-0.146,1.717-1.005,2.718-1.196,4.388c0.963,0.217,2.577,0.677,3.588,0.2
				c0.059-1.094-1.188-2.508-1.196-4.189C35.15,38.581,38.102,36.056,40.469,32.914z"/>
			<path fill-rule="evenodd" clip-rule="evenodd" d="M338.306,45.48c0.853,2.473,2.157,4.491,2.79,7.182
				c-0.951-0.407-2.374-0.132-3.389,0c-0.91-2.547-2.106-4.807-3.389-6.981C335.308,44.922,336.705,45.715,338.306,45.48z"/>
			<path fill-rule="evenodd" clip-rule="evenodd" d="M364.022,51.465c2.304,0.553,0.749,3.947-1.196,3.791
				C363.043,53.811,363.666,52.771,364.022,51.465z"/>
			<path fill-rule="evenodd" clip-rule="evenodd" d="M356.845,64.432c-0.7,0.96-1.579,1.743-2.591,2.394
				c-9.314-0.938-7.443,11.033-13.158,14.362c-0.704-3.78-0.382-7.854-0.199-11.171c2.366-1.224,4.271-2.908,4.586-6.184
				c2.986-1.135,7.02-1.221,9.37-2.992C356.06,61.494,356.11,63.306,356.845,64.432z"/>
			<path fill-rule="evenodd" clip-rule="evenodd" d="M603.249,61.04c0.56,0.836,0.929,1.863,1.595,2.594
				c2.874,0.216,4.76-0.557,6.977-0.998c0.295,0.77,0.621,1.508,0.599,2.594c-1.521,1.082-3.154,1.551-4.187,2.992
				c-3.377,4.716-0.738,13.842-2.592,19.947c-2.753-0.285-5.862-3.659-6.579,0.599c-1.11-0.603-2.268-1.244-3.388-2.194
				c-0.747-0.632-2.6-2.053-2.792-2.792c-0.37-1.431,0.69-2.385,1.197-3.591c0.886-2.113,1.983-4.51,3.189-6.184
				c0.013-0.786,1.459-0.137,1.396-0.998c-0.382-2.146-1.856-3.195-3.39-4.188c0.748-2.177,1.938-3.914,2.592-6.185
				C599.979,62.424,601.677,61.794,603.249,61.04z"/>
			<path fill-rule="evenodd" clip-rule="evenodd" d="M455.128,72.41c-0.38,0.752-0.707,1.555-1.595,1.796
				C453.849,73.392,454.245,72.658,455.128,72.41z"/>
			<path fill-rule="evenodd" clip-rule="evenodd" d="M483.636,86.973c-0.249,3.541-0.213,7.368-0.199,11.171
				c-2.781,0.574-6.076-0.406-8.971,0.199c0.324-4.928,1.061-9.443,3.189-12.567C479.352,86.472,482.016,86.2,483.636,86.973z"/>
			<path fill-rule="evenodd" clip-rule="evenodd" d="M487.622,87.571c2.178,0.747,4.76,1.088,7.575,1.196c0,3.059,0,6.118,0,9.177
				c-2.392,0-4.784,0-7.176,0C487.649,94.424,487.268,91.402,487.622,87.571z"/>
			<path fill-rule="evenodd" clip-rule="evenodd" d="M382.961,87.97c2.938,1.782,4.901,4.538,7.177,6.982
				c-1.705-0.223-3.474-0.382-5.382-0.399C384.007,92.509,383.108,90.615,382.961,87.97z"/>
			<path fill-rule="evenodd" clip-rule="evenodd" d="M510.149,89.965c-0.067,2.608,0.097,6.002,0,7.979
				c-3.544,0.088-6.557-0.354-10.167-0.2c-0.186-2.704,0.112-5.956-0.199-8.977C503.379,89.026,506.71,89.55,510.149,89.965z"/>
			<path fill-rule="evenodd" clip-rule="evenodd" d="M514.935,90.363c2.691,0.365,5.771,0.342,8.373,0.798c0,2.328,0,4.655,0,6.982
				c-2.564-0.294-5.531-0.185-8.373-0.199C514.955,95.94,514.559,92.838,514.935,90.363z"/>
			<path fill-rule="evenodd" clip-rule="evenodd" d="M346.878,91.161c1.99,1.133,4.279,1.969,6.578,2.793
				c-0.506,1.009,0.129,2.457,0,2.992c-2.997-0.255-6.686,1.44-9.37,0.798c-1.725-0.413-2.29-2.38-3.388-3.391
				c2.055,0.195,2.587-1.135,3.388-2.194c0.895-0.097,0.891,0.705,1.596,0.798C346.498,92.776,346.697,91.979,346.878,91.161z"/>
			<path fill-rule="evenodd" clip-rule="evenodd" d="M527.493,91.561c3.277,0.512,6.733,0.844,9.969,1.396
				c-0.41,1.65-0.453,3.669-0.399,5.785c-2.755-0.567-6.813,0.168-9.569-0.399C527.493,96.082,527.493,93.821,527.493,91.561z"/>
			<path fill-rule="evenodd" clip-rule="evenodd" d="M541.448,93.355c2.437,0.354,4.914,0.669,7.575,0.798
				c-0.263,1.4-0.449,2.875-0.398,4.589c-2.705,0.061-5.155,0.352-7.575-0.2C540.88,96.512,541.617,95.387,541.448,93.355z"/>
			<path fill-rule="evenodd" clip-rule="evenodd" d="M553.409,94.553c2.069,0.124,3.832,0.555,5.981,0.599
				c-0.318,1.145-0.169,2.757-0.199,4.188c-1.487,0.196-3.854-0.378-5.98-0.199C553.275,97.61,553.521,96.261,553.409,94.553z"/>
			<path fill-rule="evenodd" clip-rule="evenodd" d="M563.377,95.75c2.912,0.211,5.631,0.617,7.975,1.396c0,0.865,0,1.729,0,2.594
				c-2.352-0.44-5.498-0.085-8.174-0.199C563.097,98.129,563.533,97.235,563.377,95.75z"/>
			<path fill-rule="evenodd" clip-rule="evenodd" d="M575.937,98.144c1.44,0.62,4.295-0.175,4.785,1.396
				c-0.758,0.903-3.17,0.152-4.585,0.398C575.802,99.607,575.978,98.768,575.937,98.144z"/>
			<path fill-rule="evenodd" clip-rule="evenodd" fill="#FFFFFF" d="M334.318,45.681c1.282,2.175,2.479,4.435,3.389,6.981
				c1.015-0.132,2.438-0.407,3.389,0c-0.633-2.69-1.938-4.709-2.79-7.182C336.705,45.715,335.308,44.922,334.318,45.681z"/>
		</g>
	</g>
</g>
</svg>