<svg version="1.1" xmlns="http://www.w3.org/2000/svg" xmlns:xlink="http://www.w3.org/1999/xlink" x="0px" y="0px" width="694px"
	 height="99.898px" viewBox="0 0 694 99.898" enable-background="new 0 0 694 99.898" xml:space="preserve">
<g id="Layer_2" display="none">
	
		<rect x="-746.833" y="-647.735" display="inline" fill-rule="evenodd" clip-rule="evenodd" fill="#EC008C" width="3648.365" height="1065.106"/>
</g>
<g id="Layer_1">
	<g id="lAUBqm_1_">
		<g>
			<path fill-rule="evenodd" clip-rule="evenodd" d="M652.698,72.024c-1.01,0.347-2.198,0.517-3.662,0.407
				c-0.064-1.902,0.223-4.156-0.408-5.494c0.799-0.628,3.23-0.699,4.07-0.609C653.183,67.934,652.804,70.342,652.698,72.024z"/>
			<path fill-rule="evenodd" clip-rule="evenodd" d="M0,75.28C0,50.187,0,25.094,0,0c231.358,0,462.633,0,694,0
				c0,25.297,0,50.594,0,75.891c-9.665-0.091-18.577,0.015-28.078,0c0.139-2.859-0.083-6.19,0-9.562
				c2.407-0.179,1.776-3.348-0.203-3.459c-3.843-5.148-4.245-11.671-6.308-18.312c-1.396-4.494-3.577-9.41-3.459-14.853
				c-0.639-0.229-1.659-0.088-2.238,0c-0.101,14.216-5.049,25.33-10.784,34.588c0.328,0.622,1.241,0.658,1.831,1.018
				c-0.466,3.535-0.171,7.83-0.61,11.394c-4.68-0.703-9.111-0.504-13.428-0.406c-0.521-0.634,0.113-2.42-0.407-3.053
				c-0.864,0.251-1.096,0.075-2.035,0c-2.573,8.89-6.418,16.506-10.784,23.602c-2.376-9.967-5.97-18.716-7.325-29.705
				c-0.669-0.009-1.013-0.344-1.831-0.204c-1.516,5.199-1.756,11.673-3.662,16.48c-5.872,0.416-11.666,0.365-17.498,0.407
				c-0.685,0.535-0.691,1.75-1.424,2.237c-1.298-1.821-4.569-1.67-6.104-3.255c1.592-3.765,2.046-8.668,6.307-9.766
				c0.964-1.206,2.247-2.094,2.849-3.662c-1.052,0.104-1.809,2.258-3.255,2.645c0.247-1.703,0.809-5.089,0.203-6.307
				c-0.936,2.183,0.614,6.852-2.238,7.12c0.119-0.633,0.955-2.469,0-2.848c-0.049,2.595-1.158,4.132-2.441,5.493
				c-1.282-2.644,0.092-6.293-0.407-9.155c-1.061,2.953-1.479,7.619,0.204,10.172c-1.229,1.621-1.55,4.147-2.442,6.104
				c-0.471-0.817-0.78-1.796-1.22-2.645c0.733,0.055,1.407,0.051,1.22-0.813c-1.198-3.957-5.172-6.9-10.172-7.732
				c-0.184-1.152,0.522-1.632,0.407-2.848c-0.232-2.44-2.974-4.445-4.272-5.9c-2.121,1.25-2.431-0.913-4.477-0.611
				c-1.584-3.837-7.272-7.949-12.004-7.528c-1.5,0.134-5.095,1.545-6.714,2.239c-1.715,0.734-2.656,2.788-4.273,3.255
				c-1.196-0.691-1.965-2.002-3.255-2.238c-3.942-0.721-5.76,1.55-7.935,2.645c-0.939,0.474-2.166,0.496-3.052,1.018
				c-2.873,1.691-3.76,4.794-5.086,6.511c-2.207-0.505-4.587-0.838-6.918-1.22c0.267-1.43,1.255-2.137,1.628-3.46
				c-1.452,0.786-2.014,2.463-2.848,3.866c-4.244,0.368-5.004,4.221-7.936,5.9c-0.158-1.673-0.5-3.162-0.407-5.087
				c2.086-3.069,5.429-4.88,6.308-9.155c-1.007-0.122-1.153,2.37-2.442,2.645c-1.688-2.043-2.613-5.932-4.476-7.121
				c1.317,2.685,2.774,5.229,4.069,7.936c-0.965,1.274-2.488,3.071-3.459,3.661c0.01-1.434,0.029-2.877-0.813-3.458
				c-0.134,1.427,0.269,3.388-0.204,4.476c-3.005-1.063-4.573-3.564-7.121-5.086c1.556,2.988,4.426,4.662,7.325,6.308
				c-0.565,2.582,1.608,5.94-0.814,6.714c-0.776-2.072-1.315-4.382-3.052-5.493c0.558,2.358,1.804,4.028,2.441,6.307
				c-0.758,2.748-1.78,4.919-2.238,8.343c-1.629-0.746-4.047-0.702-5.087-2.035c-0.557-4.258,0.236-9.866-1.627-12.818
				c-0.274,1.634,0.468,3.326,0,4.477c-3.513-1.1-5.056-4.167-7.121-6.715c1.167,3.987,4.062,6.247,7.528,7.936
				c0.188,1.801,0.437,4.552,0,6.308c-2.443-1.287-3.688-3.773-5.086-6.104c-0.618,1.084,1.259,2.358,0.814,3.255
				c-0.487-0.122-0.928-0.292-1.628-0.202c-1.165-1.888-1.104-5.001-2.848-6.308c0.46,1.929,1.633,4.178,1.628,5.9
				c-0.872-0.282-1.856-0.45-3.052-0.407c-1.308-2.112-1.598-4.173-1.628-7.324c-0.864,0.152-0.537,1.498-0.61,2.441
				c-0.597-0.404-1.501-2.498-2.035-1.628c0.987,1.997,2.9,4.152,3.051,6.308c-1.645,0.285-2.783-1.01-3.866-0.611
				c1.306,1.668,4.054,1.384,6.308,1.831c2.302,0.458,4.398,1.646,6.307,1.425c1.916,3.577,6.188,4.8,9.766,6.714
				c-1.186,0.714-2.415,1.384-3.255,2.441c-1.434-1.211-3.222-2.067-5.29-2.645c-0.922-1.654-1.073-4.082-2.238-5.493
				c-0.093,1.994,1.088,3.793,1.017,5.087c-2.377,0.004-2.498-2.25-3.662-3.46c-0.021,1.111,1.198,2.051,0.814,2.849
				c-2.365-0.234-3.855-0.448-6.104-1.018c-0.329,0.812,1.627,1.082,2.238,1.629c-1.125,0.501-2.823,0.432-3.255,1.627
				c2.014,0.335,3.384-1.502,5.29-1.627c1.663-0.109,4.212,1.013,5.9,1.627c1.981,0.722,3.952,1.54,4.883,2.849
				c-0.942,0.956-1.749,2.05-2.238,3.458c-7.077-0.151-14.971,0.623-21.973,1.222c-0.887-2.283-2.598-4.658-5.901-3.866
				c-0.823-3.788-2.461-6.762-4.679-9.155c-0.166-5.392-8.194-5.497-12.818-4.477c-3.63-3.059-6.635-7.685-14.242-6.104
				c-4.68-3.358-13.99-4.139-18.718-0.203c-1.296,1.078-1.551,2.397-2.849,3.458c0,0.611,0,1.222,0,1.831
				c-2.084,2.891-2.67,8.435-1.831,13.022c-2.51,0.405-3.461,2.37-5.086,3.662c-0.245,1.099,0.629,1.078,0.204,1.831
				c-1.204,0.897-0.061,4.145-1.831,4.476c0.148-3.333-3.537-5.458-4.07-8.342c-0.27-1.462,1.199-4.138-1.22-4.476
				c-0.13,1.228-0.415,3.328-1.018,4.68c-10.072-0.44-20.382,0.964-30.519,1.018c-0.774-2.583-1.323-5.032-2.035-7.936
				c-0.587-2.394-2.081-4.892-2.238-7.731c-0.431-7.766-0.226-16.572-0.61-25.025c-0.215-4.731,0.258-11.923-3.866-11.8
				c-0.34,0.275,0.4,1.935-0.204,2.44c-1.625-0.544-3.747-0.593-5.29-1.221c-1.104-5.493-2.195-11.257-3.458-16.684
				c-0.66-2.833-1.667-5.506-2.238-8.139c-0.284-1.312,0.302-3.58-1.627-3.865c-0.855,9.505-1.742,20.416-3.866,29.299
				c-0.807,0.413-2.091,0.349-2.849,0.813c-0.042-0.839,0.021-1.785-0.813-1.831c-2.628,0.759-1.731,4.556-1.628,6.917
				c0.298,6.776,0.325,15.81-0.203,21.974c-13.101,0.984-27.284,1.755-40.692,1.424c-1.419-5.576-4.435-11.496-5.697-17.497
				c-0.55-2.617,0.345-7.318-2.034-8.749c-1.101,9.683-3.486,18.081-6.307,26.043c-1.638-0.078-2.635,0.485-4.273,0.407
				c-0.165-1.162-1.9-1.68-2.238-2.849c-0.199-0.688,0.306-1.589,0.204-2.238c-0.323-2.045-3.212-3.033-2.645-5.289
				c-2.104-0.88-2.758-3.21-5.9-3.053c-0.593-2.647-1.794-5.353-3.866-7.121c-1.543-1.316-4.001-3.279-6.104-4.069
				c-1.262-0.474-2.705-0.105-4.069-0.406c-1.589-0.351-2.621-1.48-4.069-1.628c-3.485-0.356-5.344,1.78-7.121,3.459
				c-3.641-1.565-7.509,0.544-8.545,3.458c-8.987,0.169-10.38,7.932-13.835,13.632c-3.207,0.863-5.639,2.5-5.697,6.511
				c-1.096,0.872-2.169,1.766-3.052,2.85c-0.119-1.103-1.403-1.039-1.628-2.035c0.842-2.272,0.515-4.908-0.814-6.512
				c-1.249-1.507-4.032-1.493-3.865-3.661c-4.081-3.647-13.433-3.655-19.125-1.424c-0.521-3.752-4.661-3.886-6.104-6.715
				c-3.621-2.078-8.731-4.79-14.649-5.086c-0.736-0.037-1.543,0.202-2.238,0.203c-2.66,0.003-4.925-1.389-7.325-1.425
				c-2.07-0.031-4.667,1.233-6.917,1.831c-3.762,1.001-5.912,2.612-7.324,5.291c-0.341,0.337-0.162,1.194-0.204,1.831
				c-1.488,1.293-2.68,2.881-3.459,4.883c-3.198-0.062-7.458,1.605-6.917,5.289c-0.897,0.731-1.546,1.71-3.052,1.831
				c-2.265-2.01-1.953-4.982-0.813-8.138c2.856-2.772,6.971-5.371,7.121-10.174c-0.696,1.204-1.235,2.564-2.238,3.46
				c-1.045-2.007-0.727-5.378-1.425-7.731c-1.052,2.889,0.275,6.178,0.61,8.952c-0.887,1.284-2.47,2.953-3.662,3.255
				c0.309-1.59,0.783-3.015,0.61-5.086c-0.913,3.562-1.539,7.413-2.849,10.58c-0.84-1.67-2.183-2.836-3.051-4.477
				c0.204-3.41,1.681-7.135,0.203-10.173c-0.398,1.162,0.059,3.178-0.407,4.272c-1.736-0.569-2.347-2.264-4.069-2.849
				c1.36,2.343,5.356,3.282,3.255,7.325c-0.292-0.27-0.513-0.931-1.018-0.407c-0.05,2.087,2.087,3.065,2.035,4.476
				c-2.115-0.19-4.177-0.435-5.29-1.628c0.511-2.488-0.154-7.298-1.424-9.358c-0.101,1.593,0.388,2.596,0.407,4.069
				c-1.432-0.399-1.546-2.116-2.848-2.646c0.135,2.035,1.487,2.853,3.052,3.459c-0.286,1.511,0.51,3.011,0,4.069
				c-1.528-0.642-2.051-2.289-3.459-3.052c1.801,3.692,5.085,5.902,10.58,5.9c0.795,2.527,2.355,4.291,3.255,6.714
				c-2.041,0.636-4.179,0.401-5.9,1.221c-0.851,0.405-1.675,1.722-2.645,1.628c-1.909-0.184-1.854-3.685-2.441-5.087
				c-0.499-1.19-1.604-2.759-2.441-4.069c-0.83-1.297-1.882-3.014-3.052-3.052c1.577,2.899,4.027,4.925,4.476,8.952
				c-3.124-0.064-5.433-2.026-7.324-2.645c1.779,1.951,4.338,3.121,7.731,3.459c-0.25,1.004,0.873,1.691,0.407,2.238
				c-1.82-0.011-3.113-0.55-4.476-1.018c0.598,2.251,4.536,1.161,6.104,2.441c-2.23,2.722-4.244,5.658-4.273,10.579
				c-3.581-1.099-1.619-7.74-4.069-9.969c0.487,2.293,1.006,4.556,1.018,7.324c-1.165-1.276-2.246-2.637-4.272-3.052
				c0.435,1.291,2.248,1.679,3.255,3.052c0.76,1.036,1.13,2.371,1.831,3.46c0.476,0.609,1.673,0.497,2.035,1.22
				c-0.07,3.05-0.943,5.296-2.238,7.121c-1.131-3.174-4.226-6.447-8.545-5.087c-1.187-3.019-4.69-3.72-8.749-3.865
				c-3.828-10.686-8.416-20.61-12.411-31.129c-1.986-0.218-3.797,0.577-5.494,0c-0.764,1.881-1.443,3.846-2.645,5.29
				c-4.593-0.166-9.693-0.17-13.835-0.204c-0.077-2.87,0.588-6.041,0-8.749c-1.895-0.334-4.821-0.123-6.511,0.407
				c-0.805,2.1,0.067,5.301-0.61,7.121c-6.878,0.424-13.715-0.196-20.549,0.407c-0.174-1.589,0.406-3.933-0.407-4.884
				c-1.962,0.141-3.154,1.052-4.68,1.628c-3.305,7.412-5.786,15.646-10.376,21.771C8.261,76.245,3.771,75.742,0,75.28z
				 M475.281,17.904c-4.3,0.854-6.418,3.891-7.527,7.935c-1.436,0.532-2.944,0.99-4.273,1.628c0.727,1.376,2.586,1.619,4.273,2.034
				c0.815-0.54,1.153-1.559,1.831-2.237c0.998,0.441,1.996-0.292,3.255-0.203c1.137,4.764,4.711,7.089,10.58,7.12
				c0.284-0.584-0.555-1.032,0-1.22c1.001,0.626,2.288,0.968,4.069,0.813c0.55-0.374,0.036-0.688,0.407-1.018
				c1.347,0.252,3.694,0.843,4.883,0c0.198-1.185-0.73-1.702-1.424-2.034c-2.048-0.979-4.497-1.026-6.511-1.831
				c-2.682-1.073-5.461-3.259-6.714-5.697c0.992-1.041,1.617,0.711,2.645,1.221c1.562,0.774,5.099,1.621,6.917,1.628
				c1.599,0.006,3.444-0.522,4.272-2.035c-5.048-0.512-8.524-2.598-12.817-3.865c0.776-1.395,1.769-2.57,3.458-3.052
				C481.278,14.283,475.982,15.131,475.281,17.904z M502.748,28.281c-0.362-0.181-0.517-0.568-1.221-0.407
				c-1.521,2.804-3.526,7.271-2.034,11.189c-5.718,0.383-8.945-2.654-13.632-2.645c0.119,1.102,1.403,1.039,1.628,2.035
				c-1.403-0.416-3.304-0.22-4.069,0.609c0.59,2.733,3,3.648,5.697,4.273c-0.015,0.354,0.045,0.633,0.204,0.813
				c2.205,0.606,5.259,1.623,7.528,0.407c-0.841,1.468-2.565,2.899-5.29,2.237c0.937,3.124,4.389,3.368,6.104,0.814
				c1.592,0.101,3.482-0.027,4.476-0.407c4.287-1.64,3.502-7.497,8.749-7.731c-0.463-2.98-5.273-1.965-7.121-1.017
				c-1.416-4.837,1.182-8.907,2.035-13.225C503.936,25.4,503.626,27.124,502.748,28.281z M457.173,26.856
				c-2.804-0.481-2.119,3.658-2.035,6.307c-0.26-0.277-0.961-0.277-1.221,0c-0.553,1.263-0.553,3.622,0,4.884
				c-1.591,5.584,1.28,10.07,4.68,12.004c0.719,0.357,1.048-0.683,1.22-0.203c-0.891,3.314-2.885,5.523-5.493,7.121
				c0.59,1.443,1.988,2.082,3.458,2.645c1.537-1.244,2.62-2.941,3.052-5.29c1.526-0.168,2.619-0.772,4.069-1.017
				c0.943,3.937,6.978,6.955,11.19,3.865c1.877,0.521,3.483,0.265,5.29-0.203c0.353-0.974-0.748-1.543-0.407-1.831
				c0.929-0.088,2.241,0.205,2.848-0.203c-1.648-2.76-6.635-2.183-8.952-4.273c-2.592-0.121-4.087-1.338-6.307-1.831
				c0.625-0.8,0.468-2.38,1.018-3.255c1.167,0.016,2.156-0.15,2.645-0.814c-1.161-2.356-5.807-1.558-7.731-0.61
				c-3.293-3.489-4.088-9.477-4.68-15.666c-1.249,0.039-1.074,1.503-1.831,2.034C458.096,28.918,457.908,27.614,457.173,26.856z"/>
		</g>
	</g>
</g>
</svg>