<svg version="1.1" xmlns="http://www.w3.org/2000/svg" xmlns:xlink="http://www.w3.org/1999/xlink" x="0px" y="0px" width="707px"
	 height="100px" viewBox="0 0 707 100" enable-background="new 0 0 707 100" xml:space="preserve">
<g id="Layer_2" display="none">
	
		<rect x="-1471.249" y="-414.185" display="inline" fill-rule="evenodd" clip-rule="evenodd" fill="#EC008C" width="3648.365" height="1065.106"/>
</g>
<g id="Layer_1">
	<g id="_x36_Cw4i7_1_">
		<g>
			<path fill-rule="evenodd" clip-rule="evenodd" d="M578.291,65.561c0.714,5.141-0.413,10.235-0.206,15.56
				c-2.011,0.893-4.11,1.696-6.012,2.697c0.105-5.172,1.015-10.469,0.208-15.353C574.467,67.68,576.02,66.26,578.291,65.561z"/>
			<path fill-rule="evenodd" clip-rule="evenodd" d="M707,92.116c-1.396-2.736-5.467-3.786-6.011-7.054
				c-0.362-2.178,0.825-3.869,0.415-6.225c-0.504-2.898-3.321-5.36-4.146-8.506c-1.23-4.693-0.031-10.841-0.415-15.768
				c-0.121-1.565-0.203-3.741-0.621-4.771c-1.257-3.103-6.396-3.742-8.705-6.017c-0.219-2.409-0.381-4.875-1.451-6.432
				c0.828-2.995,1.383-7.303,0.83-10.996c-1.66-1.442-4.764-0.305-7.669-0.622c-0.299-1.846,0.077-4.366-1.036-5.395
				c0.466-0.826,2.076-1.451,1.242-2.904c-1.275-1.282-7.302-1.426-8.289,0.207c-0.818,1.051,0.387,1.775,0.414,2.904
				c0.049,2.114-1.512,4.613-0.207,6.847c-0.649,0.043-1.521-0.14-1.865,0.208c0,1.106,0,2.213,0,3.319
				c-3.387,2.627-3.984,8.045-4.353,13.692c-10.82-0.205-19.353,1.375-29.225,2.905c-0.106-1.207,0.234-2.861-0.207-3.734
				c-2.357-1.098-6.114-0.795-9.326-1.038c-0.396,9.596-0.336,20.528,0.207,29.876c-3.854,0.413-7.348,1.12-11.399,0.415
				c-0.816-8.902-0.231-20.188-0.414-29.046c-3.745-1.478-7.556-1.279-10.156,1.037c-0.685,5.193-0.45,12.412-3.315,14.73
				c0.271-12.224,0.182-24.454-0.415-35.892c-1.46-0.959-4.352-0.485-6.425-0.83c-1.021,1.374-1.108,2.683-2.073,3.941
				c-1.98,2.585-5.48,3.762-7.047,6.64c-0.789,1.449-0.919,3.308-1.657,4.979c-0.563,1.273-2.25,2.5-2.487,3.942
				c-0.562,3.403,0.349,7.125,0,11.411c-6.228,2.064-11.574,5.012-15.338,9.543c-3.515,1.01-8.274,1.463-11.191,2.904
				c-2.895,1.432-3.616,4.446-4.146,8.507c-0.501,3.853-0.91,8.119-1.45,12.24c-1.76,0.664-2.044,3.045-3.73,3.319
				c-3.252,0.53-3.684-4.593-6.011-6.017c-3.494-0.929-6.325-2.521-10.985-2.282c0.217-7.548-5.433-9.223-7.254-14.729
				c1.941-5.94,3.127-12.638,4.974-18.673c2.411,0.418,4.653,0.894,5.597,2.49c0.404,0.685,0.33,1.573,0.621,2.282
				c1.43,3.475,5.052,8.029,10.363,7.884c1.394-0.039,3.229-0.422,4.561-0.83c4.199-1.289,8.267-4.455,10.362-8.507
				c-2.151-2.203-6.937-1.77-10.156-2.904c1.947-5.073,8.687-4.429,12.437-7.676c0.9-0.78,1.269-1.943,2.071-2.697
				c0.756-0.708,2.323-0.856,2.28-2.282c-0.832-0.48-2.553-0.072-3.73-0.208c4.476-2.696,9.483-3.546,11.814-8.506
				c1.826-3.888,1.698-9.257,2.486-14.107c-1.572,0.13-2.438,1.863-3.315,2.904c-2.497,2.962-5.654,6.887-9.12,8.921
				c-1.08,0.634-3.108,1.694-4.559,1.452c-2.234-0.373-3.919-4.507-5.804-6.017c-1.886-1.51-5.026-3.101-8.083-2.904
				c-5.219,0.335-7.311,4.505-10.363,7.054c0.376-1.905,1.057-3.506,1.036-5.809c-1.176-1.299-4.19-0.933-4.975,0.415
				c-0.321,0.969-0.151,1.887,0,2.904c-5.351,12.418-8.362,27.175-12.021,41.286c-1.431-0.736-4.017-0.702-4.767-2.489
				c-0.6-1.431-0.036-3.645-0.415-5.188c-1.272-5.193-4.115-11.234-6.632-14.522c-3.515,0.588-8.323-0.491-12.229-0.83
				c-1.37-2.841-0.97-6.529-3.108-8.299c-3.433-2.84-9.619,1.156-13.058,2.075c-1.9,3.088-0.089,6.676,0,9.958
				c0.1,3.696-1.83,7.541-0.207,11.204c-0.83,0-1.658,0-2.487,0c-0.239-1.975-0.306-4.12-1.036-5.603
				c0.991-0.314,2.053-1.217,1.451-2.489c-1.934-0.78-6.371-0.604-8.084,0.208c-0.367,1.474,1.04,1.172,1.037,2.281
				c-0.663,1.204-0.138,3.598-0.622,4.979c-1.338-0.218-2.394-0.218-3.73,0c0.112-3.447-1.507-5.033-0.415-7.884
				c-1.569-1.41-6.128-1.43-7.047,0.623c1.828,1.797-0.066,4.168,0.622,7.469c-0.99,0.114-2.083,0.128-2.901,0.415
				c-0.305,1.77-0.307,3.843-0.83,5.394c-3.516,0.548-8.252,0.003-11.812,0.208c-0.09,1.779-0.369,4.236-0.415,5.394
				c-5.093,0.024-19.022,2.843-12.021,7.055c-0.177,0.173-0.568,1.621,0.206,1.452c1.596,0.954,4.325,0.062,6.219,0
				c0.031,1.69,0.064,3.384-0.415,4.564c1.14,1.259,1.026,3.237,0.622,5.394c-2.962-0.197-4.72,1.914-6.84,1.867
				c0.423-2.206,3.739-3.011,2.073-6.017c-7.899-1.055-17.162-0.237-25.908-0.622c-5.813-0.256-12.351,0.027-17.202,0.622
				c-0.236-0.732-0.229-1.707-0.415-2.489c1.528,0.008,3.005-0.035,3.73-0.83c0.089-2.139,1.385-5.618-0.829-6.432
				c-0.987-0.297-0.515,0.868-1.45,0.623c-8.235,0.027-16.023,1.363-24.042-0.208c0.101-1.347-0.179-2.312-0.415-3.319
				c2.607,0.254,3.096-3.085,1.657-4.564c-1.091-0.29-2.329-0.434-3.73-0.415c-3.346-12.071-8.497-22.337-21.969-24.273
				c0.99-1.167,1.447-3.717,0.414-5.187c-1.375-1.234-4.525-1.005-6.218-0.83c-0.171-3.422-0.666-7.165-4.353-6.432
				c-0.4-2.043-1.055-5.006-0.829-6.432c-1.269-0.658-0.029-5.612-1.865-5.81c-1.595-0.171-1.506,4.177-1.451,5.81
				c0.092,2.671,0.868,5.162-0.621,6.432c-1.508,0.496-3.442,0.564-4.145,1.867c-0.328,1.608-0.178,3.695-0.208,5.602
				c-3.939-0.572-6.327,2.213-5.182,5.395c-12.791,3.102-19.701,12.091-22.592,25.104c-1.651,0.701-1.939,1.814-1.865,3.941
				c1.312,0.28,2.61,1.672,1.659,3.527c-6.562-0.223-14.222,1.58-21.348,1.452c0.37,1.565,0.707,3.165,1.45,4.356
				c0.966,0.416,2.484,0.279,3.522,0.623c0.319,0.718,0.184,1.892,0.208,2.904c-2.79,0.942-5.802,1.662-8.497,2.697
				c0.322,1.696-0.275,3.579,0.207,5.395c-4.04,1.973-10.009,2.014-14.923,3.111c-0.838-4.625-1.29-9.635-2.073-14.315
				c2.499,0.394,5.582-0.592,8.084,0.208c2.883-2.735-0.354-3.587-2.488-5.187c-1.633-1.225-3.2-3.034-4.767-4.772
				c-1.523-1.69-2.545-3.624-3.938-5.394c-0.599-0.762-1.586-1.154-2.072-1.867c-0.472-0.693-0.654-1.813-1.243-2.697
				c-0.515-0.771-1.275-1.342-1.657-2.075c-0.812-1.55-1.629-3.453-2.488-5.187c-1.869-3.772-2.472-6.082-2.901-11.618
				c-0.886-0.089-2.102-0.694-2.901-0.207c-0.734,2.169-0.748,5.06-1.658,7.054c-21.949,4.533-44.406,8.073-67.567,10.788
				c-0.934-6.002-2.89-11.544-3.108-17.635c-1.48-0.724-4.468-0.473-6.011,0c0.583-2.488,0.027-5.345-1.036-6.847
				c0.575-0.807,1.535-1.229,1.244-2.904c-1.21-2.063-8.451-1.319-8.912,1.037c-0.25,1.272,0.793,1.866,1.036,2.697
				c-1.03,1.972-0.604,5.382,0,7.469c-1.068-0.212-1.808,0.686-2.488,0.208c0.384-3.165,0.052-5.724-1.45-7.469
				c0.569-0.883,1.285-1.618,1.037-3.32c-2.577-1.152-7.979-0.655-8.499,1.452c-0.458,1.86,1.626,2.22,1.865,3.735
				c0.368,2.319-1.84,4.271-0.206,6.224c-1.738,0.82-4.084,1.029-5.182,2.489c-1.025,4.991,0.07,12.104-0.622,17.428
				c-9.368,1.272-18.067,3.215-26.737,5.187c-0.512,1.142,0.098,2.941,0.208,4.149c0.886,0.496,2.267,0.498,3.315,0.83
				c0.018,3.925,0.42,7.464,0.83,10.996c-2.434-0.084-4.414,0.284-6.426,0.622c-1.288-5.419-2.172-11.241-3.109-17.013
				c-3.078-2.104-5.934-4.432-8.29-7.261c0.38-5.628,1.402-11.114,0.621-17.843c-0.431-3.724-1.299-6.228-3.315-8.299
				c-3.162-1.76-7.57-1.36-10.984-2.697c-1.312-0.514-1.967-2.006-3.523-1.659c-1.28,1.969-0.946,5.553-1.451,8.299
				c3.111,0.412,5.652,1.396,7.876,2.696c0.182,3.902,0.351,8.697-0.415,12.241c-5.165-0.708-6.707-5.042-8.911-8.714
				c-1.99-0.428-4.07-0.767-6.426-0.83c1.417-5.809,0.503-13.464-3.108-16.183c-3.535-2.202-9.3-2.171-13.68-3.526
				c-0.596,2.426-0.397,7.097-0.622,9.751c6.496-0.692,7.961,4.756,7.048,10.788c-8.906-1.183-8.113,10.072-17.41,8.506
				c-2.871,2.552-3.786,5.918-5.182,10.374c-1.198,3.825-2.383,8.791-4.146,12.655c-0.656,1.438-2.033,3.289-3.108,3.942
				c-2.661,1.616-6.602,1.23-9.12,2.904c-0.599,0.397-1.932,1.747-2.28,2.282c-1.041,1.6-1.154,3.871-0.829,6.639
				C9.657,93.934,4.27,96.286,0.242,100C-0.241,67.082,0.173,33.264,0.035,0C235.715,0,471.312,0,707,0
				C707,30.706,707,61.41,707,92.116z M410.825,10.581c-0.499-0.746-1.849-0.64-3.109-0.622c-0.614,0.283-0.229,1.567-0.621,2.074
				c-1.558,0.11-2.437,1.342-4.146,1.452c-3.781,0.244-16.156-7.322-15.545,2.075c2.165,2.535,6.277,3.122,9.534,4.563
				c-0.907,0.959-1.718,2.016-2.487,3.112c-0.983-0.086-1.695,0.102-2.279,0.415c0.295,2.533,0.465,2.502,0,4.979
				c5.299-0.025,8.257-4.181,12.021-6.432c4.603,1.063,9.385,1.946,15.129,1.867c2.017-1.162,2.695-3.664,3.524-6.017
				c-1.986-3.269-4.838,0.072-7.669,0.207c-2.211,0.105-3.657-0.438-5.182-1.867c0.435-0.695,0.796-1.27,1.865-0.829
				c2.121-1.75,5.197-2.544,6.425-5.188C416.609,8.135,412.96,10.155,410.825,10.581z M421.603,29.046
				c-0.499-0.746-1.849-0.64-3.109-0.623c-0.614,0.284-0.229,1.568-0.621,2.075c-1.558,0.11-2.437,1.342-4.146,1.452
				c-3.783,0.244-16.155-7.323-15.545,2.075c2.165,2.535,6.277,3.122,9.534,4.563c-1.345,1.419-2.095,3.436-4.767,3.527
				c0.296,2.533,0.465,2.502,0,4.979c5.299-0.025,8.257-4.181,12.021-6.432c4.603,1.063,9.386,1.946,15.13,1.867
				c2.255-0.983,5.351-7.868,1.657-8.092c-1.198-0.072-2.116,1.43-3.523,1.867c-2.609,0.813-5.242-0.588-7.461-1.244
				c1.372-1.055,3.094-1.707,4.56-2.697c1.381-0.932,3.1-1.873,3.73-3.527C427.387,26.6,423.738,28.62,421.603,29.046z
				 M385.539,31.743c-0.498-0.747-1.849-0.64-3.109-0.623c-0.614,0.284-0.229,1.568-0.621,2.075c-1.49,0.073-2.4,1.3-3.938,1.452
				c-3.835,0.38-16.357-7.405-15.752,2.074c2.165,2.536,6.277,3.123,9.534,4.564c-0.907,0.959-1.718,2.015-2.486,3.112
				c-0.984-0.086-1.695,0.101-2.28,0.415c0.296,2.533,0.465,2.502,0,4.979c5.299-0.025,8.257-4.181,12.021-6.432
				c4.603,1.062,9.386,1.946,15.13,1.867c2.014-1.097,2.587-3.635,3.523-5.81c-0.713-0.236-1.149-1.146-2.072-1.245
				c-1.203-0.128-1.695,0.729-2.902,1.038c-2.965,0.758-5.245-0.867-7.876-1.452c1.366-1.051,3.098-1.71,4.56-2.697
				c1.381-0.932,3.1-1.873,3.73-3.527C391.323,29.297,387.675,31.317,385.539,31.743z"/>
		</g>
	</g>
</g>
</svg>